<?xml version="1.0" encoding="UTF-8"?>
<!DOCTYPE svg PUBLIC "-//W3C//DTD SVG 1.1//EN" "http://www.w3.org/Graphics/SVG/1.1/DTD/svg11.dtd">
<!-- Creator: CorelDRAW 2018 (64 Bit Versión de evaluación) -->
<svg xmlns="http://www.w3.org/2000/svg" xml:space="preserve" width="301.626mm" height="436.289mm" version="1.1" style="shape-rendering:geometricPrecision; text-rendering:geometricPrecision; image-rendering:optimizeQuality; fill-rule:evenodd; clip-rule:evenodd"
viewBox="0 0 2701.23 3907.21"
 xmlns:xlink="http://www.w3.org/1999/xlink">
 <defs>
  <style type="text/css">
   <![CDATA[
    .fil2 {fill:black}
    .fil1 {fill:white}
    .fil3 {fill:white;fill-rule:nonzero}
    .fil0 {fill:black;fill-opacity:0.321569}
   ]]>
  </style>
 </defs>
 <g id="Capa_x0020_1">
  <metadata id="CorelCorpID_0Corel-Layer"/>
  <g id="_1688192256944">
   <path class="fil0" d="M837.39 3669.08l34.19 125.24c7,25.65 -4.25,51.96 -27.64,64.62 -21.46,11.62 -46.96,8.38 -64.65,-7.61 -11.89,-3.95 -38.74,-2.79 -49.53,-1.82 -31.01,2.79 -63.22,10.67 -92.16,22.13 -11.01,4.36 -21.81,9.35 -32.17,15.09 -49.25,27.26 -123.36,28.63 -171.92,-3.84 -21.39,0.45 -41.8,-11.34 -51.78,-31.59l-298.02 -605.03c-2.86,-5.82 -4.49,-11.19 -5.34,-17.61 -12.38,-94.19 65.15,-166.83 138.91,-210.45 73.64,-43.56 162.08,-72.04 249.22,-89.17 -39.79,-62.92 -77.79,-127.13 -114.18,-191.85 -49.94,-88.81 -97.7,-179.98 -139.68,-272.84 -99.59,-201.84 -201.2,-469.1 -157.97,-698.25 25.79,-136.71 97.12,-236.85 207.61,-318.05 75.08,-55.18 153.28,-106.55 231.3,-157.47 2.56,-1.67 6.27,-4.08 9.79,-6.61 3.23,-51.04 58.33,-79.35 99.69,-101.34 16.03,-8.52 31.26,-18.44 46.22,-28.71 20.95,-50.03 72.25,-130.33 98.45,-149.95 3.63,-2.71 7.01,-4.91 10.4,-6.86 1.39,-11.2 1.94,-23.68 2.56,-34 0.06,-1 0.13,-1.85 0.24,-2.84l4.3 -38.73c-43.73,-32.77 -66.75,-94.89 -78.06,-145.9 -0.44,-2 -0.73,-3.72 -0.97,-5.75 -4.91,-42.5 -3.65,-85.29 9.32,-126.31 4.11,-12.99 9.26,-25.29 15.18,-37.54 1.42,-2.94 3.11,-6.14 4.69,-9.33 0.08,-24.08 -1.09,-49.09 -1.61,-72.97 -0.19,-8.68 -0.38,-17.35 -0.58,-26.03 -10.1,1.03 -20.21,2.09 -30.33,3.13 -23.22,2.37 -44.39,-8.85 -55.48,-29.38 -11.09,-20.53 -8.86,-44.39 5.85,-62.51 9.18,-11.31 18.59,-22.53 28.15,-33.66 -4.78,-2.26 -9.32,-5.23 -13.51,-8.89 -17.64,-15.44 -23.85,-38.74 -16.24,-60.91 20.23,-58.92 109.82,-129.31 185.68,-174.11 1.67,-8.55 5.42,-16.75 11.2,-24.13 34.56,-44.15 117.3,-49.59 169.27,-52.08 21.65,-1.04 43.08,-1.24 64.5,-1.25 10.41,-13.49 25.9,-21.23 43.62,-21.5 60.98,-0.9 135.34,8.33 195.03,21.25 16.79,3.63 33.49,8.87 50.33,11.89 4.79,0.86 10.07,0.62 14.91,0.47 12.66,-0.4 24.06,-0.43 36.57,2.53 9.14,2.16 17.82,5.69 25.85,10.58 82.5,50.22 146.45,111.24 180.34,203.48 1.99,5.43 3.02,10.31 3.36,16.08 2.51,41.32 -1.02,85.58 -23.23,121.64 -7.63,12.38 -16.96,22.98 -28.02,32.39 -1.07,0.91 -2.17,1.79 -3.28,2.67 1.99,17.73 8.22,43.16 11.12,55.15 3.44,14.22 7.19,28.28 11.06,42.32 46.19,1.88 93.86,15.4 105.49,65.38 7.25,31.13 -4.23,51.12 -16.33,77.14 -2.14,4.6 -4.47,8.29 -7.7,12.2 -0.86,1.04 -1.83,2.14 -2.81,3.26 -2.59,24.13 -9.26,52.33 -20.64,71.85 -16.56,28.41 -36.35,43.67 -60.4,59.72 -3.78,18.65 -6.16,37.6 -12.54,56.58 -5.09,15.13 -10.43,30.15 -16.02,45.09 8.41,11.91 15.14,23.87 22.4,39.33 8.94,19.03 13.28,36.63 15.27,54.67 5.42,2.27 10.58,5.43 15.32,9.47 17.24,14.71 23.9,36.78 17.67,58.57 -6.59,23.02 -7.56,33.64 -25.26,53.11 -1.84,2.02 -3.52,3.64 -5.62,5.39 -5.49,4.58 -9.96,8.26 -14.2,11.4 -1.18,8.4 -2.58,16.76 -4.2,25.11 1.08,-1.94 2.25,-3.85 3.51,-5.72 17.09,-25.24 46.77,-36.36 76.47,-32.21 12.13,1.7 21.07,4.74 30.01,9.7 3.24,-1.39 6.46,-2.83 9.33,-3.94 13.23,-5.1 26.51,-10.03 39.79,-15 2.24,-0.84 4.75,-1.72 7.25,-2.65 19.74,-32.88 52.06,-77.38 78.82,-100.25 33.09,-28.27 77.14,-41.28 119.17,-26.53 19.34,6.79 33.57,16.57 43.9,28.96l130.01 -50.23c0.17,-0.07 0.32,-0.12 0.5,-0.19 31.66,-11.89 63.17,-25.05 94.58,-37.63 49.19,-19.7 98.48,-39.19 148.05,-57.92 62.87,-23.75 128.59,-48.13 193.51,-65.43 59.84,-15.95 126.61,-4.4 149.62,60.76 12.33,34.91 6.52,79.66 -17.16,108.58 -30.33,37.03 -159.18,89.01 -205.42,108.49 -63.34,26.68 -127.26,51.09 -190.77,77.09 -57.25,23.44 -116.91,43.81 -176.04,61.97 -40.44,12.42 -83.97,15.42 -117.9,-9.74 -6.82,27.31 -14.09,54.59 -20.93,81.3 -8.62,33.68 -17.37,67.33 -26.1,100.99 45.12,24.77 80.66,58.37 82.81,118.92 0.27,7.52 -0.74,13.99 -3.28,21.07 -2.26,6.32 -4.32,12.06 -6.43,17.43 20.03,29.15 39.8,58.42 58.33,88.64 34.73,56.66 67.26,115.57 100.93,172.97 17.59,29.98 35.33,59.91 53.57,89.5 13.19,21.4 26.83,43.48 41.6,63.82 0.79,1.09 1.43,2.03 2.14,3.17 36.53,58.19 75.82,114.39 112.88,172.17 33.35,52 64.43,105.48 85.75,163.68 46.24,126.19 35.47,248.82 0.86,376.45 -0.49,1.82 -0.99,3.34 -1.65,5.1 -15.21,40.45 -23.92,78.52 -43.34,118.27 -0.68,1.39 -1.3,2.54 -2.08,3.87 -7.33,12.45 -14.8,24.49 -22.66,35.99 6.55,-0.85 13.06,-1.72 19.52,-2.59 46.41,-6.29 65.78,-6.92 112.2,3.83 46.11,10.68 89.41,47.63 110.87,89.52 27.06,52.8 34.4,111.48 6.82,165.06 0.88,7.74 0.16,15.79 -2.35,23.7l-194.89 615.22c-2.38,7.5 -5.7,13.51 -10.8,19.52l-8.8 10.37c-2.3,2.71 -4.47,4.85 -7.22,7.1 -44.23,36.33 -114.92,39.86 -169.68,38.68 -78.9,-1.71 -161.23,-14.06 -239.07,-26.8 -210.62,-34.48 -419.21,-80.13 -630.28,-113.45 -143.77,-22.7 -356.59,-52.68 -548.98,-43.62z"/>
   <g>
    <path class="fil1" d="M792.93 3636.76l34.19 125.24c7,25.65 -4.25,51.96 -27.64,64.62 -21.46,11.62 -46.96,8.38 -64.65,-7.61 -11.89,-3.95 -38.74,-2.79 -49.53,-1.82 -31.01,2.79 -63.22,10.67 -92.16,22.13 -11.01,4.36 -21.81,9.35 -32.17,15.09 -49.25,27.26 -123.36,28.63 -171.92,-3.84 -21.39,0.45 -41.8,-11.34 -51.78,-31.59l-298.02 -605.03c-2.86,-5.82 -4.49,-11.19 -5.34,-17.61 -12.38,-94.19 65.15,-166.83 138.91,-210.45 73.64,-43.56 162.08,-72.04 249.22,-89.17 -39.79,-62.92 -77.79,-127.13 -114.18,-191.85 -49.94,-88.81 -97.7,-179.98 -139.68,-272.84 -99.59,-201.84 -201.2,-469.1 -157.97,-698.25 25.79,-136.71 97.12,-236.85 207.61,-318.05 75.08,-55.18 153.28,-106.55 231.3,-157.47 2.56,-1.67 6.27,-4.08 9.79,-6.61 3.23,-51.04 58.33,-79.35 99.69,-101.34 16.03,-8.52 31.26,-18.44 46.22,-28.71 20.95,-50.03 72.25,-130.33 98.45,-149.95 3.63,-2.71 7.01,-4.91 10.4,-6.86 1.39,-11.2 1.94,-23.68 2.56,-34 0.06,-1 0.13,-1.85 0.24,-2.84l4.3 -38.73c-43.73,-32.77 -66.75,-94.89 -78.06,-145.9 -0.44,-2 -0.73,-3.72 -0.97,-5.75 -4.91,-42.5 -3.65,-85.29 9.32,-126.31 4.11,-12.99 9.26,-25.29 15.18,-37.54 1.42,-2.94 3.11,-6.14 4.69,-9.33 0.08,-24.08 -1.09,-49.09 -1.61,-72.97 -0.19,-8.68 -0.38,-17.35 -0.58,-26.03 -10.1,1.03 -20.21,2.09 -30.33,3.13 -23.22,2.37 -44.39,-8.85 -55.48,-29.38 -11.09,-20.53 -8.86,-44.39 5.85,-62.51 9.18,-11.31 18.59,-22.53 28.15,-33.66 -4.78,-2.26 -9.32,-5.23 -13.51,-8.89 -17.64,-15.44 -23.85,-38.74 -16.24,-60.91 20.23,-58.92 109.82,-129.31 185.68,-174.11 1.67,-8.55 5.42,-16.75 11.2,-24.13 34.56,-44.15 117.3,-49.59 169.27,-52.08 21.65,-1.04 43.08,-1.24 64.5,-1.25 10.41,-13.49 25.9,-21.23 43.62,-21.5 60.98,-0.9 135.34,8.33 195.03,21.25 16.79,3.63 33.49,8.87 50.33,11.89 4.79,0.86 10.07,0.62 14.91,0.47 12.66,-0.4 24.06,-0.43 36.57,2.53 9.14,2.16 17.82,5.69 25.85,10.58 82.5,50.22 146.45,111.24 180.34,203.48 1.99,5.43 3.02,10.31 3.36,16.08 2.51,41.32 -1.02,85.58 -23.23,121.64 -7.63,12.38 -16.96,22.98 -28.02,32.39 -1.07,0.91 -2.17,1.79 -3.28,2.67 1.99,17.73 8.22,43.16 11.12,55.15 3.44,14.22 7.19,28.28 11.06,42.32 46.19,1.88 93.86,15.4 105.49,65.38 7.25,31.13 -4.23,51.12 -16.33,77.14 -2.14,4.6 -4.47,8.29 -7.7,12.2 -0.86,1.04 -1.83,2.14 -2.81,3.26 -2.59,24.13 -9.26,52.33 -20.64,71.85 -16.56,28.41 -36.35,43.67 -60.4,59.72 -3.78,18.65 -6.16,37.6 -12.54,56.58 -5.09,15.13 -10.43,30.15 -16.02,45.09 8.41,11.91 15.14,23.87 22.4,39.33 8.94,19.03 13.28,36.63 15.27,54.67 5.42,2.27 10.58,5.43 15.32,9.47 17.24,14.71 23.9,36.78 17.67,58.57 -6.59,23.02 -7.56,33.64 -25.26,53.11 -1.84,2.02 -3.52,3.64 -5.62,5.39 -5.49,4.58 -9.96,8.26 -14.2,11.4 -1.18,8.4 -2.58,16.76 -4.2,25.11 1.08,-1.94 2.25,-3.85 3.51,-5.72 17.09,-25.24 46.77,-36.36 76.47,-32.21 12.13,1.7 21.07,4.74 30.01,9.7 3.24,-1.39 6.46,-2.83 9.33,-3.94 13.23,-5.1 26.51,-10.03 39.79,-15 2.24,-0.84 4.75,-1.72 7.25,-2.65 19.74,-32.88 52.06,-77.38 78.82,-100.25 33.09,-28.27 77.14,-41.28 119.17,-26.53 19.34,6.79 33.57,16.57 43.9,28.96l130.01 -50.23c0.17,-0.07 0.32,-0.12 0.5,-0.19 31.66,-11.89 63.17,-25.05 94.58,-37.63 49.19,-19.7 98.48,-39.19 148.05,-57.92 62.87,-23.75 128.59,-48.13 193.51,-65.43 59.84,-15.95 126.61,-4.4 149.62,60.76 12.33,34.91 6.52,79.66 -17.16,108.58 -30.33,37.03 -159.18,89.01 -205.42,108.49 -63.34,26.68 -127.26,51.09 -190.77,77.09 -57.25,23.44 -116.91,43.81 -176.04,61.97 -40.44,12.42 -83.97,15.42 -117.9,-9.74 -6.82,27.31 -14.09,54.59 -20.93,81.3 -8.62,33.68 -17.37,67.33 -26.1,100.99 45.12,24.77 80.66,58.37 82.81,118.92 0.27,7.52 -0.74,13.99 -3.28,21.07 -2.26,6.32 -4.32,12.06 -6.43,17.43 20.03,29.15 39.8,58.42 58.33,88.64 34.73,56.66 67.26,115.57 100.93,172.97 17.59,29.98 35.33,59.91 53.57,89.5 13.19,21.4 26.83,43.48 41.6,63.82 0.79,1.09 1.43,2.03 2.14,3.17 36.53,58.19 75.82,114.39 112.88,172.17 33.35,52 64.43,105.48 85.75,163.68 46.24,126.19 35.47,248.82 0.86,376.45 -0.49,1.82 -0.99,3.34 -1.65,5.1 -15.21,40.45 -23.92,78.52 -43.34,118.27 -0.68,1.39 -1.3,2.54 -2.08,3.87 -7.33,12.45 -14.8,24.49 -22.66,35.99 6.55,-0.85 13.06,-1.72 19.52,-2.59 46.41,-6.29 65.78,-6.92 112.2,3.83 46.11,10.68 89.41,47.63 110.87,89.52 27.06,52.8 34.4,111.48 6.82,165.06 0.88,7.74 0.16,15.79 -2.35,23.7l-194.89 615.22c-2.38,7.5 -5.7,13.51 -10.8,19.52l-8.8 10.37c-2.3,2.71 -4.47,4.85 -7.22,7.1 -44.23,36.33 -114.92,39.86 -169.68,38.68 -78.9,-1.71 -161.23,-14.06 -239.07,-26.8 -210.62,-34.48 -419.21,-80.13 -630.28,-113.45 -143.77,-22.7 -356.59,-52.68 -548.98,-43.62z"/>
    <path class="fil2" d="M1891.4 3087.98l-5.75 -133.14c-65.68,24.01 -141.63,54.21 -196.61,67.03 -53.73,10.23 -101.43,19.37 -148.05,26.88 291.63,50.91 590.24,99.52 860.18,101.92 46.29,0.41 111.2,4.8 147.57,-38.19l-194.89 615.21 -8.8 10.37c-171.36,140.74 -1431.31,-348.65 -1898.21,-74.76 -60.19,35.42 -69.11,90 -58.83,130.49l-298.02 -605.03c-14.27,-108.5 169.62,-219.98 427.02,-249.84 -102.4,-153.48 -221.31,-362.14 -297.69,-531.27 -304.27,-616.14 -115.81,-837.95 31.99,-946.58 71.79,-52.75 153.94,-106.87 228.72,-155.68 86.47,-56.43 -27.32,-34.97 105.12,-105.37 24.96,-13.27 47.91,-29.3 66.75,-42.49 3.79,-25.35 67.52,-127.54 85.27,-140.83 17,-12.73 24.97,-4.42 30.26,-30.4 2.62,-12.86 4.45,-38.99 5.26,-52.34l6.5 -58.55 1.94 -20.72c-48.93,-6.36 -73.54,-80.28 -83.2,-123.84 -10.81,-93.6 19.85,-128.99 29.37,-154.53 0.78,-2.08 -3.54,-171.01 -3.17,-172.75 -31,2.01 -47.91,4.03 -91.43,8.46 19.17,-23.61 48.08,-56.67 68.78,-79.57 -1.83,-22.58 -2.53,-42.04 -1.76,-59.07 -32.9,7.63 -26.83,1.79 -59.04,17.9 20.03,-58.32 161.75,-150.68 222.9,-175.5l-34.97 -6.26c29.59,-37.8 198.09,-31.26 247.64,-31.65l-13.94 -21.49c51.98,-0.77 131.61,9.02 182.23,19.98 18.14,3.93 34.89,9.16 52.32,12.28 24.69,4.42 42.12,-3.38 57.89,6.22 72.94,44.4 127.79,96.08 156.66,174.68 6.53,107.76 -43.81,107.25 -53.44,127.99 -9.96,28.91 25.81,147.51 34.95,180.41 126.6,-10.26 91.9,36.44 80.48,61.02 -5.77,6.98 -14.22,15.83 -14.75,24.87 -1.09,18.64 -6.38,44.79 -13.97,57.8 -14.83,25.44 -37.27,37.41 -61.2,53.19 -6.39,21.89 -8.76,50.6 -16.49,73.59 -37.8,112.48 -29.9,44.06 8.8,126.47 12.47,26.55 11.87,49.8 11.25,81.29 11.31,5.91 22.59,7.09 33.84,1.84 -3.77,13.17 -2.64,19.53 -12.73,30.63 -12.47,10.4 -12.04,11.94 -30.91,18.85 -1.76,22.27 -4.81,42.63 -9.66,63.93 -4.66,20.42 -18.01,38.92 -22.33,45.45 0,0 -4.71,-20.18 -10.87,-24.96l2.42 44.29 -10.87 -9.66 -8.83 17.56c50.26,19.86 217.57,116.14 248.64,121.68l42.29 -150.69c-33.1,5.52 -66.66,35.57 -104.68,23.77 -41.5,-12.88 -37.68,-56.76 -5.25,-52.22 14.78,2.07 15.72,8.83 25.87,12.39 11.89,4.16 24.15,-3.11 41.64,-9.86 62.18,-23.97 63.82,-21.64 71.48,-35.01 14.69,-25.64 48.36,-73.52 70.77,-92.67 18.48,-15.78 41.89,-23.82 63.72,-16.16 24.98,8.77 28.22,25.39 30.24,48.74l182.78 -70.62c59.21,-22.23 302.39,-125.05 430.82,-159.28 94.91,-25.29 93.95,54.69 74.15,78.87 -29.66,36.21 -336.33,153.33 -373.87,169.08 -52.97,21.31 -117.19,43.65 -171.22,60.25 -77.72,23.88 -81.87,-18.72 -95.56,-52.98l-45.51 17.71c-9.65,47.96 -61.18,244.44 -73.67,292.76 45.72,19.73 90.93,39.64 92.72,90.04 -8.43,23.52 -10.18,28.73 -20.36,38.69 25.34,36.76 51.77,74.38 77.28,115.99 34.04,55.52 148.87,261.56 198.56,329.97 154.39,245.94 278.59,351.08 192.81,667.44 -15,39.89 -20.66,71.28 -41.22,113.35 -25.85,43.88 -54.23,85.53 -103.71,106.79 -60.68,26.07 -113.17,28.29 -157.86,28.07 6.22,0.48 12.33,0.88 18.25,1.22 91.75,5.17 204.32,-5.49 296.5,-17.96 40.92,-5.58 50.1,-6.71 91.84,2.88 27.18,6.37 58.02,30.64 73.31,60.23 26.7,52.34 19.43,90.82 5.31,116.3 -27.45,49.56 -54.99,51.57 -103.22,52.67 -179.89,4.12 -314.7,-8.45 -558.54,-47.58zm-528.83 -70.49c-100.84,-17.55 -199.92,-34.27 -295.7,-48.27 43.5,-12.7 90.99,-26.73 115.57,-35.11 -3.75,24.54 46.98,89.93 112.97,25.88 9.3,18.79 20.42,28.73 53.02,37.24 26.22,6.85 52.03,-6.29 63.4,-2.48 62.86,21.05 78.18,-25.42 107.79,-52.06 13.39,12.73 53.35,29.87 62.21,31.29 23.8,3.82 1.8,-9.84 34.76,-4.67 9.8,1.54 22.37,6.63 30.85,10.66 -86.25,19.05 -184.55,32.19 -284.87,37.52zm-455.52 -69.14c-4.08,-0.46 -8.13,-0.89 -12.19,-1.34l-37.56 -70.62c2.55,24.09 10.29,45.46 15.21,68.26 -5.11,-0.52 -10.22,-1.05 -15.3,-1.55l-5.01 -12.52c-7.51,-16.64 -13.26,-34.43 -24.18,-45.82 2.19,15.1 8.28,36.33 12.48,56.75 -6.62,-0.62 -13.21,-1.2 -19.78,-1.76 -9.46,-22.27 -18.62,-45 -20.72,-50.07 -0.91,13.22 3.61,31.05 7.69,48.97 -6.88,-0.56 -13.73,-1.11 -20.55,-1.62 -5.05,-12.23 -10.66,-23.76 -15.71,-29.68l3.65 28.83c-6.88,-0.48 -13.73,-0.93 -20.55,-1.35 -2.84,-7.02 -6.6,-14.23 -11.89,-21.51l2.21 20.93c-8.77,-0.51 -17.49,-0.96 -26.15,-1.37 -0.89,-1.45 -1.85,-2.87 -2.88,-4.26 -0.01,1.35 0.01,2.73 0.05,4.14 -7.16,-0.32 -14.29,-0.61 -21.38,-0.86 -14.29,-0.49 -28.46,-0.71 -42.5,-0.7 10.55,-117.59 16.18,-128.36 71.84,-256.28 52.74,-121.22 22.29,-63.75 102.03,-160.1 11.96,-14.45 27.78,-35.39 39.29,-52.39l251.64 -347c11.19,-18.97 26.35,-38.63 38.83,-57.13 12.74,-18.9 25.82,-36.54 38.05,-55.91 21.02,6.85 33.4,18.67 67.76,26.12 16.81,3.64 20.28,1.95 27.51,-3.42 -29.18,-8.17 -44.61,-23.81 -57.98,-44.82 -15.77,-24.79 2.22,-55.58 10.91,-80.46 30.12,-86.26 4.75,-46.88 56.36,-158.56 4.69,-14.5 14.51,-42.13 21.1,-51.79 9.04,2.69 9.04,3.13 17.65,12.16 2.01,2.1 -5.04,-11.1 -5.27,-39.95 -0.15,-19 3.21,-29.69 11.93,-41.49 -5.31,-9.25 -3.2,-2.01 -7.01,-7.04 -15.94,-20.98 -1.69,-46.43 27.04,-60.2 27.69,-13.27 58.29,-8.2 93.71,-12.97 66.75,-8.97 144.61,-24.94 211.46,-18.16 3.86,27.11 -4.21,34.96 -6.06,56.34 12.34,-7.36 34.88,-2.52 65.59,9.55 -21.04,-17.71 -32.32,-19.32 -48.52,-24.6 16.2,-4.39 24.1,0.12 43.08,5.5 -13.26,-10.38 -21.14,-19.38 -38.16,-21.97 11.68,-6.44 27.7,1.31 53.32,7.25 -8.41,-12.36 -20.91,-19.8 -45.86,-24.55 24.56,1.02 75.79,19.65 89.06,33.57 -8.78,16.37 -21.48,32.43 -24.39,55.27 11.53,9.17 46.7,28.67 72.4,29.52 21.93,0.72 35.43,-16.51 36.24,-35.83 35.33,102.22 -138.5,39.86 -187.99,16.53 -27.13,-12.3 -46.55,-18.73 -68.91,-21.54 -34.42,-4.32 -158.1,1.36 -175.71,10.42 -5.9,2.76 -1.88,10.77 1.27,10.55 62.86,-4.53 122.7,-17.31 176.47,0.11 14.54,4.71 17.2,4.34 12.63,20.8 -3.97,14.29 -10.73,22.38 -17.32,37.39 22.01,-7.02 38.81,2.93 63.62,6.31 -9.4,-7.7 -16.64,-12.13 -38.29,-17.32 16.42,-4.48 23.92,0.63 35.7,3.79 -10.66,-11.31 -12.44,-11.89 -26.13,-17.12 18.89,-2.57 16.74,-0.47 34.53,3.75 -6.14,-7.24 -19.06,-15.13 -28.8,-18.72l101.56 36.5c-15.9,18.32 -20.83,29.19 -18.33,55.75 14.22,10.23 30.04,16.63 47.49,21.69 28.2,8.17 49.96,2.88 52.38,-32.55 21.34,47.51 -38.4,61.56 -67.07,51.74 -39.28,-13.46 -95.88,-39.32 -125.62,-46.75 -42.37,-10.59 -142.77,-21.72 -189.12,-23.6 -1.15,3.45 -2.93,11.9 3.61,16.77 5.77,4.3 69.4,13.39 79.25,14.4 28.48,2.92 59.04,5.42 82.36,11.98 -2.04,27.8 -10.5,36.26 -23.09,49.92 30.71,3.25 35.39,6.36 63.65,1.7 -8.84,-2.87 -17.64,-6.1 -22.07,-15.36l28.36 4.29c-15.23,-7.19 -25.54,-11.14 -32.44,-22.13l33.76 6.52c-10.85,-8.51 -14.89,-11.24 -26.45,-22.5 30.74,6.55 49.43,11.31 67.64,19.33 -8.39,12.5 -15.93,31.67 -15.7,49.52 77.59,29.41 89.79,6.44 84.95,-20.53 28.59,45.09 -9.66,68.85 -109.2,54.34 -42.49,-3.27 -86.88,-11.9 -129.34,-9.91 19.38,37.44 5.49,68.55 -28.72,86.59 -28.12,14.83 -19.25,-0.38 -34.51,29.88 -8.19,16.24 -18.12,27.89 -24.46,43.99 -30.34,28.74 -45.62,32.95 -102.08,30.7 -3.7,4.05 -2.52,1.57 -5.75,8.47 12.34,10.03 16.93,19.96 20.37,35.31l-30.98 -12.51c8.19,8.77 16.9,16.04 26.8,23.44 13.08,9.77 18.57,14.98 16.71,34.44l-0.45 3.94c-20.6,-2.26 -37.27,-18.89 -60.18,-23.71 15.44,18.37 43.33,27.61 53.6,47.46l-6.55 17.14 -62.1 -27.21c17.83,23.23 70.79,41.57 48.83,61.44 -5.58,5.05 -24.86,-6.9 -32.64,-10.52 -12.06,-5.61 -22.01,-10.91 -36.37,-14.86 33.49,34.02 71.84,42.29 57.84,60.53 -10.64,13.88 -38.86,-15.03 -72.38,-22.78l6.92 7.73c0.71,0.69 1.64,1.58 2.39,2.26l29.53 22.18c12.73,9.78 29.44,16.79 14.16,35.94l-71.83 -32.39c12.71,16.39 42.09,31.08 56.21,45.65 9.87,10.19 13.32,3.58 4.28,24.29 -15.7,-0.03 -52.67,-25.63 -76.01,-32.06 17.86,24.46 74.23,44.13 63.08,68.86 -0.78,0.31 -2.07,0.38 -2.5,0.38 -14.24,-0.07 -21.76,-7.93 -38.89,-16.33 -13.41,-6.57 -28.02,-14.4 -41.87,-17.76 12.67,14.8 26.94,21.58 42.85,34.14 32.3,25.52 30.43,25.87 26.39,42.36 -19.53,-8.22 -64.29,-34.87 -85.6,-38.36 12.54,12.09 26.81,21.82 42.52,34.13 13.91,10.9 34.22,16.89 28.99,42.29 -23.01,-6.44 -67.13,-38.21 -91.09,-40.48 6.14,3.56 14.41,11.75 21.69,17.09l45.51 36.37c23.37,20.47 12.64,28.19 -3.66,20.84 -35.34,-15.95 -51.17,-26.35 -90.81,-34.31 13.82,2.95 35.18,16.63 44.9,26.13l-17.92 -4.57c-86.6,-28.83 -77.87,7.96 -120.94,-17.46 -16.15,-9.53 -30.07,-21.29 -49.14,-23.38 -19.01,-2.08 -48.07,-21.47 -52.11,-13.72 -4.88,8.44 18.87,18.5 31.35,36 -6.27,-2.53 -42.28,-22.73 -46.01,-15.87 -3.85,7.06 23.25,21.19 36.21,34.55 -20.88,-6.75 -46.16,-22.08 -49.63,-16.1 -5.39,8.11 17.91,18.12 36.82,37.13 -21.53,-9.63 -45.43,-23.79 -48.25,-19.36 -4.74,7.46 23.21,23.46 38.73,40.04 -29,-15.75 -46.47,-21.9 -47.99,-17.89 -1.52,3.99 12.79,18.05 37.85,37.17 -9.19,-3.57 -47.06,-23.21 -50.33,-15.03 -2.55,6.38 23.98,22.32 35.43,33.02 -17.65,-6.53 -43.08,-21.74 -47.11,-14.49 -3.36,6.05 25.37,21.74 36.03,35.11 -26.34,-8.2 -43.27,-21.82 -47.3,-15.78 -5,7.5 24.95,24.36 36.86,36.15 -7.95,-3.28 -45.86,-22.12 -48.13,-16.82 -3.62,8.45 17.1,17.77 35.82,35.52 -8.84,-1.81 -48.84,-22.74 -47.51,-16.1 1.48,7.4 37.64,36.15 37.69,36.22 -3.62,-1.41 -55.34,-24.72 -50.57,-14.58 5.3,11.24 14.82,13.12 27.84,23.02 41.76,31.78 -44.34,-9.23 92.73,74.72 27.51,16.85 43.56,21.68 56.18,51.56 14.91,35.3 21.73,39.42 60.19,50.56 7.85,19.17 4.23,39.3 -2.33,46.03 -11.2,-11.76 -21.82,-28.05 -35.92,-41.55 6.98,24.17 23.33,38.4 21.92,65.88 -17.35,-15.23 -40.23,-37.78 -49.33,-59.17 -1,22.72 30.61,59.7 22.69,78.27 -20.34,-5.67 -30.33,-48.41 -51.75,-64.24 6.71,29.81 24.02,50.89 26.91,83.85 -19.19,-7.35 -42.02,-57.93 -55.24,-75.92 1.69,27.79 22.91,57.83 26.33,93.32 -27.04,-12.44 -30.47,-65.84 -56.12,-82.63 5.74,22.16 31.56,79.73 23.92,97.95 -12.28,-9.46 -38.04,-69.89 -50.43,-88.57 2.1,25.93 20.99,60.33 22.25,86.9zm-178.33 667.77l43.84 160.58c-26.45,-29.82 -149.82,-21.29 -238.97,28.04 -77.38,42.83 -209.33,-19.62 -82.54,-112.59 79.06,-46.32 162.42,-66.63 277.68,-76.03zm1154.91 -707.84l-0.23 -5.33 -10.76 -5.33c-34.45,0.72 -79.43,-26.38 -108.11,-38.32l-3.37 5.99c-0.44,0.86 -2.49,4.89 -3.05,6.06l-50.54 92.92c33.39,-3.44 72.97,-24.71 101.77,-24.19 11.84,-12.2 53.03,-22.65 74.3,-31.81zm-237.1 -16.19c8.45,0 15.3,6.85 15.3,15.3 0,8.45 -6.85,15.3 -15.3,15.3 -8.45,0 -15.3,-6.85 -15.3,-15.3 0,-8.45 6.85,-15.3 15.3,-15.3zm0 4.63c5.89,0 10.67,4.78 10.67,10.67 0,5.89 -4.78,10.67 -10.67,10.67 -5.89,0 -10.67,-4.78 -10.67,-10.67 0,-5.89 4.78,-10.67 10.67,-10.67zm0 5.32c2.96,0 5.35,2.4 5.35,5.35 0,2.96 -2.4,5.35 -5.35,5.35 -2.96,0 -5.35,-2.39 -5.35,-5.35 0,-2.96 2.4,-5.35 5.35,-5.35zm-589.88 -369.42c14.31,0 25.91,11.6 25.91,25.91 0,14.31 -11.6,25.91 -25.91,25.91 -14.31,0 -25.91,-11.6 -25.91,-25.91 0,-14.31 11.6,-25.91 25.91,-25.91zm0 9.54c9.04,0 16.37,7.33 16.37,16.37 0,9.04 -7.33,16.37 -16.37,16.37 -9.04,0 -16.37,-7.33 -16.37,-16.37 0,-9.04 7.33,-16.37 16.37,-16.37zm-229.36 -1759.6c16.55,3.22 64.28,-0.32 80.15,-6.27l-81.83 -13.4 1.68 19.67zm0 -31.41c16.55,3.22 64.28,-0.31 80.15,-6.27l-81.83 -13.4 1.68 19.67zm0 -31.4c16.55,3.22 64.28,-0.31 80.15,-6.27l-81.83 -13.4 1.68 19.67zm0 -31.41c16.55,3.22 64.28,-0.31 80.15,-6.27l-81.83 -13.4 1.68 19.67zm0 -31.4c16.55,3.22 64.28,-0.31 80.15,-6.27l-81.83 -13.4 1.68 19.67zm-21.59 -74.04c16.55,3.22 64.28,-0.32 80.15,-6.27l-81.83 -13.4 1.68 19.67zm0 -27.78c16.55,3.22 64.28,-0.32 80.15,-6.27l-81.83 -13.4 1.68 19.67zm0 -83.34c16.55,3.22 64.28,-0.31 80.15,-6.27l-81.83 -13.4 1.68 19.67zm0 27.78c16.55,3.22 64.28,-0.32 80.15,-6.27l-81.83 -13.4 1.68 19.67zm0 27.78c16.55,3.22 64.28,-0.31 80.15,-6.27l-81.83 -13.4 1.68 19.67zm1235.19 1825.29c22.45,9.22 48.4,22.43 73.04,36.78 80.02,46.6 106.35,59.11 140.24,119.82 -7.72,-71.18 -17.41,-86.84 -72.78,-121.27 -35.66,-22.18 -89.48,-52.74 -130.45,-67.47 15.65,-10.8 51.93,2.46 69.55,7.57 90.81,26.33 109.07,44.65 180.08,80.88 -13.37,-45.89 -24.52,-59.58 -71.95,-72.58 -19.14,-5.25 -38.06,-9.83 -55.24,-17.68 -20.82,-9.52 -29.53,-17.64 -45.75,-27.86 46.47,-16.98 90.58,-7.71 140.03,3.22 -9.26,-38.17 -136.99,-42.43 -168.1,-36.12 28.45,-37.04 75.15,-38.6 117.3,-44.56 -9.03,-4.94 -11.06,-9.42 -28.23,-12.49 -54.37,-9.7 -91.55,3.77 -136.31,15.22 6.11,-41.64 80.67,-77 103.33,-93.8 -81.51,-4.24 -103.74,32.82 -132.15,49.24 7.29,-36.71 74.05,-95.97 78.02,-102.16 -45.24,6.87 -91.93,45.14 -125.37,70.39 -15.91,12.01 -22.77,20.65 -40.18,29.61 10.93,-23.8 33.88,-47.15 50.58,-68.92 16.3,-24.41 50.13,-59.08 56.26,-95.43 -27.75,10.39 -38.55,45.93 -75.38,54.57 0.23,-0.67 -1.16,-1.75 -0.94,-2.51l-1.13 -0.01c2.04,-50.81 24.78,-88.36 45.91,-118.6 -34.4,0.48 -56.77,40.34 -74.91,57.56 0.56,-48.74 33.66,-70.6 42.35,-100.2 -50.68,12.19 -48.43,30.69 -76.78,54.32 2.94,-51.67 24.73,-67.07 35.44,-104.64 -98.55,18.5 -113.54,107.75 -146.6,142.7 28.07,-190.32 65.11,-173 66.01,-298.98 27.89,-23.27 46.78,-14.02 39.33,-71.63l9.95 9.81c19.15,22.77 90.48,148.94 102.68,172.56l76.73 142.41c8.89,18.11 14.76,34.3 22.7,50.21 7.38,-14.11 -1.51,-23.93 -4.44,-42.44 35.07,25.08 210.53,318.7 225.54,363.82 30.17,70.39 35,272.54 -1.87,336.02 -47.71,-80.9 -131.65,-179.92 -214.03,-229.48 -46.71,-28.1 -131.74,-51.57 -186.86,-58.36 29.28,-24.12 79.6,-23.77 114.36,-9.5zm-1036.93 -1105.88c1.28,-8.5 -1.35,-6.82 6.29,-6.82 13.82,48.12 88.17,80.03 122.04,100.05 58.79,34.75 17.77,-3.01 48.33,16.67 -12.45,19.6 -6.87,4.26 -46.61,9.25 -13.87,1.74 -89.75,-34.09 -107.18,-66.2 -9.79,5.6 -9.6,13.13 -18.45,19.44 -12.02,-19.69 -21.15,-24.21 -36.44,-37.94 -20.92,-18.78 -28.13,-28.15 -29.99,-30.76 -2.28,-3.21 3.51,3.76 1.89,15.97 -11.93,-24.49 -9.07,-28.44 -24.76,-52.59 -39.36,-60.58 -67.69,-29.59 -66.13,-157.96 -6.79,-4.79 -1.06,-4.36 -9.56,1.3 -15.51,-32.78 28.01,-40.47 20.2,-104.55 -4.47,-36.7 -14.65,-69.11 -26.39,-101.92 26.41,25.55 61.65,99.29 50.99,137.44 -5.83,20.86 -19.15,25.96 -18.53,46.07 1.44,46.82 5.14,-32.17 11.71,25.46 0.71,6.23 -0.07,17.29 0.46,24.87 0.96,13.93 4.24,28.15 8.53,42.58 18.37,61.78 68.07,42.86 79.5,131.5 23.9,-16.12 16.04,3.22 41.03,14.49l-6.92 -26.36zm124.01 1539.65l8.85 -38.33c4.03,24.96 5.64,30.6 10.74,39.48 0.8,-9.51 3.97,-21.95 8.78,-32.87 6.81,-15.48 9.02,-7.21 19.47,-21.65l-27.17 1.53 -25.92 -3.39c6.76,-19.13 32.87,-45.23 42.11,-57.75l96.7 -109.57c22.57,-22.15 72.82,-75.98 106.61,-68.12 -14.71,11.58 -33.42,30.06 -50.14,48.22 -41.23,44.8 -97.84,117.16 -119.18,189.32 -8.38,27.54 -14.32,63.84 -21.58,94.39 -7.05,29.67 -5.35,48.13 -30.86,67.62 -12.43,9.49 -30,13.71 -54.66,1.38 16.91,3.22 32.79,2.63 39.46,-6.44 18.92,-25.77 19.01,-65.6 17.41,-81.95 -15.8,-7.03 -35.93,-12.26 -54.85,-8.24l15.7 -57.58c0.4,10.87 0.38,28.66 2.82,41.47 0,0 13.98,-32.5 13.98,-32.5 0.11,18.4 2.68,23.03 1.74,34.99zm-334.72 -2154.84c32.37,-9.84 163.72,-0.21 193.83,3.62 69.38,8.83 16.25,108.76 88.46,151.52 58.7,34.76 137.52,15.39 186.26,-46.58l8.84 25.76c4.64,-22.63 14.47,-42.62 18.64,-64.75 7.39,-39.26 -11.77,-16.34 8.09,-64.45l52.93 -2.85c-0.08,0.19 -0.21,1.67 -0.29,1.86 -17.85,41.61 -22.21,38.37 -13.89,85.96 5.44,31.12 13.91,50.66 24.55,76.43 22.99,55.7 13.95,114.2 -51.64,114.55 7.5,-17.64 12.03,-25.17 -18.57,-31.69 -44.36,-9.45 -23.98,13.93 -52.8,10.01 -15.34,-21.77 -0.42,-38.97 9.14,-52.99 -18.99,-0.74 -53.54,38.82 -63.79,55.87l-34.03 10.07c-22.91,0.97 -47.38,7.2 -66.24,15.9 -22.21,10.24 -37.86,23.86 -57.58,32.88 -42.79,19.57 -68.08,-29.31 -78.45,-45.78 -20.06,-31.86 -101.78,-94.64 -127.48,-104.11 -14.3,11.91 -14.4,33.44 -49.73,19.75 -44.18,-17.12 -55.33,-104.28 -51.81,-147.38 2.4,-29.41 10.51,-59.7 29.77,-70.01 20.3,-10.87 37.52,9.75 45.8,26.39zm507.58 -3.85c-1.32,0.06 5.56,-0.69 0.7,-5.82l46.11 -2.9c-3.87,3.62 -2.26,4.83 0.42,6.43l-47.23 2.28zm50.96 -19.32l-63.87 3.46c-43,-12.88 -58.19,-21.51 -111.92,-23.7 -42.99,-1.76 -88.25,-1.37 -129.18,7.53 -18.18,3.95 -38,8.1 -58.86,7.79 -61.3,-0.92 -131.01,-1.68 -190.38,-3.85 -20.31,-0.74 -26.12,-13.51 -35.18,-31.87 -22.43,-45.44 -23.03,-109.16 -13.79,-153.66l56.27 17.07c0.17,5.02 1.28,9.45 1.75,14.78 10.74,0.87 26.5,2.44 62.62,6.16 20.16,2.9 36.65,7.51 76.12,15.91l26.68 -72.55c-25.51,-18.12 -89.41,-60.33 -119.93,-69.65 9.68,-5.27 15.55,-3.08 17.08,-2.94 1.22,0.11 13.8,3.79 16.64,4.73 83.03,27.66 171.48,95.87 220.38,56.36 25.31,1.56 32.3,-11.04 56.41,-10.41 15.18,0.39 128.19,23.86 144.1,26.81 40.17,-12.4 56.77,-28.18 77.29,-32.15l6.45 18.76c49.17,-9.05 29.68,-2.63 40.99,82.85 5.35,40.41 20.79,66.59 21.62,111.04 -51.86,3 -61.76,15.26 -101.28,27.53zm467.48 537.23c18.34,19.35 -6.04,37.04 -21.34,21.74 -14.03,-17.04 8.05,-33.42 21.34,-21.74zm-422.31 707.61c-18.59,-29.62 -25.73,-47.41 -23.67,-90.83 -42.97,12.05 -23.95,84.44 23.67,90.83zm196.24 732.91c5.93,14.2 5.52,5.59 18.48,14.8 26.15,18.59 34.7,45.42 45.45,55.41 8.03,-22.56 -0.11,-42.68 -10.68,-55.86 -4.58,-5.71 -14.53,-14.66 -21.5,-17.46 -15.96,-6.41 -30.18,1 -31.74,3.11zm-841.86 -1857.36l0.58 -28.46c29.64,9.43 24.86,36.61 24.18,72.83 3.41,-3.27 3,-1.78 6.36,-7.16 1.42,-2.27 3.84,-7.31 4.35,-8.7 13.26,-36.35 2.55,-66.64 -30.29,-75.37 -4.54,-21.04 10.23,-42.74 24.75,-25.66 -4.58,-10.52 -6.31,-16.7 -11.34,-20.47 -13.71,-10.24 -21.47,-2.03 -26.42,11.24 -9.21,24.68 -3.63,63.19 -2.02,91.91 3.58,-11.65 8.41,1.23 9.85,-10.17zm408.69 997.4c10.81,39.42 88.18,32.29 75.58,-20.45 -10.1,-42.27 -90.21,-32.91 -75.58,20.45zm-444.48 691.87c-1.5,3.26 -8.02,10.62 -20.46,20.12l22.2 39.33c-60.3,14.14 -97.32,39.16 -119.73,95.94 26.93,-15.07 114.09,-88.9 152.56,-43.15 -32.14,25.42 -43.11,29.07 -66.63,69.83 -24.81,42.99 -15.04,69.64 -30.48,107.01 -13.54,32.78 -28.28,64.62 -39.55,99.15 -7.14,21.86 -20.74,89.64 -35.02,100.53 -7.33,-18.75 31.84,-59.94 35.41,-115.98 -0.81,0.8 -2,0.93 -2.34,2.49l-39.69 64.62c-10.07,16.49 -6.04,14.73 -20.28,21.07l31.59 -82.94c3.12,-8.5 7.58,-18.09 4.07,-24.63 -4.57,7.1 -55.79,90.95 -54.09,75.7 3.49,-31.5 33.17,-62.19 30.34,-95.58 -5.7,15.03 -37.9,62.52 -49.29,68.29 -4.48,-10.55 21.82,-69.64 27.5,-81.96 -19.35,15.28 -23.39,28.18 -49.28,54.19 -1.78,-28.4 17.06,-43.49 22.46,-70.48 -16.31,12.6 -26.88,19.87 -45.56,36.54l41.25 -146.89c-46.89,51.07 -52.12,90.52 -56.95,117.1 -29.48,-62.12 18.11,-194.55 43.8,-236.89 18.9,-31.14 39.52,-57.85 64.24,-77.52 17.52,-13.94 72.84,-43.69 103.37,-43.78 2.14,4.03 6.83,10.51 8.39,14.01 3.76,8.44 5.15,12.84 5.34,14.96 -26.62,-10.84 -111.41,107.29 -121.24,147.54 56.68,-47.16 85.79,-97.77 158.07,-128.62zm522.9 -1761.22c2.62,30.27 -15.04,73.79 -26.33,97.44 47.11,-33.42 55.06,-112.52 48.96,-123.35 -15.39,-27.31 -152.43,-27.63 -182.57,-4.73 45.35,-3.68 92.76,-6.69 137.85,2.94 16.3,3.48 20.54,9.95 22.08,27.7zm331.61 2195.11c13.29,8.86 36.44,24.41 62.09,25.63 5.72,-9.75 22.33,-44.22 27.9,-48.73 3.18,-2.58 9.64,-4 25.63,-4.38 -1.46,6.43 -30.78,66.88 -26.84,61.64 9.05,-12.01 25.52,-39.88 30.12,-46.28 5.72,-7.97 13.19,-14.11 24.72,-15.82 -27.15,29.86 -38.03,52.22 -37.21,86.51 5.59,-10.07 43.96,-81.8 52.33,-86.91 -0.92,10.46 -0.92,4.83 -2.83,17.29l7.5 -6.56c0.6,-0.45 2.13,-1.22 2.65,-1.56l6.36 -1.49c10.34,25.05 2.74,49.35 -12.17,73.4 -16.02,25.84 -20.53,42.28 -47.37,54.68 9.52,-11.6 25.19,-31.34 39.32,-52.27 14.95,-22.15 23.49,-47.08 16.52,-62.62 -13.7,28.4 -16.52,55.78 -58.04,91.56 14.14,-25.31 40.72,-49.07 44.55,-92.79 -12.7,25.6 -28.87,69.06 -65.01,93.03 -25.45,4.84 -96.66,-20.72 -115.72,-35.64 26.71,12.11 65.86,22.41 89.11,29.02 -11.27,-5.23 -9.91,-15.71 -10.47,-20.94 -0.34,-3.22 0.23,-2.17 -3.62,-3.42 -10.09,-1.94 -58.78,-20.33 -66.43,-25.16 0,0 13.69,-18.92 16.91,-28.18zm23.33 -58.63l-13.6 -21.27c-12.15,9.15 -53.08,97.31 -65.75,121.99 -22.63,44.11 -55.17,100.4 -94.97,67.42 20.53,6.04 33.82,11.68 44.02,-24.14 5.2,-16.56 10.17,-40.74 8.32,-59.2 -15.26,-4.28 -30.91,-6.75 -47.51,-4.83 1.44,-20.3 13.29,-45.09 19.33,-64.42 3.19,9.32 2.88,26.49 1.9,38.61l14.08 -38.92c7.83,12.41 0.83,23.39 2.28,41.94l15.17 -40.77c6.83,5.17 -1.44,33.08 3.61,39.39 2.01,-32.21 14.33,-38.92 28.93,-54.92l-58.32 -5.48c10.23,-33.76 38.25,-103.07 60.15,-164.77 -14.07,7.33 -24.17,39.97 -31.25,54.92 -9.03,19.1 -17.66,37.65 -27.09,55.48 -57.82,132 -40.98,163.95 -57.66,211.81 -5.7,16.36 -49.24,39.44 -76.62,16.09 20.53,3.62 44.94,4.16 54.9,-29.27 5.28,-17.72 10.6,-38.07 6.71,-57.4 -19.96,-9.71 -31.82,-8.73 -55.67,-10.55l22.86 -107.71 2.2 38.23c0.14,2.48 4.84,-11.26 11.23,-34.2 3.03,11.4 1.65,22.32 0.59,34.35 6.7,-10.38 12.51,-30.02 19.51,-40.09l-2.54 39.81c10.01,-14.04 10.5,-32.69 23.11,-52.47 -40.45,1.41 -38.38,0.99 -50.99,-11.32 -4.13,-34.34 64.58,-115.92 102.96,-192.17 -10.34,5.58 -63.68,80.54 -73.99,94.72 -88.11,121.32 -49.68,132.78 -88.59,255.01 -9.33,51.28 -76.57,83.09 -88.25,35.18 23.01,5.97 45.4,2.75 54.08,-22.23 27.2,-78.26 -1.08,-73.4 -52.87,-74 -1.13,-15.38 8.05,-81.33 19.47,-95.73l0.09 44.26c8.62,-21 10.24,-28.06 19.9,-38.58l-5.96 43.81c5.95,-19.39 8.29,-30.94 15.34,-42.44 -1.38,18.43 -2.55,27.48 1.01,43.35 3.69,-27.94 9.91,-43.01 27.84,-58.95 -5.46,-3.81 -32.61,-10.07 -49.86,-9.08 5.36,-31.35 145.96,-203.42 183.65,-239.44 14.51,-13.87 34.1,-24.51 59.34,-12.14 26.98,13.22 4.12,6.98 10.75,23.2 34.15,4.52 58.92,19.45 71.29,40.91l5.7 -13.82c5.88,-25.81 -4.24,4.47 0.35,-9.48l151.45 28.95c35.91,12.32 102.23,32.13 139.49,38.4 -7.05,-43.41 -61.91,-38.07 -100.36,-54.61 135.89,-66.33 187.25,-123.9 343.89,-57.54 76.9,32.58 114.83,67.7 147.19,145.03 15.24,36.43 35.26,92.1 31.77,135.97l-2.1 19.78c-8.51,31.03 -22,51.13 -44.53,61.71 6.51,-24.64 13.32,-35.12 13.26,-65.67l-3.47 6.27c-0.45,0.91 -1.1,2.12 -1.57,3.14 -8.15,17.67 -19.15,60.88 -49.98,76.43 13.75,-24.92 26.38,-59.93 26.91,-96 -9.34,17.61 -26.35,83.13 -60.78,95.83 15.02,-13.42 30.38,-67.45 31.73,-97.97 -18.46,33.51 -24.51,75.35 -59.37,94.64 13.73,-30.83 28.2,-54.1 29.29,-95.47 -0.61,0.98 -1.26,2.37 -1.6,3.09 -0.34,0.71 -1.15,2.19 -1.55,3.08 -13.02,28.68 -18.23,58.53 -53.2,82.24 10.1,-32.94 24.65,-44.37 26.95,-87.73 -26.69,38.66 -18.16,60.12 -62.54,89.56 12.79,-15.97 31.2,-61.18 32.83,-90.38l-24.38 46.94c-9.62,14.82 -18.05,25.97 -32.75,34.16 10.36,-31.58 30.09,-52.32 28.51,-95.62 -10.21,39.31 -32.5,80.18 -59.12,94.06 6.56,-21.43 41.02,-71.72 25.28,-95.18 2.42,36.14 -36.15,79.69 -58,94.16 5.81,-13.43 13.29,-24.02 19.9,-39.31 5.81,-13.44 7.58,-27.21 13.07,-37.51l-0.06 -20.26c-18.98,49.04 -26.48,67.34 -65.66,96.01 6.83,-8 16.52,-28.35 22.64,-42.22 14.63,-33.15 15.43,-39.64 9.79,-51.98 -6.59,34.06 -32.84,72.77 -56.73,85.09 6.71,-16.71 13.24,-26.13 20.11,-42.65 6.71,-16.13 15.05,-34.49 4.41,-42.29 -0.39,30.69 -36.55,73.74 -54.64,82.28 7.68,-25.56 40.71,-67.78 31.67,-97.33 -4.25,15.33 -4.39,19.33 -12.22,34.85 -12.76,30.93 -41.06,52.83 -47.09,62.13 -1.17,0.59 -2.51,1.59 -3.36,2.04 -0.83,0.43 -2.31,1.42 -3.32,1.9 -10.32,4.91 -13.04,8.54 -29.35,-3.05l-9.53 -8.64c18.86,-17.37 24.86,-8.51 39.75,-33.92l22.03 -48.93 -2.46 -21.7c-15.34,14.66 -23.76,32.67 -47.49,47.05 -35.61,21.58 -76.4,28.04 -118.5,32.41 -27.11,2.81 -90.34,48.81 -115.4,18zm-127.92 -2176.05c-10.96,26.29 -18.04,43.1 -5.72,145.06 8.06,-0.47 13.13,-2.12 18.68,-6 -7.41,-39.89 -18.95,-98.91 15.43,-138.67 50.93,11.7 15.5,87.58 7.07,119.7 20.93,-11.59 38.6,-52.01 43.04,-88.17 2.96,-24.07 -0.17,-47.19 -35.27,-50.41 -39.32,-3.61 -92.08,6.1 -109.4,27.46 22.19,-6.83 42.72,-10.46 66.16,-8.96zm-1045.86 889.32c75.65,30.19 90.85,53.31 125.14,65.27 -11.3,-28.47 -38.65,-56.49 -48.54,-88.11 31.01,20.08 63.87,76.84 98.09,83.35l-19.32 -45.04c-5.14,-20.96 -49.44,-128.76 -69.42,-150.07 -25.54,6.85 -209.34,132.09 -224.09,147.62 56.58,-5.09 72.92,-21.08 138.13,-13.03zm1472.44 -383.48c-5.12,-39.49 -18.43,-64.09 -55.04,-61.23 11.28,-6.14 24.89,-8.21 36.62,-2.85 19.79,9.04 18.53,45.89 18.43,64.09zm133.87 39.67c-30.08,8.13 -43.56,-3.87 -69.33,-63.06 -28.64,6.89 -47.11,19.33 -50.46,12.01 -3.89,-9.59 23.16,-19.17 41.2,-26.5l461.41 -177.41c57.4,-21.38 93.41,-33.97 129.86,-36.39 16.6,-1.54 24.42,6.85 29.06,17.91 14.45,34.44 12.64,49.13 -22.13,67.95 -29.29,15.86 -66.41,30.98 -96.61,43.72 -123.07,51.43 -298.09,128.04 -423,161.78zm-1324.69 -19.94l30.86 -49.18c6.41,-10.06 6.17,-10.66 14.11,-18.4 10.54,4.71 102.65,101.5 174.77,177.55 5.26,5.55 30.9,47.88 30.9,47.88 1.38,-10.93 2.41,-16.04 2.59,-16.97 0.81,-4.26 44.82,52.19 53.95,74.08l4.03 -20.13c5.23,3.62 28.86,20.71 54.15,33.66 16.42,8.41 44.45,18.07 52.46,32.59 -20.07,16.15 -194.94,96.43 -222.45,101.73 -33.18,-26.59 -135,-232.5 -169.37,-299.16 -13.01,-25.24 -24.27,-49.12 -25.99,-63.66zm103.79 -43.44c-17.66,-28.4 -25.13,-12.86 -17.62,-63 3.82,-25.47 8.16,-54.21 9.5,-79.99l4.1 -28.99c7.69,2.71 18.8,18.45 22.93,25.13 23.42,37.86 -16.09,45.48 -20.56,102.97 2.55,-0.79 6.98,-3.19 7.73,-3.4 8.36,-2.37 0.84,-3.65 7.12,-0.54l-0.15 54.53 -13.06 -6.7zm558.62 -763.6c-3.13,-7.1 48.85,-89.58 15.14,-203.35 64.16,37.66 7.58,156.57 -15.14,203.35zm-66.54 22.33c31.3,-64.23 50.71,-101.91 48.99,-232.53 34.74,85.93 0.37,192.52 -48.99,232.53zm93.82 -5.87c17.33,-23.16 45.87,-85.17 55.06,-127.43 3.81,55.37 -0.6,99.88 -55.06,127.43zm195.2 849.39c6.77,-7.46 24.6,16.49 43.97,13.39 28.4,-4.55 66.05,-25.25 92.2,-31.85 -3.44,7.94 -5.72,10.4 -8.99,18.34l-2.55 0.53c-27.61,-1.99 -76.24,35.05 -105.23,23.97 -8.5,-3.25 -26.2,-14.38 -19.41,-24.38zm176.63 -55.72c3.85,-18.91 45.94,-74.88 77.88,-70.39 19.34,2.72 32.65,20.78 32.21,44.72 -8.75,35.29 -66.86,275.75 -80.64,302.43l50.72 -197.57c9.01,-35.08 14.74,-68.74 16.97,-97 6.07,-76.83 -68,-42.99 -97.15,17.82zm-1561.81 489.15c28.89,3.78 56.5,13.54 80.97,26.75 12.65,6.83 23,15.83 33.16,20.72 0.39,-44.86 -101.54,-82.69 -131.6,-93.87 10.11,-41.55 103.33,-109.32 138.82,-135.4 72.08,-52.99 165.87,-114.61 204.76,-128.04 17.42,17.14 40.56,81.19 47.25,108.73 32.19,40.5 86.01,303.14 92.62,381.21 -53.5,-18.99 -132.88,-101.75 -292.49,-117.91 5.08,12.82 98.88,28.12 214.52,175.24 30.09,38.28 60.57,75.38 70.1,110.09 -177.39,-13.87 -216.32,-79.78 -286.91,-110.58 11.35,23.5 29.4,44.98 44.34,67.8 77.78,118.8 149.98,166.95 158.04,178.76 -51.45,-5.78 -117.73,-32.85 -168.39,-54.06 23.49,48.01 174.24,121.33 175.54,122.71 -36.79,-6.49 -85.63,4.14 -124.6,6.98 54.62,20.4 110.5,28.39 137.39,51.87 -61.57,18 -91.48,32.42 -127.13,95.61 56.52,-10.88 66.33,-16.62 132.43,-13.65 -37.58,47.36 -80.29,60.38 -134.03,140.32 -16.12,23.97 -29.63,46.03 -42.01,74.02 -20.52,46.41 -23.99,77.41 -29.88,89.97 -65.38,-67.44 -167.14,-340.2 -197.86,-429.07 -66.7,-192.94 -113.86,-329.65 -58.76,-521.57 13.86,-48.27 9.5,-53.74 63.71,-46.64zm947.03 -1279.54c36.79,-87.24 31.18,-121.61 32.56,-237.38 37.06,49.17 20.13,199.59 -32.56,237.38zm-61 16.81c11.25,-33.39 22.04,-65.46 19.68,-106.06 -2.14,-36.67 -17.53,-88.84 -22.74,-109.95 10.7,23.17 16.53,11.19 34.75,73.5 0.71,-23.01 -17.1,-92.08 -15.82,-95.44 19.66,26.65 33.79,57.94 37.26,97.12 3.66,41.3 -17.63,116.78 -53.13,140.82zm224.19 -162.97c-6.54,32.11 -10.13,52.62 -26.22,78.97 -12.42,20.34 -33.65,43.8 -53.53,52.85 14.14,-37.87 15.75,-133.7 -4.38,-205.77 47.54,57.23 38.65,109.78 32.11,162.4 52.39,-105.24 43.18,-91.94 45.66,-156.36 8.71,19.64 7.86,44.61 6.37,67.91zm486.66 924.24c25.5,-13.37 49.25,26.09 29.04,44.69 -22.4,22.3 -66.76,-21.42 -29.04,-44.69zm-23.62 240.69c-0.85,13.41 -5.83,25.11 -8.53,39.41 -20.4,-2.77 -42.54,-5.85 -67.97,0.05 3.97,-15.59 13.82,-49.98 27.83,-59.31 18.4,-12.26 47.07,-5.36 48.67,19.86zm-637.07 -591.54c-84.7,-2.47 -100.35,-74.89 -83.12,-132.02 9.7,-32.18 24.32,-39.09 56.9,-42.6 37.39,-4.03 116.95,-9.22 145.88,10.31 14.19,9.58 14.85,43.68 3.36,77.05 -18.98,55.12 -64.5,88.97 -123.01,87.26zm-86.47 -156.59c0.83,6.9 -25.91,11.99 -27.66,1.94 -1.31,-7.53 26.47,-12.76 27.66,-1.94zm-895.56 1046.08c-16.76,64.01 -40.51,132.36 -13.55,251.22 16.27,13.67 40.57,30.02 63.86,42.55 14.48,7.79 57.27,25.81 68.16,33.99 -29.12,-56.13 -50.28,-90.22 -76.57,-143.83 39,10.05 82.84,36.36 115.15,42.72 -23.17,-31.31 -66.71,-74.88 -100.13,-117.32 45.92,12.98 69.61,24.13 140.36,44.14 -8.6,-14.82 -190.69,-155.79 -197.28,-153.48zm1818.8 -577.37c1.18,16.51 11.89,32.1 22.46,43.08 16.16,16.78 30.19,15.89 52.43,8.86 51.52,-16.28 293.24,-108.83 306.98,-125.33 -30.12,-22.29 -38.76,-34.72 38.25,-75.24 30.81,-16.21 81.12,-36.86 105.2,-53.09 -27.92,4.36 -102.12,35.45 -132.21,47.32 -45.02,17.76 -85.62,34.11 -129.28,51.2 -86.43,33.83 -173.7,70.6 -263.83,103.21zm-826.31 -105.8c9.91,-41.63 15.02,-47.6 33.74,-62.2 -59.62,21.42 -51.23,45.02 -73.04,94.5 -2.24,-11.16 -4.46,-16.28 1.98,-45.27 -61.72,84.13 -61.17,159.11 -184.69,143.6 12.56,15.53 35.36,20.45 58.92,23.96 36.78,5.48 43.63,-1.28 60.68,-17.36 -0.54,4.81 -4.55,12.18 -12.63,19.62 21.91,-2.67 26.95,-15.13 41.61,-30.84 3.89,1.54 -3.69,17.59 -8.59,29.32 13.26,-9.97 19.99,-18.63 25,-36.81 6.4,2.99 9.01,15.47 7.96,23.78 34.7,-16.98 54.52,-51.67 73.72,-91.94l5.64 20.66c30.88,-50.46 105.25,-43.13 125.55,-91.09 4.73,6.39 3.05,12.73 -1.89,26.5 12.78,-3.76 17.78,-10.92 24.72,-16.95 24.76,7.24 53.14,17.08 72.75,30.21 31.08,20.8 33.74,26.15 51.36,51.04 6.76,-40.12 2.34,-45.96 -5.14,-71.59 1.77,13.58 -2.78,25.57 -7.21,34.25 -5.08,-32.24 -19.17,-82.74 -46.47,-91.23 9.4,8.66 11.93,12.78 16.01,23.88 -14.67,-13.61 -23.13,-53.87 -101.23,-12 -19.92,-26.56 -58.24,-27.54 -86.56,-13.69 -5.21,2.55 -11.7,10.45 -21.85,17.95 8.47,-17.71 14.07,-18.51 29.93,-29.51 -32.81,3.62 -66.47,46.87 -80.28,71.25zm580.33 940.02c-16.13,6.45 -29.01,-9.25 -22.97,-22.94 10.85,9.89 16.51,16.91 22.97,22.94zm6.42 -6.03c-11.18,-10.76 -14.09,-14.9 -24.96,-23.75 14.49,-4.43 26.26,6.15 24.96,23.75zm-77.3 -37.04c24.55,0.44 9.79,-3.06 21.1,16.91 1.12,-9.14 1.48,-15.66 2.66,-15.71 0.74,-0.03 8.85,1.24 21.69,2.94 -21.29,19.61 -5.18,50.21 16.66,49.92 30.56,-0.4 31,-40.26 12.03,-52.15l37.66 -7.55c1.39,27.74 1.97,91.37 -28.82,100.74 -47.42,14.42 -84.89,-49.67 -82.98,-95.11zm123.09 -9.61l11.43 -4.15 -10.51 82.21c-2.42,-44.9 -1.33,-54.35 -0.92,-78.05zm-658.59 1008.07c-9.8,6.68 -24.23,6.46 -35.17,-4.25 -11.48,-11.24 2.88,-51.7 4.08,-66.88 17.23,-3.49 32.44,-2.86 47.25,4.22 0.96,12.58 -2.06,53.68 -16.16,66.91zm-62.53 -1846.6c41.68,-68.86 64.42,-117.36 152.67,-128.28 32.39,-4.01 47.91,-3.18 88.27,9.66 33.5,10.66 48.71,-22.7 96.84,1.54 50.35,25.35 64.05,71.55 65.86,122.42 1.32,37.02 9.59,32.32 29.72,37.95 -53.94,19.71 -43.02,-50.75 -139.82,-81.53 -25.29,-8.04 -23.27,-3.66 -43.6,4.38 -13.48,5.33 -30.42,7.82 -44.23,11.61 -33.1,9.09 -49.59,21.8 -67.38,40.23 -30.68,31.76 -72.5,85.34 -126.29,96.79 -40.97,8.73 -152.04,6.81 -170.85,-49.53 109.42,35.21 151.68,-53.48 158.81,-65.25zm-51.07 1668.55c12.55,33.56 13.51,63.3 40.61,74.72 3.49,1.47 27.73,9.12 28.11,8.96 -0.56,0.28 -5.97,0.91 -3.18,6.14 -26.38,-6.88 -40.01,-8.06 -52.18,-28.49 -8.03,-13.47 -10.41,-29.84 -13.36,-61.34zm-17.88 -27.49c17.55,13.94 63.45,44.54 97.09,63.73 -41.68,-11.08 -79.21,-36.24 -97.09,-63.73zm118.39 22.99c-47.29,-18.3 -149.47,-36.98 -141,-100.3 4.18,-31.3 25.69,-64 38.57,-78.46 78.93,-88.67 130.17,-34.19 237.84,15.65l-70.57 78.53c-22.28,25.63 -47.8,55.16 -64.84,84.58zm153.75 -180.82l-8.96 10.07c-37.07,-18.27 -98.77,-48.57 -141.85,-61.86 58.88,5.34 100.15,29.3 150.81,51.79zm498.07 -830.99c17.36,2.69 33.94,9.61 46.79,18.61 14.35,10.06 19.33,16.82 9.61,34.34 -13.6,24.52 -50.52,2.55 -77.02,-8.46 -1.68,-24.13 8.79,-37.42 20.62,-44.49zm30.04 -123.37c15.3,7.65 35.46,18.37 50.82,27.52 12.52,7.46 18.96,18.38 12.79,29.25 -15.3,26.98 -62.35,1.3 -84.37,-10.52 2.23,-16.46 9.48,-30.55 20.75,-46.25zm16.1 -59.19c0.48,-18.16 10.52,-39.01 22.61,-48.52 17.01,1.86 40.9,13.67 54.25,24.95 8.13,6.86 9.52,13.45 1.83,27.92 -9.03,16.99 -34.02,16.67 -78.69,-4.35zm-207.25 -140.32c58.68,23.96 60.74,19.32 58.96,50.32l-98.04 17.59 -57.89 -109.38 96.97 41.47zm143.36 72.25c-6.61,25.07 -7.38,30.63 -21.12,47.34 28.27,-5.57 33.76,6.56 60.59,9.53l-37.37 -24.98 38.4 8.56 -26.14 -21.91c1.1,-0.77 20.11,5.54 25.03,6.39 -4.5,-10.01 -6.11,-13.23 -20.02,-20.85 19.62,0.26 36.96,5.06 53.37,14.46 -8.15,9.68 -17.33,32.36 -21.74,51.94 27.19,15.56 62.97,29.97 87.52,17.96 9.77,-4.78 17.57,-16.35 17.17,-30.84 12.08,12.48 0.96,41.31 -14.9,47.11 -29.81,10.89 -82.65,-2.46 -106.22,-10.93 -35.33,-12.7 -66.84,-27.88 -108.02,-32.39 -71.53,-7.84 -223.95,24.28 -244.16,22.14 -18,-5.03 -7.52,-17.16 3.9,-25.27 35.88,-25.49 263.94,-66.74 313.7,-58.25zm-502.95 -62.13l22.25 -16.68c5.04,5.67 4.99,11.55 12.89,16.8 53.1,-28.02 42.66,-31.95 68.75,-48.05 12.93,9.22 71.11,105.04 76.29,121.31l-180.19 -73.38zm176.97 94.87c-44.76,66 -71.2,46.29 -96.25,76.07 -26.16,31.1 -20.63,89.66 -33.5,137.81 -5.17,-8.58 -24.55,-121.69 -29.86,-144.46 -11.13,-47.71 -21.4,-100.19 -37.96,-141.19l197.56 71.77zm-208.92 49.82c11.13,-5 12.91,20.51 20.04,49.74 8.68,35.58 22.75,93.05 27.31,141.29 0.87,9.24 0.9,70.28 -3.37,76.4 -1.84,2.63 -7.31,3.45 -23.55,6.51 -12.26,2.31 -33.09,2.84 -46.78,4.25 -86.65,8.91 -190.06,21.12 -273.84,36.04l-28.93 3.42c-30.9,-162.61 -40.12,-224.15 -82.67,-382.69 -8.69,-32.39 -26.19,-87.74 -30.95,-120.19 17.99,16.02 98.46,182.33 109.67,214.58 31.48,-5.86 273.5,-134.92 301.34,-139.27 36.41,57.24 15.9,79.25 -25.64,129.39l-95.3 102.79c51.52,-10.84 127.72,-91.96 152.67,-122.25zm488.88 296.34c-0.81,-20.94 7.25,-30.2 16.51,-40.38 19.92,-0.45 65.34,18.4 50.96,44.26 -7.47,13.43 -40.3,9.95 -67.47,-3.88zm-171.5 1115.2c4.32,-0.45 14.15,0.23 16.23,2.4 9.11,9.51 44.22,22.76 51.39,25.45 2.07,0.77 0.71,5.23 -2.82,5.64 -3.11,0.36 -9.63,-1.9 -10.52,-2.13 -17.53,-4.57 -38.09,-17.19 -54.29,-31.36zm-108.6 17c-5.56,-19.31 -1.23,-45.47 3.85,-65.98 14.47,-1.81 28.48,-0.31 42.16,3.53 -2.07,26.84 -6.1,44.38 -14.94,64.22 -10.67,6.26 -23.15,7.47 -31.07,-1.77zm124.29 -38.96c0.04,-1.05 0.15,-1.65 0.44,-2.42 44.87,17.2 90.4,32.78 140.47,37.27 -15.46,10.27 -37.74,-1 -56.44,2.35 -3.95,-0.28 -3.95,3.34 -6.68,7.28 -14.53,-5.19 -27.89,-9.96 -42.08,-14.72 -15.25,-5.39 -24.01,-9.23 -32.17,-12.44 -6.21,-2.44 -3.64,-10.37 -3.53,-17.32zm-225.41 15.57c-0.01,-16.73 3.39,-34.42 6.7,-51.71l49.16 5.82c-0.48,16.43 -4.17,38.22 -9.7,53.44 -6.88,18.9 -15.19,19.14 -31.47,17.85 -10.32,-0.82 -14.68,-7.49 -14.68,-25.39zm-115.05 -30c-0.95,-20.14 1.46,-38.34 4.84,-58.95l49.65 4.16c0.04,16.03 -3.82,44.5 -9.05,57.5 -6.38,15.87 -18.13,16.05 -30.01,15.41 -7.22,-0.39 -14.65,-1.69 -15.42,-18.13zm-1.57 -1538.74c6.72,-9.64 14.12,-13.67 23.02,-16.33 4.74,-1.41 6.5,-0.85 3.13,3.85 -4.95,6.89 -13,11.39 -22.74,17.03 -4.59,2.66 -6.78,0.27 -3.41,-4.55zm87.38 -35.4c2.35,5.54 -27.25,24.93 -29.32,21.83 -5.72,-8.55 26.31,-28.93 29.32,-21.83zm65.11 -27.14c-0.48,4.43 -14.28,16.36 -14.13,15.12 1.32,-10.94 14.28,-16.49 14.13,-15.12zm-126.01 -15.74c18.41,-13.4 20.47,-9.9 32.22,-38.02 -39.18,21.8 -65.69,38.65 -123.37,36.58 28.4,-15.34 88.93,-44.22 108.67,-79.02l-17.82 39.02c33.12,-10.74 54.95,-37.34 76.46,-50.86 -3.55,26.92 -21.96,48.97 -33.02,68.23 44.34,-11.35 65.64,-50.07 90.64,-78.06 -5.74,49.2 -74.59,98.92 -133.78,102.12zm213.44 -130.73c11.69,-12.84 11.74,-28.47 20.01,-41.24 2.67,30.24 3.99,51.88 -9.3,82.07 -4.22,-10.11 -16.1,-15.3 -23.19,-18.48 -5.38,14.36 -11.41,22.92 -19.93,36.94 -12.3,20.23 -23.28,35.99 -27.19,36.59 0,0 4.69,-10.35 4.29,-21.62 -8.86,14.9 -26.98,47.91 -63.98,43.94 41.52,-20.51 50.35,-41.68 61.78,-93.39 7.36,11.79 5.85,18.66 8.75,32.74 23.88,-10.97 30.61,-55.63 41.13,-79.37l7.63 21.84zm-122.04 -49.55c4.62,-12.31 8.47,-17.34 20.01,-21.95 6.82,-2.72 15.37,0.08 20.86,3.81 29.39,19.95 36.28,15.64 55.82,22.38 -33.44,-1.35 -51.48,-5.29 -64.19,-13.72 -8.61,-5.7 -19.14,-2.95 -17.8,10.59 0.97,9.89 5.73,13.16 20.62,23.63 -18.5,-6.52 -36.7,-10.81 -44.69,-26.17 -7.3,16.97 -22.14,24.16 -52.34,27.78 15.3,-8.05 35.77,-40.71 14.9,-33.01 -41.47,15.3 -85.92,57.54 -134.83,60.08 17.36,-7.3 34.11,-20.97 46.95,-31.39 14.3,-11.6 26.28,-28.28 50.43,-35.53 -6.58,8.99 -15.7,14.49 -19.73,26.98 13.28,-9.05 43.42,-27.27 61.08,-30.49 3.76,-0.69 7.44,-0.37 10.55,2 5.31,4.05 4.88,4.74 7.94,14.1 6.59,-4.13 10.37,-5.48 13.59,-17.15 2.42,11.27 7.5,14.23 10.83,18.07zm-95.26 -30.35c28.01,-46.79 112.9,-53.99 158.35,-33.47l-11.29 22.94c-79.1,-12.95 -77.41,2.81 -147.06,10.53zm165.59 -306.01c24,18.49 42.63,13.88 61.58,21.6 0.96,41.15 -26.85,67.08 -52.98,77.09 -4.84,-51.73 -24.12,-69.75 -28.34,-113.81l19.75 15.12zm125.37 -170.26c43.58,4 44.64,36.27 27.3,92.03 -12.18,39.18 -42.47,79.61 -93.12,81.38 -79.12,2.76 -110.65,-112.14 -41.53,-156.46 29.5,-17.44 83.32,-19.15 107.35,-16.95zm66.1 10.59c4.9,8.81 -20.91,11.94 -19.74,2.42 0.46,-3.76 16.17,-8.84 19.74,-2.42zm-526.39 -362.95c1.62,-47.63 -14.91,-107.37 -28.59,-145.29 51.98,61.45 71.18,179.54 17.08,253.95 -7.25,-114.01 -11.64,-105.37 -57.14,-204.53 41.2,42.43 46.38,61.24 68.66,95.87z"/>
    <path class="fil3" d="M262.72 3304.24c0,-9.78 0.87,-21.92 2.62,-36.4 1.75,-14.48 4.08,-29.76 6.99,-45.82 2.91,-16.06 6.17,-32.07 9.78,-48.01 3.61,-15.94 7.28,-30.32 11.01,-43.13 3.73,-12.81 7.28,-23.33 10.66,-31.55 3.38,-8.22 6.35,-12.53 8.91,-12.93 1.63,-0.26 4.19,-0.13 7.69,0.37 3.49,0.5 6.87,1.19 10.13,2.08 3.26,0.89 6.17,1.94 8.74,3.17 2.56,1.23 3.84,2.54 3.84,3.94 0,0.93 -0.12,1.71 -0.35,2.33 -0.23,0.62 -0.35,1.51 -0.35,2.68 -0.47,24.76 0.06,49.03 1.57,72.78 1.51,23.76 4.02,47.36 7.51,70.8 1.63,-11.67 3.61,-23.98 5.94,-36.92 2.33,-12.94 4.83,-25.74 7.51,-38.39 2.68,-12.65 5.53,-24.69 8.56,-36.11 3.03,-11.42 6,-21.56 8.91,-30.4 2.91,-8.84 5.65,-15.91 8.21,-21.2 2.56,-5.29 4.89,-8.1 6.99,-8.43 1.63,-0.26 4.19,-0.13 7.69,0.37 3.49,0.5 6.87,1.19 10.13,2.08 3.26,0.89 6.17,1.94 8.74,3.17 2.56,1.23 3.84,2.54 3.84,3.94 0,0.7 -0.23,1.32 -0.7,1.86 -0.93,1.31 -1.75,2.43 -2.45,3.35 -0.7,0.93 -1.4,2.02 -2.1,3.3 -3.49,6.84 -7.11,15.85 -10.83,27.03 -3.73,11.18 -7.34,23.51 -10.83,36.99 -3.49,13.48 -6.81,27.45 -9.96,41.92 -3.14,14.47 -5.94,28.24 -8.39,41.32 -2.45,13.08 -4.37,24.85 -5.77,35.32 -1.4,10.47 -2.1,18.5 -2.1,24.09 0,2.8 -1.4,4.41 -4.19,4.85 -7.45,1.17 -13.22,0.56 -17.3,-1.83 -4.08,-2.39 -6.7,-5.47 -7.86,-9.25 -2.56,-10.08 -5.01,-21.17 -7.34,-33.27 -2.33,-12.1 -4.48,-24.63 -6.46,-37.6 -1.98,-12.97 -3.67,-26.1 -5.07,-39.39 -1.4,-13.29 -2.33,-26.31 -2.8,-39.05 -4.19,13.94 -8.33,29.38 -12.4,46.32 -4.08,16.95 -7.69,33.41 -10.83,49.39 -3.15,15.98 -5.71,30.54 -7.69,43.66 -1.98,13.12 -2.97,22.94 -2.97,29.47 0,2.8 -1.4,4.41 -4.19,4.85 -2.1,0.33 -4.48,0.24 -7.16,-0.28 -2.68,-0.51 -5.18,-1.28 -7.51,-2.32 -2.33,-1.03 -4.31,-2.35 -5.94,-3.96 -1.63,-1.61 -2.45,-3.34 -2.45,-5.21zm297.71 -256.67c1.86,-0.29 3.55,0.32 5.07,1.83 1.51,1.51 2.85,3.4 4.02,5.66 1.16,2.26 2.04,4.63 2.62,7.1 0.58,2.47 0.76,4.77 0.52,6.91 -0.23,2.6 -1.75,4.12 -4.54,4.55 -10.95,1.02 -22.25,2.79 -33.89,5.31 -11.65,2.53 -23.06,5.25 -34.24,8.16 4.43,1.4 6.46,3.01 6.11,4.81 -0.35,1.8 -1.46,4.71 -3.32,8.73 -1.4,3.25 -2.85,6.85 -4.37,10.82 -1.51,3.96 -2.97,8.39 -4.37,13.26 -4.19,13.93 -8.15,28.94 -11.88,45.02 -3.73,16.08 -6.99,31.55 -9.78,46.43 -2.8,14.88 -5.07,28.34 -6.81,40.38 -1.75,12.04 -2.62,21.2 -2.62,27.49 0,2.8 -1.4,4.41 -4.19,4.85 -2.1,0.33 -4.48,0.24 -7.16,-0.27 -2.68,-0.51 -5.18,-1.28 -7.51,-2.32 -2.33,-1.03 -4.31,-2.35 -5.94,-3.96 -1.63,-1.61 -2.45,-3.34 -2.45,-5.21 0,-6.52 0.41,-14.16 1.22,-22.9 0.81,-8.75 1.92,-18.12 3.32,-28.12 1.4,-10 3.09,-20.46 5.07,-31.37 1.98,-10.91 4.13,-21.67 6.46,-32.29 2.33,-11.31 4.89,-22.49 7.69,-33.53 2.8,-11.04 6.17,-22.22 10.13,-33.56 -8.15,2.44 -15.49,4.64 -22.01,6.59 -6.52,1.95 -12.46,3.82 -17.82,5.59 -5.36,1.77 -10.25,3.59 -14.68,5.45 -4.43,1.86 -8.5,3.89 -12.23,6.11 -1.17,0.65 -2.21,1.34 -3.15,2.07 -0.93,0.73 -1.86,1.51 -2.8,2.36 -0.93,0.61 -1.51,0.82 -1.75,0.62 -1.4,0.22 -2.74,-0.91 -4.02,-3.39 -1.28,-2.48 -2.45,-5.32 -3.49,-8.54 -1.05,-3.21 -1.86,-6.46 -2.45,-9.75 -0.58,-3.29 -0.76,-5.76 -0.52,-7.43 0.47,-3.1 5.36,-6.43 14.68,-9.99 12.81,-5.5 26.15,-10.33 40.01,-14.48 13.86,-4.15 27.66,-7.71 41.41,-10.68 13.74,-2.97 27.37,-5.46 40.88,-7.46 13.51,-2 26.44,-3.62 38.79,-4.86zm-1.4 202.18c0,1.4 -0.47,3.57 -1.4,6.51 -0.93,2.94 -2.39,5.85 -4.37,8.72 -1.98,2.87 -4.43,5.47 -7.34,7.79 -2.91,2.32 -6.35,3.79 -10.31,4.41 -5.59,0.64 -9.26,-1.05 -11.01,-5.09 -1.75,-4.04 -2.27,-8.67 -1.57,-13.91 0.7,-5.23 2.33,-10.15 4.89,-14.74 2.56,-4.6 5.36,-7.13 8.39,-7.6 6.76,-0.83 12.23,-0.17 16.42,1.97 4.19,2.14 6.29,6.12 6.29,11.94z"/>
    <path class="fil3" d="M623.14 3478.54c0,-17.46 1.57,-39.1 4.7,-64.82 3.14,-25.62 7.32,-52.67 12.54,-80.95 5.23,-28.38 11.08,-56.59 17.56,-84.54 6.48,-28.05 13.07,-53.18 19.75,-75.6 6.69,-22.42 13.07,-40.74 19.13,-54.86 6.06,-14.22 11.39,-21.5 15.99,-21.82 2.93,-0.21 7.53,0.41 13.8,1.85 6.27,1.44 12.33,3.21 18.19,5.3 5.85,2.1 11.08,4.45 15.68,7.05 4.6,2.6 6.9,5.16 6.9,7.67 0,1.25 -0.42,2.33 -1.25,3.22 -1.67,2.21 -3.14,4.09 -4.39,5.64 -1.25,1.55 -2.3,3.4 -3.14,5.55 -5.85,10.86 -12.02,25.41 -18.5,43.63 -6.48,18.23 -12.75,38.32 -18.81,60.28 -6.06,21.96 -11.92,44.95 -17.56,68.97 -5.64,24.02 -10.56,47.26 -14.74,69.71 8.78,-29.05 18.19,-57.83 28.22,-86.34 10.03,-28.51 20.28,-55.05 30.73,-79.61 8.36,-19.82 17.46,-38.23 27.28,-55.23 9.83,-17 19.55,-31.27 29.16,-42.82 7.11,-8.44 15.05,-14.96 23.83,-19.55 8.78,-4.59 17.56,-7.19 26.34,-7.81 15.47,-1.09 27.59,2.34 36.37,10.3 8.78,7.95 14.53,18.63 17.25,31.92 2.72,13.4 2.72,28.66 0,45.78 -2.72,17.12 -7.73,34.2 -15.05,51.44 -7.32,17.24 -16.51,33.56 -27.59,48.87 -11.08,15.41 -23.52,28.2 -37.31,38.37 7.11,4.52 13.38,10.03 18.81,16.55 5.44,6.52 9.41,13.55 11.92,21.32 5.44,15.92 6.69,34.33 3.76,55.24 -2.93,20.8 -9.62,40.61 -20.07,59.32 -10.45,18.71 -24.46,34.75 -42.02,48.32 -17.56,13.57 -38.25,21.19 -62.09,22.87 -9.2,0.65 -18.08,-0.4 -26.65,-3.24 -8.57,-2.85 -15.78,-7.67 -21.64,-14.47 -2.51,-2.44 -4.08,-5.36 -4.7,-8.97 -0.63,-3.51 -0.63,-6.65 0,-9.41 0.63,-2.76 1.67,-4.72 3.14,-5.86 1.46,-1.15 3.24,-0.54 5.33,1.82 4.18,5.14 8.88,8.47 14.11,9.98 5.23,1.51 10.35,2.09 15.36,1.74 11.71,-0.82 22.68,-5.88 32.92,-15.18 10.24,-9.29 19.23,-20.48 26.97,-33.46 7.73,-13.09 13.9,-27.32 18.5,-42.69 4.6,-15.27 7.42,-29.27 8.47,-41.88 1.05,-12.62 -0.1,-23.09 -3.45,-31.32 -3.34,-8.33 -9.2,-12.21 -17.56,-11.62 -5.44,1.64 -11.29,2.57 -17.56,2.8 -6.27,0.23 -11.71,-0.54 -16.31,-2.3 -3.34,-1.85 -6.27,-4.99 -8.78,-9.41 -2.51,-4.42 -3.34,-7.71 -2.51,-9.86 1.25,-3.43 5.02,-6.31 11.29,-8.63 6.27,-2.32 12.12,-3.68 17.56,-4.06 10.87,-7.04 21.11,-16.33 30.73,-27.77 9.62,-11.55 18.19,-24.17 25.71,-37.87 7.53,-13.7 13.59,-27.4 18.19,-41.31 4.6,-13.91 7.42,-26.34 8.47,-37.28 1.05,-10.84 -0.1,-19.75 -3.45,-26.62 -3.34,-6.87 -9.2,-10.01 -17.56,-9.42 -9.62,0.68 -20.49,9.6 -32.61,26.76 -12.12,17.16 -24.46,40.6 -37,70.34 -8.78,21.1 -17.46,43.67 -26.03,67.68 -8.57,24.02 -16.83,48.32 -24.77,72.92 -7.94,24.6 -15.16,48.83 -21.64,72.7 -6.48,23.87 -12.02,46 -16.62,66.39 -1.25,5.52 -5.23,8.52 -11.92,8.99 -3.76,0.27 -8.05,-0.27 -12.86,-1.6 -4.81,-1.33 -9.3,-3.11 -13.48,-5.32 -4.18,-2.21 -7.73,-4.89 -10.66,-8.03 -2.93,-3.14 -4.39,-6.38 -4.39,-9.72zm374.4 -41.42c0.84,-4.24 1.36,-8.25 1.57,-12.03 0.21,-3.78 0.73,-7.79 1.57,-12.03 0.42,-0.86 0.63,-2.34 0.63,-4.43 -9.2,19.88 -19.65,37.24 -31.36,52.07 -11.71,14.83 -24.67,22.75 -38.88,23.75 -12.54,0.88 -22.26,-2.09 -29.16,-8.92 -6.9,-6.83 -10.98,-15.85 -12.23,-27.05 -2.09,-16.99 -1.57,-36.05 1.57,-57.18 3.14,-21.13 8.68,-41.9 16.62,-62.32 7.94,-20.42 17.87,-39.31 29.79,-56.66 11.92,-17.35 25.61,-30.76 41.08,-40.21 5.02,-3.28 10.14,-5 15.36,-5.16 5.23,-0.16 10.56,0.51 15.99,2.01 5.44,1.5 10.87,3.52 16.31,6.06 5.44,2.54 11.08,5.07 16.93,7.59 0.84,-0.89 1.46,-2.19 1.88,-3.89 0.42,-1.7 0.84,-3.2 1.25,-4.48 2.51,-5.61 5.64,-8.55 9.41,-8.81 2.93,-0.21 6.38,0.18 10.35,1.15 3.97,0.98 7.84,2.27 11.6,3.89 3.76,1.62 7.21,3.36 10.35,5.23 3.14,1.87 5.75,3.57 7.84,5.09 3.34,2.27 3.97,5.26 1.88,8.96 -2.09,3.7 -3.76,7.27 -5.02,10.7 -5.02,14.15 -9.83,29.12 -14.42,44.91 -4.6,15.79 -8.78,31.56 -12.54,47.29 -3.76,15.73 -7.11,30.92 -10.03,45.55 -2.93,14.63 -5.44,27.66 -7.53,39.1 -0.84,4.66 -0.21,7.12 1.88,7.39 2.09,0.27 4.39,-0.94 6.9,-3.62 9.62,-10.29 18.5,-22.31 26.65,-36.06 8.15,-13.74 15.57,-27.96 22.26,-42.64 6.69,-14.69 12.65,-29.11 17.87,-43.28 5.23,-14.16 9.93,-26.83 14.11,-37.99 1.25,-2.6 2.93,-4.39 5.02,-5.37 2.09,-0.98 4.18,-1.13 6.27,-0.44 2.09,0.69 3.66,2.04 4.7,4.06 1.05,2.02 1.15,4.31 0.31,6.88 -2.93,7.31 -6.58,16.98 -10.97,28.99 -4.39,12.02 -9.72,25.04 -15.99,39.07 -6.27,14.03 -13.07,28.2 -20.38,42.51 -7.32,14.31 -15.05,27.29 -23.2,38.95 -8.15,11.65 -16.62,21.34 -25.4,29.07 -8.78,7.73 -17.56,11.9 -26.34,12.52 -5.44,0.38 -10.35,-0.53 -14.74,-2.73 -4.39,-2.2 -8.15,-5.28 -11.29,-9.24 -3.14,-3.96 -5.44,-8.4 -6.9,-13.31 -1.46,-4.91 -1.99,-9.89 -1.57,-14.94zm-48.29 13.43c5.02,-0.35 10.24,-4.17 15.68,-11.45 5.44,-7.28 10.98,-16.45 16.62,-27.51 5.64,-11.06 10.98,-23.35 15.99,-36.87 5.02,-13.52 9.72,-26.61 14.11,-39.25 4.39,-12.64 8.15,-24.09 11.29,-34.35 3.14,-10.26 5.54,-17.95 7.21,-23.08 0.84,-2.99 1.78,-5.87 2.82,-8.66 1.05,-2.79 2.2,-5.49 3.45,-8.08 -3.34,-5.2 -8.36,-7.56 -15.05,-7.09 -10.87,0.77 -21.01,7.33 -30.42,19.7 -9.41,12.37 -17.66,27.27 -24.77,44.7 -7.11,17.43 -12.86,35.61 -17.25,54.52 -4.39,18.91 -7,35.09 -7.84,48.53 0,1.67 -0.1,4.19 -0.31,7.55 -0.21,3.36 -0.1,6.59 0.31,9.7 0.42,3.11 1.25,5.87 2.51,8.29 1.25,2.42 3.14,3.54 5.64,3.37zm149.26 -8c1.25,-16.39 3.55,-34.01 6.9,-52.85 3.34,-18.84 7.32,-37.72 11.92,-56.65 4.6,-18.93 9.72,-37.48 15.37,-55.64 5.64,-18.17 11.81,-35.01 18.5,-50.53 2.09,-5.58 5.02,-8.51 8.78,-8.77 2.93,-0.21 6.38,0.18 10.35,1.15 3.97,0.98 7.94,2.26 11.92,3.86 3.97,1.6 7.53,3.34 10.66,5.21 3.14,1.87 5.75,3.57 7.84,5.09 3.34,2.27 3.97,5.26 1.88,8.96 -2.09,3.7 -3.76,7.27 -5.02,10.7 -5.85,15.46 -11.39,31.95 -16.62,49.46 -5.23,17.51 -9.93,34.98 -14.11,52.42 5.44,-12.51 11.6,-25.48 18.5,-38.93 6.9,-13.45 14.11,-26.5 21.64,-39.15 7.53,-12.66 15.16,-24.27 22.89,-34.85 7.73,-10.58 15.36,-19.27 22.89,-26.07 2.93,-3.13 6.9,-4.88 11.92,-5.23 1.67,-0.12 4.18,0.12 7.53,0.72 3.34,0.6 7,1.49 10.98,2.68 3.97,1.18 7.73,2.59 11.29,4.22 3.55,1.63 6.59,3.61 9.09,5.94 4.18,3.89 5.44,7.46 3.76,10.71 -1.67,3.25 -4.18,6.25 -7.53,9 -10.87,9.96 -18.92,22.03 -24.15,36.19 -5.23,14.16 -8.26,26.71 -9.09,37.64 -0.42,7.97 0.63,13.65 3.14,17.03 2.51,3.38 5.44,4.95 8.78,4.71 6.69,-0.47 13.17,-3.64 19.44,-9.52 6.27,-5.88 12.12,-12.77 17.56,-20.68 5.44,-7.91 10.45,-16 15.05,-24.26 4.6,-8.27 8.36,-15.01 11.29,-20.24 1.67,-2.63 3.66,-4.12 5.96,-4.5 2.3,-0.37 4.39,0 6.27,1.13 1.88,1.12 3.14,2.71 3.76,4.75 0.63,2.05 0.31,4.37 -0.94,6.96 -3.34,6.09 -7.53,13.39 -12.54,21.89 -5.02,8.51 -10.56,17.05 -16.62,25.63 -6.06,8.58 -12.54,16.56 -19.44,23.95 -6.9,7.38 -14.11,12.6 -21.64,15.63 -5.44,2.47 -11.6,3.33 -18.5,2.56 -6.9,-0.77 -13.59,-2.7 -20.07,-5.8 -6.48,-3.1 -12.12,-7.3 -16.93,-12.6 -4.81,-5.31 -7.63,-11.48 -8.47,-18.53 -0.84,-9.56 0.63,-20.84 4.39,-33.86 3.76,-13.02 7.94,-24.5 12.54,-34.43 1.25,-3.02 1.57,-4.4 0.94,-4.14 -0.63,0.25 -1.57,1.26 -2.82,3.02 -10.03,12.83 -20.38,28.92 -31.04,48.28 -10.66,19.36 -20.38,38.96 -29.16,58.81 -8.78,19.85 -16.1,38.76 -21.95,56.73 -5.85,17.97 -9.2,32 -10.03,42.1 0,3.34 -0.73,5.38 -2.2,6.11 -1.46,0.73 -3.24,1.17 -5.33,1.32 -3.76,0.27 -7.94,-0.38 -12.54,-1.94 -4.6,-1.56 -8.88,-3.66 -12.86,-6.31 -3.97,-2.65 -7.32,-5.65 -10.03,-9.01 -2.72,-3.36 -4.08,-6.72 -4.08,-10.06zm203.82 -11.84c0,-17.56 1.57,-39.2 4.7,-64.93 3.14,-25.72 7.32,-52.78 12.54,-81.16 5.23,-28.38 11.08,-56.59 17.56,-84.65 6.48,-28.05 13.07,-53.29 19.75,-75.71 6.69,-22.42 13.07,-40.74 19.13,-54.97 6.06,-14.22 11.39,-21.5 15.99,-21.82 2.93,-0.21 7.53,0.41 13.8,1.85 6.27,1.44 12.33,3.21 18.19,5.3 5.85,2.1 11.08,4.45 15.68,7.05 4.6,2.6 6.9,5.16 6.9,7.67 0,1.25 -0.42,2.33 -1.25,3.22 -1.67,2.21 -3.14,4.09 -4.39,5.64 -1.25,1.55 -2.3,3.4 -3.14,5.55 -5.02,9.13 -10.14,20.99 -15.36,35.57 -5.23,14.58 -10.45,30.63 -15.68,48.14 -5.23,17.51 -10.35,36.27 -15.37,56.27 -5.02,20 -9.62,39.77 -13.8,59.29 4.6,-9.94 9.41,-19.79 14.42,-29.55 5.02,-9.76 10.66,-19.25 16.93,-28.47 6.27,-9.64 13.07,-17.96 20.38,-24.95 7.32,-7 14.95,-10.77 22.89,-11.33 6.69,-0.47 13.06,1.07 19.13,4.61 6.06,3.55 11.5,7.97 16.31,13.28 4.81,5.31 8.68,11.1 11.6,17.37 2.93,6.27 4.39,11.92 4.39,16.94 0,17.56 -3.14,36.28 -9.41,56.16 -6.27,19.88 -14.42,39.38 -24.46,58.48 14.63,-11.9 28.53,-26.36 41.7,-43.39 13.17,-17.02 24.14,-37.13 32.92,-60.33 1.25,-2.6 2.93,-4.28 5.02,-5.06 2.09,-0.77 4.18,-0.82 6.27,-0.13 2.09,0.69 3.76,2.03 5.02,4.04 1.25,2 1.25,4.3 0,6.9 -10.87,27.94 -25.82,53.24 -44.84,75.91 -19.02,22.66 -41.5,41.8 -67.42,57.43 -12.54,17.61 -25.5,32.21 -38.88,43.82 -13.38,11.6 -25.71,17.8 -37,18.6 -3.34,0.24 -7.11,-0.75 -11.29,-2.97 -4.18,-2.21 -7.53,-4.28 -10.03,-6.19 0,2.09 -0.1,4.4 -0.31,6.92 -0.21,2.52 -2.61,3.95 -7.21,4.27 -3.76,0.27 -8.05,-0.27 -12.86,-1.6 -4.81,-1.33 -9.3,-3.11 -13.48,-5.32 -4.18,-2.21 -7.73,-4.89 -10.66,-8.03 -2.93,-3.14 -4.39,-6.38 -4.39,-9.72zm121.04 -194.78c-12.54,19.7 -23.83,39.93 -33.86,60.71 -8.78,18.18 -16.2,36.68 -22.26,55.5 -6.06,18.82 -10.56,37.95 -13.48,57.39 5.85,-1.25 12.23,-2.74 19.13,-4.48 6.9,-1.74 14.11,-4.13 21.64,-7.17 5.85,-8.36 11.71,-18.59 17.56,-30.71 5.85,-12.12 11.08,-25.03 15.68,-38.73 4.6,-13.7 8.47,-27.88 11.6,-42.52 3.14,-14.64 5.12,-28.89 5.96,-42.75 0.42,-9.65 -1.67,-15.46 -6.27,-17.43 -4.6,-1.98 -9.83,1.42 -15.68,10.2zm166.19 202.15c-18.81,1.32 -34.18,-1.25 -46.09,-7.73 -11.92,-6.48 -20.8,-15.36 -26.65,-26.66 -5.85,-11.29 -9.2,-24.54 -10.03,-39.74 -0.84,-15.2 0.52,-30.77 4.08,-46.69 3.55,-15.93 8.68,-31.76 15.37,-47.49 6.69,-15.73 14.63,-29.77 23.83,-42.13 9.2,-12.35 19.13,-22.56 29.79,-30.63 10.66,-8.07 21.64,-12.5 32.92,-13.29 5.85,-0.41 12.65,0.89 20.38,3.89 7.73,3.01 14.95,7.21 21.64,12.59 6.69,5.38 12.33,11.46 16.93,18.25 4.6,6.78 6.9,13.52 6.9,20.21 0,14.63 -3.76,28.49 -11.29,41.56 -7.53,13.07 -17.14,24.73 -28.85,34.96 -11.71,10.23 -24.35,18.44 -37.94,24.62 -13.59,6.18 -26.44,9.7 -38.57,10.55 -0.84,16.78 1.57,30.83 7.21,42.14 5.64,11.31 15.78,16.45 30.42,15.42 12.54,-0.88 24.77,-7.39 36.69,-19.52 11.92,-12.13 23,-26.81 33.24,-44.05 10.24,-17.23 19.44,-35.34 27.59,-54.31 8.15,-18.97 14.95,-35.75 20.38,-50.35 0.84,-2.57 2.4,-4.24 4.7,-5.03 2.3,-0.79 4.39,-0.83 6.27,-0.13 1.88,0.7 3.45,2.06 4.7,4.06 1.25,2 1.25,4.3 0,6.9 -5.85,15.88 -13.27,34.59 -22.26,56.13 -8.99,21.54 -19.55,42.24 -31.67,62.12 -12.12,19.88 -25.71,36.93 -40.76,51.16 -15.05,14.23 -31.36,21.96 -48.92,23.2zm24.46 -216.83c-6.27,5.04 -12.23,11.84 -17.87,20.39 -5.64,8.55 -10.77,18 -15.37,28.36 -4.6,10.36 -8.47,21.29 -11.6,32.8 -3.14,11.51 -5.33,22.53 -6.58,33.07 8.36,-0.59 16.83,-4.11 25.4,-10.57 8.57,-6.46 16.31,-14.63 23.2,-24.52 6.9,-9.89 12.44,-21.05 16.62,-33.47 4.18,-12.42 6.27,-24.9 6.27,-37.44 0,-6.69 -2.2,-10.82 -6.58,-12.39 -4.39,-1.57 -8.88,-0.31 -13.48,3.77zm66.48 180.32c1.25,-16.39 3.55,-34.01 6.9,-52.85 3.34,-18.84 7.32,-37.73 11.92,-56.65 4.6,-18.93 9.72,-37.48 15.37,-55.64 5.64,-18.17 11.81,-35.01 18.5,-50.53 2.09,-5.58 5.02,-8.51 8.78,-8.77 2.93,-0.21 6.38,0.18 10.35,1.15 3.97,0.97 7.94,2.26 11.92,3.86 3.97,1.6 7.53,3.34 10.66,5.21 3.14,1.87 5.75,3.57 7.84,5.09 3.34,2.27 3.97,5.26 1.88,8.96 -2.09,3.7 -3.76,7.27 -5.02,10.7 -5.85,15.46 -11.39,31.95 -16.62,49.46 -5.23,17.51 -9.93,34.98 -14.11,52.42 5.44,-12.51 11.6,-25.48 18.5,-38.93 6.9,-13.45 14.11,-26.5 21.64,-39.15 7.53,-12.66 15.16,-24.27 22.89,-34.85 7.73,-10.58 15.36,-19.27 22.89,-26.07 2.93,-3.13 6.9,-4.88 11.92,-5.23 1.67,-0.12 4.18,0.12 7.53,0.72 3.34,0.6 7,1.49 10.98,2.68 3.97,1.18 7.73,2.59 11.29,4.22 3.55,1.63 6.59,3.61 9.09,5.94 4.18,3.89 5.44,7.46 3.76,10.71 -1.67,3.25 -4.18,6.25 -7.53,9 -10.87,9.96 -18.92,22.03 -24.15,36.19 -5.23,14.16 -8.26,26.71 -9.09,37.64 -0.42,7.97 0.63,13.65 3.14,17.03 2.51,3.38 5.44,4.95 8.78,4.71 6.69,-0.47 13.17,-3.64 19.44,-9.52 6.27,-5.88 12.12,-12.77 17.56,-20.68 5.44,-7.91 10.45,-16 15.05,-24.26 4.6,-8.27 8.36,-15.01 11.29,-20.24 1.67,-2.63 3.66,-4.12 5.96,-4.5 2.3,-0.37 4.39,0 6.27,1.13 1.88,1.12 3.14,2.71 3.76,4.75 0.63,2.05 0.31,4.37 -0.94,6.96 -3.34,6.09 -7.53,13.39 -12.54,21.89 -5.02,8.51 -10.56,17.05 -16.62,25.63 -6.06,8.58 -12.54,16.56 -19.44,23.95 -6.9,7.38 -14.11,12.6 -21.64,15.63 -5.44,2.47 -11.6,3.33 -18.5,2.56 -6.9,-0.77 -13.59,-2.7 -20.07,-5.8 -6.48,-3.1 -12.12,-7.3 -16.93,-12.6 -4.81,-5.31 -7.63,-11.48 -8.47,-18.53 -0.84,-9.56 0.63,-20.84 4.39,-33.86 3.76,-13.02 7.94,-24.5 12.54,-34.43 1.25,-3.01 1.57,-4.4 0.94,-4.14 -0.63,0.25 -1.57,1.26 -2.82,3.02 -10.03,12.83 -20.38,28.92 -31.04,48.28 -10.66,19.36 -20.38,38.96 -29.16,58.81 -8.78,19.85 -16.1,38.76 -21.95,56.73 -5.85,17.97 -9.2,32 -10.03,42.1 0,3.34 -0.73,5.38 -2.2,6.11 -1.46,0.73 -3.24,1.17 -5.33,1.32 -3.76,0.27 -7.94,-0.38 -12.54,-1.94 -4.6,-1.56 -8.88,-3.66 -12.86,-6.31 -3.97,-2.65 -7.32,-5.65 -10.03,-9.01 -2.72,-3.36 -4.08,-6.72 -4.08,-10.06z"/>
    <path class="fil3" d="M1911.67 3533.35c-2.1,0.39 -4.48,0.31 -7.16,-0.24 -2.68,-0.55 -5.18,-1.54 -7.51,-2.97 -2.33,-1.43 -4.31,-3.22 -5.94,-5.36 -1.63,-2.14 -2.45,-4.49 -2.45,-7.06 0,-6.29 1.86,-12.58 5.59,-18.86 3.73,-6.28 7.75,-12.39 12.06,-18.32 4.31,-5.93 8.33,-11.74 12.06,-17.44 3.73,-5.7 5.59,-11.23 5.59,-16.59 0,-3.96 -0.99,-7.45 -2.97,-10.45 -1.98,-3.01 -5.53,-4.04 -10.66,-3.08 -6.52,1.21 -13.51,4.61 -20.97,10.19 -7.45,5.58 -14.33,12.27 -20.62,20.08 -6.29,7.81 -11.47,16.11 -15.55,24.91 -4.08,8.79 -6.11,17.04 -6.11,24.72 0,7.45 1.98,13.08 5.94,16.89 3.96,3.81 8.85,6.74 14.68,8.8 5.82,2.06 12,3.59 18.52,4.59 6.52,1 12.35,2.3 17.47,3.91 8.85,2.78 15.9,7.41 21.14,13.89 5.24,6.48 6.81,15.16 4.72,26.03 -2.1,10.17 -6.17,19.55 -12.23,28.13 -6.06,8.58 -13.16,16.19 -21.31,22.83 -8.15,6.64 -17.01,12.07 -26.56,16.3 -9.55,4.22 -18.99,7.2 -28.3,8.93 -7.69,1.43 -15.03,1.57 -22.01,0.43 -6.99,-1.15 -12.99,-3.52 -18,-7.14 -5.01,-3.61 -8.68,-8.58 -11.01,-14.9 -2.33,-6.32 -2.56,-13.85 -0.7,-22.58 1.86,-8.5 5.24,-16.47 10.13,-23.9 0.93,-1.57 2.15,-3.31 3.67,-5.23 1.51,-1.91 3.2,-3.86 5.07,-5.83 1.86,-1.98 3.84,-3.69 5.94,-5.12 2.1,-1.44 4.08,-2.33 5.94,-2.68 2.33,-0.43 4.83,-0.26 7.51,0.52 2.68,0.78 5.18,1.95 7.51,3.49 2.33,1.55 4.37,3.32 6.11,5.33 1.75,2 2.97,3.99 3.67,5.96 0.23,1.12 0.35,2.26 0.35,3.43 0,1.16 -0.7,1.88 -2.1,2.14 -3.49,0.65 -7.11,2.2 -10.83,4.64 -3.73,2.38 -7.1,5.28 -10.13,8.64 -3.03,3.3 -5.53,6.91 -7.51,10.77 -1.98,3.8 -2.97,7.6 -2.97,11.27 0,3.26 0.82,5.73 2.45,7.52 1.63,1.79 3.67,3.04 6.11,3.7 2.45,0.71 5.13,1.09 8.04,1.13 2.91,0.04 5.65,-0.18 8.21,-0.65 5.13,-0.95 11.01,-2.86 17.65,-5.73 6.64,-2.86 12.93,-6.48 18.87,-10.85 5.94,-4.37 10.95,-9.32 15.03,-14.79 4.08,-5.53 6.11,-11.56 6.11,-18.08 0,-8.39 -4.54,-14.76 -13.63,-19.07 -6.99,-3.13 -14.33,-5.66 -22.01,-7.61 -7.69,-1.95 -14.85,-4.34 -21.49,-7.19 -6.64,-2.84 -12.35,-6.79 -17.12,-11.96 -4.78,-5.17 -7.86,-12.52 -9.26,-22.04 -1.4,-10.86 0.12,-22.38 4.54,-34.51 4.43,-12.06 10.89,-23.51 19.39,-34.3 8.5,-10.78 18.4,-20.02 29.7,-27.83 11.3,-7.81 23.12,-12.86 35.47,-15.16 9.78,-1.82 18.29,-1.48 25.51,1.02 7.22,2.5 12.35,7.2 15.37,14.09 2.56,1.62 4.54,3.76 5.94,6.41 1.4,2.65 2.1,5.26 2.1,7.82 0,6.29 -1.86,13.16 -5.59,20.61 -3.73,7.45 -7.75,14.95 -12.06,22.51 -4.31,7.56 -8.33,15.06 -12.06,22.51 -3.73,7.45 -5.59,14.32 -5.59,20.61 0,1.63 -0.58,2.55 -1.75,2.77zm87.7 64.75c1.63,-15.44 4.43,-31.92 8.39,-49.43 3.96,-17.51 8.62,-34.1 13.98,-49.77 -6.06,7.65 -11.94,16.2 -17.65,25.64 -5.71,9.45 -10.89,19.15 -15.55,29.1 -4.66,9.95 -8.74,19.85 -12.23,29.7 -3.49,9.85 -6.06,18.89 -7.69,27.11 -0.47,2.18 -0.81,4.4 -1.05,6.66 -0.23,2.26 -0.35,4.43 -0.35,6.53 0,2.8 -1.4,4.45 -4.19,4.97 -2.1,0.39 -4.48,0.37 -7.16,-0.07 -2.68,-0.43 -5.18,-1.13 -7.51,-2.1 -2.33,-0.96 -4.31,-2.23 -5.94,-3.79 -1.63,-1.56 -2.45,-3.27 -2.45,-5.14 0,-10.25 0.87,-22.7 2.62,-37.35 1.75,-14.65 4.08,-30.05 6.99,-46.2 2.91,-16.15 6.17,-32.19 9.78,-48.12 3.61,-15.93 7.28,-30.3 11.01,-43.1 3.73,-12.81 7.28,-23.31 10.66,-31.51 3.38,-8.2 6.35,-12.54 8.91,-13.01 1.63,-0.3 4.19,-0.26 7.69,0.14 3.49,0.4 6.87,0.99 10.13,1.78 3.26,0.79 6.17,1.76 8.74,2.92 2.56,1.15 3.84,2.43 3.84,3.83 0,0.7 -0.23,1.33 -0.7,1.88 -0.93,1.34 -1.75,2.48 -2.45,3.42 -0.7,0.95 -1.28,2.04 -1.75,3.3 -3.49,6.71 -7.05,15.58 -10.66,26.62 -3.61,11.04 -7.16,23.11 -10.66,36.23 -3.49,13.11 -6.81,26.72 -9.96,40.81 -3.15,14.1 -5.88,27.65 -8.21,40.66 6.52,-15.19 14.21,-29.9 23.06,-44.12 8.85,-14.23 18.05,-26.19 27.6,-35.88 1.86,-1.98 4.08,-3.21 6.64,-3.68 1.4,-0.26 3.38,-0.28 5.94,-0.06 2.56,0.22 5.18,0.72 7.86,1.51 2.68,0.78 5.01,1.75 6.99,2.89 1.98,1.15 2.97,2.53 2.97,4.17 0,0.7 -0.12,1.36 -0.35,1.99 -0.23,0.63 -0.47,1.31 -0.7,2.05 -0.7,1.53 -1.4,3.05 -2.1,4.58 -0.7,1.53 -1.28,3.15 -1.75,4.87 -2.8,7.97 -5.47,16.33 -8.04,25.08 -2.56,8.75 -4.89,17.39 -6.99,25.93 -2.1,8.54 -3.96,16.75 -5.59,24.63 -1.63,7.87 -3.03,14.95 -4.19,21.22 -0.7,5.49 1.05,5.98 5.24,1.47 5.12,-6.31 10.02,-13.57 14.68,-21.77 4.66,-8.2 8.97,-16.63 12.93,-25.29 3.96,-8.66 7.51,-17.12 10.66,-25.39 3.15,-8.27 5.88,-15.65 8.21,-22.14 0.47,-1.48 1.34,-2.58 2.62,-3.28 1.28,-0.7 2.45,-0.92 3.49,-0.65 1.05,0.27 1.92,0.92 2.62,1.96 0.7,1.04 0.7,2.32 0,3.84 -1.63,4.26 -3.73,9.89 -6.29,16.89 -2.56,7 -5.59,14.61 -9.09,22.83 -3.49,8.22 -7.34,16.57 -11.53,25.03 -4.19,8.47 -8.62,16.22 -13.28,23.26 -4.66,7.04 -9.49,13.01 -14.5,17.9 -5.01,4.89 -9.96,7.79 -14.85,8.7 -3.03,0.56 -5.77,0.37 -8.21,-0.57 -2.45,-0.94 -4.54,-2.42 -6.29,-4.42 -1.75,-2 -3.03,-4.33 -3.84,-6.97 -0.81,-2.64 -0.99,-5.41 -0.52,-8.29zm90.85 -17.59c1.4,-0.73 2.56,-1.17 3.49,-1.35 3.96,-1.2 7.34,-2.41 10.13,-3.63 2.8,-1.22 6.17,-2.78 10.13,-4.68 3.03,-4.99 5.94,-10.89 8.74,-17.7 2.8,-6.81 5.18,-13.78 7.16,-20.9 1.98,-7.12 3.55,-14.17 4.72,-21.14 1.17,-6.97 1.75,-13.25 1.75,-18.84 0,-5.82 -0.7,-10.18 -2.1,-13.06 -1.4,-2.88 -3.32,-4.45 -5.77,-4.69 -2.45,-0.24 -5.18,0.61 -8.21,2.58 -3.03,1.96 -6.06,4.97 -9.08,9.03 -4.89,6.5 -9.2,14.23 -12.93,23.2 -3.73,8.96 -6.52,17.99 -8.39,27.07 -1.86,9.08 -2.8,17.64 -2.8,25.68 0,8.04 1.05,14.19 3.14,18.46zm13.98 -116.86c3.96,-2.6 8.21,-3.86 12.75,-3.77 4.54,0.09 8.56,1.09 12.06,3 5.36,-1 10.48,-1.08 15.37,-0.24 4.89,0.84 9.14,2.32 12.75,4.44 3.61,2.13 6.46,4.85 8.56,8.19 2.1,3.34 3.15,6.99 3.15,10.95 0,7.92 -0.87,16.24 -2.62,24.95 -1.75,8.71 -4.25,17.33 -7.51,25.86 7.69,-8.19 14.62,-17.1 20.79,-26.75 6.17,-9.65 11.24,-19.74 15.2,-30.26 0.7,-1.53 1.63,-2.57 2.8,-3.14 1.17,-0.57 2.33,-0.72 3.49,-0.47 1.16,0.25 2.04,0.9 2.62,1.96 0.58,1.06 0.64,2.33 0.17,3.81 -11.41,29.84 -29.58,54.89 -54.51,75.13 -6.52,11.93 -14.21,22.15 -23.06,30.67 -8.85,8.52 -18.52,13.75 -29,15.7 -6.29,1.17 -11.94,0.82 -16.95,-1.04 -5.01,-1.86 -9.2,-4.64 -12.58,-8.32 -3.38,-3.68 -6,-7.85 -7.86,-12.51 -1.86,-4.66 -2.8,-9.32 -2.8,-13.98 0,-8.62 1.11,-17.91 3.32,-27.87 2.21,-9.96 5.3,-19.74 9.26,-29.33 3.96,-9.59 8.85,-18.48 14.68,-26.67 5.82,-8.19 12.46,-14.95 19.92,-20.3zm59.75 195.74c0,-9.78 0.7,-21.97 2.1,-36.55 1.4,-14.59 3.32,-29.91 5.77,-45.97 2.5,-16.07 5.24,-32.07 8.27,-48.01 3.03,-15.94 6.11,-30.31 9.26,-43.13 3.15,-12.81 6.23,-23.35 9.32,-31.61 3.03,-8.25 5.82,-12.61 8.39,-13.09 1.63,-0.3 4.19,-0.26 7.69,0.14 3.55,0.39 6.93,0.98 10.19,1.77 3.26,0.79 6.17,1.82 8.74,3.09 2.56,1.27 3.84,2.61 3.84,4 0,0.23 -0.23,0.86 -0.7,1.88 -0.7,1.06 -1.46,2.08 -2.27,3.04 -0.81,0.97 -1.46,2.08 -1.92,3.33 -2.1,4.12 -4.13,8.86 -6.11,14.24 -1.98,5.38 -3.9,11.38 -5.76,18.02 3.49,-7.17 7.22,-14.21 11.18,-21.12 3.96,-6.91 8.04,-13.67 12.29,-20.28 3.49,-5.31 7.22,-9.9 11.18,-13.78 3.96,-3.88 7.98,-6.2 11.94,-6.94 3.73,-0.69 7.34,-0.32 10.83,1.13 3.49,1.45 6.58,3.44 9.14,5.99 2.56,2.55 4.66,5.48 6.29,8.79 1.63,3.31 2.45,6.36 2.45,9.15 0,9.78 -1.98,20.46 -6,32.04 -4.02,11.58 -8.74,23 -14.15,34.25 8.15,-7.57 15.84,-16.52 23.06,-26.83 7.22,-10.31 13.39,-22.23 18.52,-35.77 0.7,-1.53 1.63,-2.57 2.8,-3.14 1.16,-0.57 2.33,-0.72 3.49,-0.47 1.17,0.25 2.04,0.9 2.62,1.96 0.58,1.06 0.64,2.33 0.17,3.81 -6.06,16.27 -14.44,31.34 -25.16,45.21 -10.72,13.87 -23.29,26 -37.85,36.39 -6.76,10.57 -13.92,19.54 -21.43,26.87 -7.57,7.35 -14.38,11.59 -20.44,12.71 -4.66,0.87 -8.68,0.97 -12.06,0.32 -3.32,-0.66 -5.94,-1.75 -7.8,-3.27 -1.69,9.4 -3.14,18.52 -4.43,27.38 -1.28,8.86 -2.39,17.16 -3.38,24.91 -0.93,7.74 -1.63,14.69 -2.1,20.83 -0.47,6.14 -0.7,11.08 -0.7,14.81 0,2.8 -1.4,4.45 -4.19,4.97 -2.1,0.39 -4.48,0.37 -7.16,-0.07 -2.68,-0.43 -5.18,-1.13 -7.51,-2.1 -2.33,-0.96 -4.31,-2.23 -5.94,-3.79 -1.63,-1.56 -2.45,-3.27 -2.45,-5.14zm88.75 -205.89c-11.12,15.35 -20.5,31.48 -28.07,48.37 -7.57,16.9 -13.63,33.92 -18.29,51.1 -0.47,1.48 -0.76,2.88 -0.87,4.18 -0.12,1.3 -0.41,2.7 -0.87,4.18 2.33,-1.83 5.36,-3.33 9.08,-4.48 2.8,-0.75 5.82,-1.9 9.2,-3.46 3.38,-1.56 6.93,-3.27 10.66,-5.13 3.26,-5.03 6.64,-11.14 10.13,-18.31 3.49,-7.17 6.58,-14.74 9.38,-22.71 2.8,-7.97 5.12,-16.15 6.99,-24.54 1.86,-8.38 3.03,-16.46 3.49,-24.23 0,-7.22 -1.75,-10.27 -5.24,-9.16 -2.1,0.39 -3.96,1.78 -5.59,4.18z"/>
   </g>
  </g>
 </g>
</svg>
