<svg width="94" height="87" viewBox="0 0 94 87" fill="none" xmlns="http://www.w3.org/2000/svg">
<path d="M34.925 21.6657C34.9252 21.6654 34.9255 21.665 34.9257 21.6646C34.9257 21.665 34.9255 21.6657 34.9255 21.6664C34.9209 21.6724 34.9206 21.6723 34.925 21.6657Z" fill="black"/>
<path d="M35.0128 20.1514C35.1433 20.0382 35.1965 19.9141 35.2549 19.772C35.3331 20.074 35.3009 20.3538 35.2396 20.7244C35.1811 21.0801 35.151 21.3844 34.9262 21.6646C34.9814 21.506 34.9765 21.3062 34.8959 21.1542C34.7631 20.904 34.4155 20.6712 34.6733 20.3717C34.7591 20.2724 34.9104 20.2404 35.0128 20.1514Z" fill="black"/>
<path d="M33.0203 21.0423C33.2631 21.2011 33.2954 21.4072 33.5582 21.5222C33.7376 21.6006 33.8522 21.4994 34.2747 21.7301C33.9889 21.7474 33.1158 21.6679 32.8138 21.6409C32.2868 21.5934 31.7538 21.5584 31.2248 21.4963C31.0243 21.4728 30.8735 21.3133 30.8745 21.1237C30.877 20.5883 30.9027 19.5159 30.9421 19.2549C31.0551 20.1374 31.2138 20.4381 31.3942 20.6423C31.6339 20.9145 31.9429 21.0355 32.2868 20.9359C32.569 20.8539 32.7651 20.8754 33.0203 21.0423Z" fill="black"/>
<path d="M30.2472 21.3609C29.4645 21.3103 27.6868 21.1925 27.6764 21.1681C27.6629 21.1368 27.8202 19.423 27.8202 19.423C28.0963 20.0346 27.952 20.4146 29.2444 20.3665C30.5008 20.3195 30.1775 19.88 30.7032 19.3711L30.6257 21.0425C30.617 21.2299 30.4461 21.3737 30.2473 21.3608L30.2472 21.3609Z" fill="black"/>
<path d="M28.2827 19.4959C28.1783 19.4975 28.0925 19.4223 28.0908 19.3281C28.0893 19.234 28.1727 19.1561 28.277 19.1548C28.3816 19.1532 28.4673 19.2285 28.4687 19.3227C28.4702 19.4169 28.387 19.4945 28.2826 19.4959H28.2827Z" fill="black"/>
<path d="M67.0381 78.9554C68.3302 78.6247 69.5961 78.1965 70.8043 77.6779C72.2578 77.0543 73.6744 76.2488 74.7518 75.1809C75.0254 74.9101 75.2811 74.6123 75.5032 74.2952C75.6115 74.6972 74.7658 76.0026 75.0746 76.5371C75.3635 77.037 75.7659 77.3119 76.9301 76.9774C76.4754 77.4084 75.9674 77.7987 75.4415 78.1503C74.4527 78.8112 73.37 79.3616 72.2441 79.8309C71.5356 79.4945 70.5144 79.4337 69.7757 79.4686C68.6244 79.5229 66.549 79.831 65.7573 79.2586C66.1864 79.165 66.6132 79.0641 67.0382 78.9554H67.0381Z" fill="black"/>
<path d="M61.9257 79.8998C62.1058 79.8782 62.5036 79.7547 62.671 79.8174C62.8048 79.8671 62.9023 80.0638 63.0176 80.1604C64.0965 81.0657 65.441 80.8733 66.0991 81.687C66.0526 81.6029 64.6725 81.9251 64.5435 81.9462C62.8622 82.2216 61.1606 82.4 59.4537 82.4973C58.4035 81.2004 56.4794 81.3929 56.7286 80.225C58.4676 80.2027 60.202 80.1055 61.9259 79.8997L61.9257 79.8998Z" fill="black"/>
<path d="M59.195 57.9404C59.675 57.9404 60.0641 58.3066 60.0641 58.7582C60.0641 58.7953 60.0606 58.8314 60.0555 58.8668C59.9745 58.5507 59.6729 58.3157 59.3121 58.3157C58.8893 58.3157 58.5467 58.6384 58.5467 59.0363C58.5467 59.1661 58.5837 59.2878 58.6475 59.3929C58.4514 59.2431 58.3262 59.0145 58.3262 58.7582C58.3262 58.3066 58.7153 57.9404 59.195 57.9404Z" fill="black"/>
<path d="M68.8581 74.2767C69.7576 74.5122 70.4139 74.8714 70.8844 75.2331C71.3102 75.5598 71.2425 76.1554 70.7443 76.3914C69.984 76.7519 68.8976 77.2088 67.9983 77.4081C68.8139 76.6767 68.0097 75.7285 67.5356 75.4061C65.4823 74.0111 59.9522 73.5934 60.878 70.7935C60.7744 73.1443 65.7494 73.4628 68.8581 74.2765V74.2767Z" fill="black"/>
<path d="M71.6134 80.1032C71.6134 80.1032 70.5167 80.4932 69.7893 80.7096C69.558 80.4353 69.2272 80.2045 68.2021 79.9735C70.4506 79.6123 71.6134 80.1032 71.6134 80.1032Z" fill="black"/>
<path d="M55.3666 82.4974L53.4441 82.4598C53.4441 82.4598 51.9279 81.0875 51.9507 80.0798C53.2066 81.2788 55.3666 82.4974 55.3666 82.4974H55.3666Z" fill="black"/>
<path d="M1.24099 68.7852C1.29616 68.7102 1.35504 68.6204 1.41239 68.5225C1.47083 68.4244 1.52817 68.3185 1.5803 68.2104C1.63254 68.1024 1.67924 67.9924 1.71918 67.8877C1.75934 67.7832 1.79206 67.6839 1.81568 67.5972C1.86519 67.4244 1.87664 67.3012 1.87664 67.3012C1.87664 67.3012 1.78359 67.3945 1.67629 67.5457C1.62144 67.6209 1.56278 67.7106 1.5051 67.8088C1.44688 67.9068 1.38889 68.0126 1.33676 68.1205C1.28442 68.2287 1.23748 68.3387 1.19754 68.4431C1.15717 68.5476 1.12465 68.6469 1.10126 68.7339C1.05174 68.9064 1.04043 69.0295 1.04043 69.0295C1.04043 69.0295 1.13358 68.9368 1.24099 68.7852V68.7852ZM84.8202 16.7409C84.0253 18.4498 83.3774 20.209 82.8214 21.9874C82.6548 22.5205 82.4984 23.0555 82.344 23.5912C82.6346 23.6295 82.9251 23.6683 83.2141 23.7071C83.494 22.3912 83.7979 21.0799 84.1716 19.7811C84.6727 18.0392 85.3032 16.3264 86.0585 14.6559C86.3903 13.9214 86.7499 13.198 87.1156 12.4763C86.2816 13.8706 85.4985 15.283 84.8201 16.7409H84.8202ZM84.1207 15.5397C83.3188 17.151 82.624 18.7989 82.0116 20.4722C81.6551 21.4467 81.3305 22.4303 81.0256 23.4184C81.1154 23.4299 81.2055 23.4416 81.2957 23.4535C81.5371 22.6728 81.792 21.8953 82.0676 21.1234C82.6721 19.4298 83.3718 17.7629 84.1181 16.1137C84.8073 14.591 85.548 13.0731 86.4166 11.6209C86.4763 11.5213 86.5353 11.421 86.5944 11.3212C85.6449 12.669 84.8426 14.0893 84.1207 15.5398V15.5397ZM82.0059 16.7026C81.2461 18.1397 80.554 19.613 79.9786 21.1145C79.7149 21.8027 79.4612 22.494 79.2246 23.1897C79.5058 23.2248 79.7935 23.2609 80.086 23.2979C80.2319 22.8189 80.3828 22.3409 80.546 21.8661C81.0612 20.3659 81.6106 18.8779 82.2212 17.405C82.7765 16.0661 83.382 14.7437 84.0596 13.4482C84.1083 13.3552 84.156 13.2621 84.2043 13.1689C83.3781 14.301 82.6504 15.4837 82.006 16.7024L82.0059 16.7026ZM82.0789 9.21427C81.483 9.3343 80.9289 9.80754 80.7622 10.3201C81.1468 9.9422 81.6175 9.57271 82.1971 9.45449C82.7208 9.34786 83.2556 9.28154 83.7817 9.18413C83.2408 9.07522 82.6167 9.10632 82.0789 9.21427ZM80.6182 6.72033C80.8852 7.13486 81.423 5.24236 81.7788 4.33575C82.1349 3.42914 82.7029 2.46882 82.4648 2.27733C82.2022 2.06578 81.382 2.99579 80.977 4.07051C80.5034 5.32761 80.3512 6.30606 80.6182 6.72041V6.72033ZM80.4885 3.29173C80.0189 4.25498 79.6279 5.3295 79.613 6.38493C79.606 6.87178 79.6871 7.37615 80.0506 7.76246C79.8071 7.40961 79.7542 7.00353 79.771 6.59764C79.792 6.08779 79.9168 5.5801 80.0671 5.08859C80.2246 4.57342 80.4178 4.06473 80.6373 3.56714C80.8418 3.10357 81.0619 2.63313 81.3899 2.2242C81.7048 1.83096 82.1144 1.55707 82.6577 1.46479C81.5048 1.49758 80.8896 2.46901 80.4885 3.29161V3.29173ZM79.1527 3.89051C78.726 5.00828 78.4473 5.86349 79.208 7.0476C79.0339 6.47208 79.0751 5.4389 79.4223 4.43431C79.7695 3.42972 80.233 2.37856 80.977 1.74317C80.977 1.74317 79.7314 2.37456 79.1527 3.89043V3.89051ZM79.4668 9.5006C79.7403 9.35757 80.0544 9.29788 80.3424 9.18413C79.5729 8.99901 78.8015 9.42371 78.6209 10.0947C78.9119 9.90353 79.1515 9.66548 79.4668 9.5006ZM77.6178 15.0324C76.8313 16.6456 76.1428 18.2928 75.5374 19.9644C75.2119 20.8636 74.9091 21.7675 74.6248 22.6764C74.6902 22.6821 74.7531 22.6877 74.8207 22.6937L75.1013 22.7187C75.113 22.7196 75.1261 22.721 75.1382 22.722C75.333 22.0953 75.5337 21.4705 75.7513 20.8509C76.3539 19.1345 76.9491 17.4187 77.656 15.7321C77.977 14.9658 78.3126 14.206 78.6588 13.4482C78.9677 12.7718 79.3043 12.1059 79.6357 11.4377C79.6551 11.399 79.6743 11.3601 79.6935 11.3212C79.3928 11.809 79.0764 12.2918 78.7955 12.7884C78.3783 13.5262 77.9869 14.2754 77.6178 15.0322V15.0324ZM76.6672 9.75214C76.9109 9.6266 77.1273 9.47295 77.3847 9.36584C77.6158 9.26976 77.8677 9.20506 78.0817 9.07952C77.5083 8.94334 76.782 9.20522 76.6672 9.75214ZM74.868 12.6781C74.4443 13.4459 74.0351 14.2155 73.6494 14.9984C72.8281 16.6651 72.1621 18.3835 71.5341 20.1117C71.2226 20.9685 70.9474 21.8365 70.6898 22.7081C70.8805 22.6571 71.0737 22.6172 71.2742 22.5884C71.4514 22.0065 71.6325 21.4254 71.8192 20.8454C72.3799 19.1021 73.0156 17.3737 73.7155 15.6693C74.3311 14.17 75.0318 12.7035 75.7614 11.2446C75.7812 11.205 75.8013 11.1656 75.821 11.1257C75.5 11.6408 75.1594 12.15 74.8681 12.6783L74.868 12.6781ZM75.0508 9.3857C75.3169 9.26349 75.6141 9.13357 75.8027 8.92145C75.4894 8.79744 74.9492 9.04862 75.0508 9.3857ZM73.2509 9.31168C73.5171 9.18947 73.8145 9.05955 74.0029 8.84743C73.6894 8.72322 73.1494 8.97451 73.2509 9.31168ZM71.7678 14.7724C70.993 16.3353 70.3482 17.9435 69.7554 19.5651C69.3672 20.627 69.0282 21.7016 68.7149 22.7817C68.9048 22.7985 69.0816 22.8145 69.2416 22.829C69.4957 21.9795 69.762 21.1333 70.0331 20.2878C70.5597 18.647 71.1684 17.018 71.8375 15.4174C72.4425 13.9703 73.1187 12.5531 73.8268 11.143C73.8462 11.1046 73.8654 11.0662 73.8845 11.0279C73.5789 11.5146 73.2519 11.996 72.9745 12.4954C72.5559 13.2492 72.1488 14.0035 71.7678 14.7724ZM71.4007 9.3857C71.7245 9.1848 72.1095 9.01831 72.3928 8.77341C71.9779 8.66279 71.3476 8.96661 71.4007 9.3857ZM69.8663 14.5864C69.0899 16.1439 68.4468 17.7458 67.8536 19.3624C67.4606 20.4338 67.1239 21.5195 66.8118 22.6104C66.9888 22.6264 67.1637 22.6422 67.3357 22.6577C67.5925 21.7804 67.8627 20.9062 68.1492 20.0358C68.6838 18.4112 69.2721 16.7944 69.9421 15.2083C70.5386 13.7964 71.2005 12.4126 71.8949 11.0359C71.9127 11.0006 71.9306 10.9653 71.9484 10.9301C71.6487 11.4047 71.3268 11.8734 71.0546 12.3606C70.6428 13.0976 70.2411 13.8346 69.8664 14.5866L69.8663 14.5864ZM69.3934 9.46533C69.6293 9.30054 69.8375 9.12863 70.1099 9.00661C70.352 8.89808 70.6147 8.82205 70.8445 8.69337C70.2364 8.5628 69.4517 8.87311 69.3934 9.46526V9.46533ZM70.0404 2.07739C69.8178 2.43623 69.6412 2.81721 69.4828 3.20048C69.3165 3.60304 69.1653 4.01047 69.0225 4.41968C68.8798 4.82927 68.7577 5.24065 68.7399 5.67096C68.7228 6.08198 68.7893 6.50337 69.0315 6.86154C68.7212 6.16628 68.9146 5.36714 69.1777 4.68518C69.4841 3.8908 69.767 3.08368 70.1177 2.30346C70.2796 1.94319 70.4612 1.57639 70.7509 1.27904C70.4421 1.49058 70.2256 1.7786 70.0404 2.07739ZM67.3981 9.52016C67.6894 9.32924 67.9287 9.09099 68.2442 8.92621C68.5176 8.78318 68.8316 8.72349 69.1198 8.60974C68.3501 8.42452 67.5788 8.84932 67.3981 9.52016ZM66.0328 14.2764C65.2734 15.7809 64.6555 17.3301 64.0739 18.8926C63.6619 19.9991 63.31 21.1276 62.9961 22.2615C63.1598 22.277 63.3418 22.2939 63.5387 22.3124C63.8004 21.4045 64.0742 20.4995 64.3605 19.5961C64.8598 18.0191 65.4621 16.4652 66.0941 14.9251C66.6632 13.5383 67.3357 12.1877 68.0207 10.8424C68.039 10.8064 68.0573 10.7702 68.0759 10.7343C67.7803 11.1963 67.4632 11.6525 67.1948 12.1267C66.7917 12.8384 66.3994 13.5501 66.0329 14.2765L66.0328 14.2764ZM65.1825 9.63936C65.4816 9.40805 65.7549 9.17376 66.1039 8.99681C66.4373 8.82794 66.7951 8.72112 67.1565 8.61041C66.3364 8.40951 65.3763 8.92414 65.1825 9.63936ZM63.1518 8.61984C62.6017 8.70365 61.967 9.01081 61.7158 9.46526C62.1542 9.16562 62.6974 8.96308 63.2409 8.86681C63.7423 8.77805 64.248 8.70819 64.747 8.60974C64.2312 8.50131 63.6684 8.54105 63.1518 8.61984ZM60.2659 10.3078C59.7951 10.9765 59.4044 11.6868 59.0462 12.4059C58.277 13.9504 57.6535 15.5476 57.0832 17.1551C56.4889 18.8298 55.9471 20.5194 55.4353 22.2146C54.9378 23.8632 54.4872 25.5237 54.1289 27.1999C53.8142 28.6723 53.5567 30.1516 53.3786 31.6413C53.3739 31.6813 53.3691 31.721 53.3645 31.761C53.5911 30.4552 53.8658 29.1543 54.1617 27.8595C54.5338 26.233 54.9597 24.6144 55.4191 23.0049C55.8962 21.3322 56.428 19.6718 57.0015 18.0221C57.5596 16.4168 58.1545 14.8191 58.8401 13.2515C59.1685 12.501 59.5235 11.7576 59.9298 11.0363C60.3001 10.3799 60.7172 9.69874 61.3012 9.16579C61.4084 9.068 61.5239 8.97925 61.6459 8.89543C61.0642 9.25855 60.6366 9.78123 60.2658 10.3077L60.2659 10.3078ZM43.6745 32.7867C40.8064 32.9004 37.9325 33.0299 35.0778 33.3039C34.3438 33.3743 33.6101 33.4545 32.8845 33.5745C32.5993 33.6215 32.3149 33.6743 32.035 33.7421C31.7637 33.8078 31.4854 33.8855 31.2596 34.0367C31.6827 33.7792 32.2763 33.7186 32.7748 33.6487C33.4469 33.5547 34.1252 33.4917 34.8025 33.4362C36.2674 33.3158 37.738 33.237 39.2069 33.161C42.1723 33.008 45.1397 32.8748 48.1066 32.7434C49.0313 32.7024 49.9561 32.6613 50.8808 32.6204C48.4775 32.629 46.0757 32.6915 43.6746 32.7866L43.6745 32.7867ZM31.2974 39.4934C31.3901 38.8233 31.3825 38.1459 31.5501 37.4839C31.6379 37.1383 31.7934 36.8127 32.0059 36.5117C32.1809 36.2636 32.409 36.0631 32.6109 35.8343C30.8901 36.2747 30.9679 38.2755 31.2974 39.4934ZM29.5423 39.0361C29.6347 38.3635 29.6269 37.6833 29.7971 37.0192C29.8854 36.6729 30.0409 36.3461 30.2578 36.0462C30.4368 35.7989 30.6687 35.6022 30.8774 35.3768C29.1326 35.7887 29.2141 37.8195 29.5423 39.036L29.5423 39.0361ZM27.8336 38.5788C27.9263 37.9037 27.9185 37.2208 28.0901 36.5546C28.1792 36.2077 28.3348 35.8792 28.5561 35.5807C28.7392 35.3341 28.9746 35.1416 29.19 34.9196C27.4214 35.3024 27.5064 37.3641 27.8335 38.5788H27.8336ZM24.8701 44.0267C24.2762 43.7672 23.6398 43.563 23.2885 43.0382C22.9408 42.5188 22.8631 41.8827 22.8215 41.2934C22.749 40.2707 22.7943 39.2445 22.7592 38.2208C22.7572 38.1614 22.7549 38.1022 22.7524 38.043C22.7461 38.8337 22.6856 39.623 22.6551 40.4131C22.6315 41.0264 22.6188 41.6506 22.7378 42.2575C22.8518 42.8391 23.1123 43.4151 23.6767 43.7721C23.957 43.9493 24.2819 44.08 24.5844 44.2248C24.9008 44.3763 25.217 44.5283 25.5376 44.6733C26.2004 44.9729 26.865 45.2696 27.5358 45.5555C28.358 45.9059 29.1851 46.2465 30.0149 46.5819C30.0156 46.5846 30.0162 46.5872 30.0171 46.5897C30.02 46.5887 30.0225 46.5875 30.0256 46.5864C30.5284 46.7895 31.0313 46.9927 31.5378 47.1894C32.2948 47.4838 33.0572 47.7681 33.8222 48.0469C33.8245 48.0505 33.826 48.0545 33.8283 48.0583C33.8316 48.0565 33.8344 48.0545 33.8377 48.0525C34.4611 48.2793 35.0864 48.5029 35.7135 48.7228C35.7206 48.7333 35.726 48.744 35.7333 48.7544C35.7409 48.7489 35.7485 48.7433 35.7565 48.7379C36.3683 48.9526 36.9816 49.1644 37.5953 49.3751C37.61 49.3949 37.6216 49.4153 37.6377 49.4344C37.6507 49.4241 37.6633 49.4135 37.6764 49.4032C38.2808 49.6105 38.8857 49.817 39.4901 50.0237C39.5074 50.0441 39.5227 50.0649 39.541 50.0851C39.553 50.0744 39.5649 50.0636 39.5768 50.0532C39.6891 50.0914 39.8015 50.1297 39.914 50.1682C40.4101 50.3377 40.9068 50.5054 41.4036 50.6729C41.4176 50.6877 41.429 50.7028 41.4436 50.7177C41.4514 50.7097 41.4592 50.7022 41.4668 50.6944C42.3492 50.992 43.2324 51.2865 44.1203 51.5713C45.5055 52.0156 46.8886 52.4775 48.2967 52.8645C49.6921 53.2482 51.1509 53.3234 52.5969 53.1557C53.6824 53.0298 54.7423 52.7787 55.783 52.4845L55.8321 52.3429C53.8521 52.6838 51.8505 52.9903 49.8351 52.6978C49.1138 52.5933 48.4313 52.3963 47.7466 52.1786C47.067 51.9623 46.3871 51.7476 45.7075 51.5321C44.9917 51.3045 44.2763 51.0765 43.5611 50.8472C43.5289 50.8234 43.4976 50.8013 43.4803 50.7833C43.3613 50.6599 43.2804 50.5149 43.2139 50.3653C43.0593 50.0172 43.0013 49.635 42.9587 49.2657C42.9173 48.9046 42.8935 48.5422 42.8726 48.1796C42.8571 47.9046 42.8404 47.6295 42.8241 47.3546C42.7745 48.0093 42.7105 48.6644 42.6998 49.3207C42.6933 49.7082 42.709 50.107 42.8203 50.4837C42.835 50.5332 42.8546 50.5784 42.8726 50.6248C42.4591 50.4915 42.0457 50.3584 41.6329 50.224C41.2375 49.8023 41.1689 49.1852 41.111 48.6606C41.0501 48.1116 41.0249 47.5591 40.9889 47.0084C40.9411 47.6132 40.8812 48.218 40.868 48.8244C40.86 49.1943 40.8726 49.5745 40.9744 49.9357C40.982 49.9636 40.9935 49.989 41.0024 50.016C40.5858 49.879 40.1701 49.741 39.7548 49.6015C39.4074 49.203 39.3374 48.6454 39.2797 48.161C39.2185 47.6488 39.1911 47.1333 39.1542 46.6195C39.1065 47.1889 39.0475 47.7591 39.0357 48.3302C39.0281 48.6722 39.0411 49.021 39.1306 49.3553C39.1344 49.3696 39.1403 49.3824 39.1445 49.3963C38.7207 49.2524 38.2978 49.1062 37.875 48.96C37.5778 48.5872 37.5065 48.0924 37.449 47.6508C37.387 47.1733 37.3571 46.693 37.3192 46.214C37.273 46.7338 37.2171 47.2538 37.2038 47.7752C37.1955 48.1097 37.21 48.4443 37.297 48.7611C36.8663 48.6109 36.4367 48.4568 36.0073 48.304C35.7548 47.9629 35.6792 47.5322 35.6219 47.1355C35.5569 46.6859 35.5241 46.2328 35.4842 45.781C35.4377 46.2729 35.3821 46.765 35.3707 47.259C35.3641 47.5455 35.3775 47.8301 35.4428 48.1036C35.0064 47.9468 34.5706 47.7878 34.1349 47.6285C33.9127 47.2963 33.8392 46.8949 33.7821 46.5182C33.7223 46.125 33.688 45.7292 33.6492 45.3341C33.605 45.7696 33.5552 46.2049 33.54 46.642C33.5309 46.9077 33.539 47.1723 33.5898 47.429C33.411 47.3634 33.2316 47.2991 33.0531 47.233C32.7979 47.1382 32.5429 47.0436 32.2876 46.9486C32.0931 46.6423 32.0145 46.2871 31.9557 45.9424C31.893 45.5767 31.8551 45.2081 31.8142 44.8401C31.7472 45.4534 31.6263 46.122 31.7398 46.745C31.2968 46.58 30.8545 46.4146 30.4125 46.248C30.0978 45.6769 30.0576 44.9924 29.9795 44.3746C29.914 44.9228 29.8215 45.497 29.8903 46.0512C29.4479 45.8831 29.0062 45.7128 28.5653 45.5413C28.3075 45.003 28.229 44.4094 28.1445 43.8352C28.079 44.333 28.012 44.8387 28.0488 45.3397C26.9808 44.9187 25.9194 44.4845 24.8701 44.0268V44.0267ZM23.7983 33.9665C23.2901 34.437 22.9456 35.0425 22.8012 35.6446C22.7138 36.0079 22.7194 36.3924 22.7194 36.7703C22.7537 36.4095 22.9005 35.9429 23.1158 35.6248C23.3239 35.3183 23.569 35.0282 23.9236 34.9194C24.2713 34.8128 24.6285 34.7165 24.7886 34.4134C24.9519 34.105 24.7305 33.9595 25.0061 33.6716C25.2509 33.4155 25.9041 33.28 26.2105 33.0684C25.3297 33.1367 24.1492 33.6415 23.7983 33.9665ZM60.4237 59.8436C60.4075 59.8593 60.3915 59.8751 60.3746 59.8902V69.5923C60.2322 69.7553 60.1312 69.9318 59.9772 70.0233V60.1575C59.7817 60.2528 59.5638 60.3129 59.3326 60.3302L58.8608 67.1006L58.2475 60.0672C58.2438 60.0647 58.2398 60.0617 58.2361 60.0594C58.1738 60.131 58.1124 60.2042 58.0507 60.278C58.0507 60.4618 58.0507 60.6458 58.0507 60.8296C58.0507 61.6406 58.0507 62.4516 58.0507 63.2623C58.0507 64.0495 58.0507 64.8368 58.0507 65.6239C58.0507 66.3251 58.0507 67.0267 58.0507 67.7279C58.0507 68.2815 58.0507 68.8348 58.0507 69.3885C58.0507 69.5904 58.0536 69.7924 58.0507 69.9947C58.0434 70.5599 58.6625 70.496 59.0347 70.4445C58.1935 70.7437 57.1719 70.7777 56.733 70.7931V62.398C56.4375 63.1162 56.243 63.9375 56.2156 64.9046V70.8022C54.7966 70.7981 53.8215 70.5282 53.1651 70.2142C53.1453 70.291 53.1259 70.3662 53.1069 70.4407C53.7248 70.7763 54.714 71.0939 56.2488 71.0939C60.0644 71.0939 60.6813 69.588 60.7458 69.3903V59.9103L60.4237 59.8435V59.8436ZM60.3897 57.6393C60.5386 57.7768 60.6595 57.9402 60.7458 58.1211V57.0245C60.6485 57.2348 60.5287 57.4388 60.3897 57.6393ZM66.6268 53.0238L65.1449 53.4263C62.1043 54.3809 59.0129 55.2091 55.9489 56.0977L54.38 62.1713L54.7194 60.6327C54.7338 60.1499 54.5327 59.5672 54.3282 59.344C54.0793 59.0718 53.74 58.7192 53.3834 58.3599C53.085 58.0587 52.8268 58.5391 52.446 59.1681C52.5694 58.7457 53.1825 55.871 53.1825 55.871C53.0873 56.9046 53.1742 57.4879 53.4457 57.6901C53.7171 57.8923 54.2782 58.3195 54.6457 58.5551C54.7306 58.6097 54.831 58.5777 54.9329 58.5034C54.9934 58.0543 53.8461 56.9844 53.8461 56.9844C54.9323 57.6018 55.2895 57.581 55.4066 57.5143L55.7402 56.0004L55.7524 55.9449L55.817 55.9259C57.4305 55.4492 59.0505 54.9902 60.6652 54.5218C60.9526 54.4385 61.2384 54.3519 61.5254 54.2676C61.4549 54.1174 61.2633 53.882 60.7473 53.8125C59.9702 53.7079 58.5621 53.9445 58.5621 53.9445L61.305 52.7782L59.8599 53.1771L60.4439 51.7763C60.3215 51.7389 60.2 51.7009 60.0793 51.6626L59.676 52.8706C59.676 52.8706 59.4924 52.5904 59.1947 52.5335C58.8972 52.4765 58.3318 53.5086 58.3318 53.5086L59.0846 51.3257C58.9621 51.2811 58.8408 51.236 58.7222 51.19L57.9132 53.6944L57.838 53.7103C57.838 53.7103 55.706 54.1599 54.736 54.3633C54.6085 54.3899 54.4821 54.4123 54.3589 54.434C53.7189 54.5471 53.2561 54.6287 53.1212 55.179C53.1087 55.2295 51.4105 63.3158 50.1279 71.8045C49.9729 72.83 49.7348 73.3316 49.2787 73.5942C49.1012 73.6962 48.6011 73.8521 47.7722 74.11C47.434 74.2154 47.0433 74.3371 46.6034 74.4773C45.1829 74.9297 44.9912 75.6953 44.9912 76.3842C44.9912 76.8093 45.1654 77.111 45.3558 77.3147C45.4592 77.324 45.5664 77.33 45.6784 77.33C46.0682 77.33 46.4707 77.2744 46.842 77.169C47.5696 76.963 48.322 76.7501 49.8621 76.2262C51.2879 75.7412 51.7267 73.8541 51.9624 72.8402C52.4276 70.8405 56.1837 56.5748 56.2214 56.4309L56.2548 56.3047L67.3329 53.0831C67.0967 53.0672 66.8618 53.0454 66.6266 53.0238H66.6268ZM86.3894 24.5097C85.2805 24.3408 84.0962 24.1707 82.9092 24.0173C82.3157 23.9417 81.722 23.866 81.1376 23.7916C80.5524 23.7228 79.9765 23.655 79.4193 23.5896C78.304 23.4622 77.2637 23.3418 76.3702 23.2498C74.5832 23.0664 73.3919 22.9445 73.3919 22.9445C73.3919 22.9445 73.6881 22.9864 74.206 23.0596C74.7247 23.1292 75.4657 23.2287 76.3548 23.3481C77.244 23.4659 78.2815 23.603 79.3928 23.75C80.5034 23.9018 81.6877 24.0641 82.8722 24.2261C84.0552 24.3942 85.2383 24.5617 86.3437 24.7351C86.8958 24.8239 87.4295 24.9095 87.9356 24.9908C88.4406 25.076 88.9192 25.1518 89.3579 25.2328C89.7985 25.3075 90.1992 25.3872 90.5546 25.457C90.7325 25.4914 90.8961 25.532 91.05 25.563C91.2014 25.5996 91.3408 25.6336 91.4667 25.664C91.5907 25.6995 91.7012 25.7311 91.7975 25.7589C91.8913 25.7918 91.9709 25.8197 92.0357 25.8423C92.1591 25.9017 92.225 25.9333 92.225 25.9333C92.225 25.9333 92.1638 25.8951 92.0494 25.8237C91.9867 25.7944 91.9095 25.7585 91.8185 25.7159C91.7253 25.6782 91.617 25.6381 91.4954 25.5922C91.3714 25.5523 91.2345 25.5084 91.0852 25.4605C90.9343 25.4172 90.7709 25.3697 90.5952 25.3243C90.2439 25.2316 89.8438 25.1386 89.4057 25.0454C88.9671 24.9533 88.4908 24.86 87.9847 24.7714C87.4786 24.6823 86.9438 24.5942 86.3894 24.51V24.5097ZM85.6932 21.398C85.6204 21.6874 85.5533 21.9539 85.483 22.2124C85.3368 22.7498 85.4037 23.2341 85.6706 23.5764C85.8735 23.8362 86.1748 23.9977 86.5416 24.0432C86.6195 24.0528 86.6953 24.0576 86.7668 24.0576C87.198 24.0576 87.747 23.9088 88.1692 22.7471C88.5894 21.5908 89.1163 19.199 89.1221 19.1726C89.4619 17.7081 88.6599 17.3301 88.2991 17.236C88.1872 17.2067 88.0733 17.1916 87.9603 17.1916C87.2801 17.1916 86.7565 17.7139 86.4456 18.7021C86.0766 19.8747 85.8641 20.7193 85.6932 21.3979V21.398ZM64.0101 14.3298C63.6222 15.0929 63.2777 15.8765 62.9548 16.6625C62.6223 17.4718 62.2985 18.2872 62.0214 19.1125C61.657 20.1986 61.3281 21.2886 61.0262 22.3872C61.146 22.2306 61.3269 22.1255 61.6142 22.1255C61.618 22.1255 61.6223 22.1262 61.6264 22.1262C61.844 21.359 62.0754 20.5947 62.3193 19.8351C62.841 18.2081 63.4314 16.6033 64.0775 15.0111C64.6657 13.5616 65.3641 12.1515 66.0821 10.7482C66.1011 10.7109 66.1202 10.6736 66.1392 10.6364C65.8271 11.121 65.4985 11.6001 65.2146 12.0977C64.7939 12.8354 64.3929 13.5764 64.0102 14.3298H64.0101ZM57.9249 28.0622C57.721 29.4663 57.5934 30.8744 57.5117 32.2876C57.5095 32.3251 57.5074 32.3628 57.5051 32.4003C57.7217 31.1001 57.9306 29.7977 58.1921 28.5036C58.5255 26.8508 58.8923 25.2071 59.2987 23.5668C59.6253 22.2492 60.0012 20.9371 60.4172 19.639C60.9373 18.0162 61.524 16.4162 62.1696 14.8285C62.7474 13.4066 63.4389 12.0245 64.146 10.649C64.165 10.6121 64.1841 10.5754 64.2029 10.5385C63.915 10.9825 63.6096 11.4212 63.3444 11.8759C62.9395 12.5701 62.5551 13.2696 62.1917 13.9808C61.4354 15.4596 60.8173 16.9877 60.2546 18.5302C59.6908 20.0763 59.2376 21.662 58.8545 23.2494C58.47 24.842 58.1596 26.4472 57.9249 28.0621V28.0622ZM49.1499 33.9594C46.3676 34.0896 43.5781 34.2379 40.8125 34.5422C40.0805 34.6229 39.3486 34.711 38.6255 34.839C38.015 34.947 37.3885 35.0616 36.8443 35.3351C37.3578 35.1058 37.9393 35.0058 38.5055 34.9241C39.1727 34.8281 39.8434 34.7516 40.5159 34.6882C41.9371 34.554 43.3638 34.4567 44.7895 34.3679C47.6626 34.1894 50.5383 34.0324 53.4149 33.8973C54.3033 33.8556 55.1919 33.8139 56.0805 33.7722C53.7686 33.7837 51.4583 33.8513 49.1499 33.9594ZM47.3335 33.5684C44.529 33.6933 41.7172 33.8335 38.9281 34.1262C38.2071 34.2021 37.4845 34.2834 36.7722 34.4072C36.1598 34.5134 35.5236 34.6185 34.9826 34.9024C35.4873 34.6661 36.0682 34.5743 36.6291 34.4952C37.3225 34.3974 38.0202 34.3245 38.7187 34.2624C40.1612 34.1346 41.6098 34.043 43.0565 33.9589C45.9245 33.7928 48.7943 33.6433 51.6643 33.5116C52.5585 33.4703 53.4531 33.4293 54.3473 33.3882C52.008 33.3994 49.6699 33.4645 47.3336 33.5683L47.3335 33.5684ZM53.5771 23.4994C52.59 23.4047 51.4392 23.284 50.2042 23.173C48.9693 23.0613 47.6523 22.9425 46.3349 22.8236C45.0168 22.715 43.6982 22.6063 42.4623 22.5044C41.2265 22.4018 40.071 22.324 39.0812 22.248C38.092 22.1728 37.2658 22.1247 36.6882 22.0842C36.1101 22.0487 35.7795 22.0285 35.7795 22.0285C35.7795 22.0285 36.108 22.0648 36.6829 22.1289C37.2587 22.1879 38.0795 22.2819 39.0667 22.3774C40.0542 22.472 41.2047 22.5936 42.4398 22.704C43.6746 22.8154 44.9919 22.9341 46.309 23.0531C47.6274 23.1618 48.9458 23.2703 50.1819 23.372C51.4177 23.4743 52.5733 23.5525 53.5628 23.6284C53.8446 23.6497 54.1116 23.6688 54.365 23.6861C54.3742 23.6515 54.3833 23.6158 54.3922 23.5816C54.1352 23.5548 53.8642 23.5273 53.5771 23.4994ZM35.4299 19.0084C36.2721 19.1941 35.9536 21.0431 35.7362 21.6158C36.0348 21.1338 36.7266 20.2536 36.6815 19.926C36.599 19.3252 35.8183 19.03 35.43 19.0085L35.4299 19.0084ZM35.3664 37.3298C35.5287 37.0858 35.7477 36.883 35.9317 36.6535C34.2579 37.149 34.3286 39.0921 34.6612 40.3128C34.7549 39.6417 34.7436 38.9616 34.9143 38.2989C35.0034 37.9539 35.1636 37.6346 35.3664 37.3298ZM37.1615 37.834C37.3388 37.5691 37.5612 37.3393 37.7551 37.0854C36.1058 37.6077 36.1723 39.5226 36.5063 40.7446C36.5962 40.0966 36.5939 39.4428 36.7431 38.8009C36.8218 38.4629 36.9623 38.1317 37.1616 37.834H37.1615ZM38.3844 41.2356C38.475 40.587 38.4739 39.9335 38.6213 39.2908C38.7001 38.9481 38.8479 38.6194 39.044 38.3156C39.2121 38.0546 39.4294 37.8277 39.6115 37.5761C37.9851 38.1251 38.0506 40.0165 38.3843 41.2356L38.3844 41.2356ZM40.3539 41.7021C40.4449 41.0556 40.443 40.4042 40.5892 39.7634C40.6673 39.422 40.8141 39.0931 41.007 38.7889C41.1725 38.5282 41.3844 38.297 41.5596 38.0429C39.958 38.6169 40.0193 40.4812 40.3539 41.7021ZM43.6371 38.5787C42.356 39.0636 42.1734 40.3904 42.3042 41.4543C42.3365 41.7172 42.3824 41.9809 42.4528 42.238C42.5435 41.5937 42.5412 40.9441 42.6865 40.3055C42.7639 39.9643 42.9107 39.6371 43.0996 39.3318C43.2611 39.0702 43.4689 38.8356 43.6371 38.5788V38.5787ZM68.3952 39.1764C72.804 38.6182 75.9157 37.8601 75.9157 37.8601C70.3352 38.4063 58.8758 39.8868 55.876 40.2067C52.8758 40.5264 52.0143 40.8034 51.5753 42.8769C51.2615 44.3579 51.3942 45.9748 51.3563 46.6652C51.6875 45.6523 52.3168 43.4163 53.9767 42.1856C55.9841 40.6972 61.8385 40.0068 68.3952 39.1764ZM28.5832 54.6566C28.7473 54.6632 28.8958 54.3614 28.9153 53.9826C28.9347 53.604 28.8176 53.292 28.6538 53.2855C28.4897 53.2789 28.3411 53.5809 28.3215 53.9595C28.3023 54.3381 28.4194 54.6501 28.5832 54.6566ZM29.1101 63.2987C30.2736 63.8779 35.3568 66.107 36.407 66.5762C35.8021 66.2023 34.7407 64.9853 34.1982 64.5442C33.6502 64.0986 32.7823 64.0154 32.2552 63.5747C31.5911 63.0187 31.5767 61.8889 30.9878 61.2185C30.3222 60.4606 29.6168 59.8824 29.2976 58.9638C28.9976 58.1006 28.3056 56.3314 28.193 55.449C28.216 56.0307 27.8853 60.3614 27.7725 61.9092C27.7101 62.763 28.3272 62.9088 29.1102 63.2987H29.1101ZM57.9738 78.332C57.7363 78.332 57.5437 78.4461 57.5437 78.5866C57.5437 78.7273 57.7362 78.8408 57.9738 78.8408C58.2109 78.8408 58.4035 78.7273 58.4035 78.5866C58.4035 78.4461 58.211 78.332 57.9738 78.332ZM60.627 77.9487C60.9088 77.672 61.1105 77.349 61.1098 76.9684C61.1087 76.5136 60.8764 76.0947 60.5854 75.7283C59.9882 74.9767 59.1472 74.394 58.587 73.618C58.3031 73.2245 58.1715 72.8133 58.1995 72.3502C58.09 72.7056 58.087 73.0499 58.2233 73.4024C58.3861 73.8245 58.6726 74.2033 58.9847 74.5519C59.3001 74.9047 59.6451 75.2358 59.9648 75.5857C60.2818 75.9319 60.6086 76.3035 60.764 76.7315C60.9193 77.1586 60.8103 77.5458 60.6269 77.9487H60.627ZM61.2691 69.467C61.2485 69.5522 60.7104 71.556 56.2489 71.556C54.7248 71.556 53.683 71.2602 52.9853 70.9158C52.965 70.9947 52.9454 71.0723 52.9261 71.1479C53.6598 71.4968 54.7273 71.7869 56.2488 71.7869C58.053 71.7869 59.2459 71.4617 60.0339 71.0577C59.8547 71.2251 59.7111 71.4277 59.6544 71.7235C59.2246 73.9662 64.0228 75.0962 65.9053 76.9768C66.5875 77.6582 63.6663 78.5815 62.3639 78.7506C61.0554 78.9202 59.7573 79.0255 58.4836 79.0785C58.1654 79.0935 57.8523 79.0975 57.5391 79.108C57.227 79.1172 56.9032 79.115 56.5885 79.1189C56.4874 79.1189 56.3859 79.1177 56.2843 79.1175C56.5476 79.0017 56.6032 78.8428 56.6032 78.6675C56.6032 78.312 55.727 78.024 54.6463 78.024C53.5657 78.024 52.6896 78.312 52.6896 78.6675C52.6896 78.786 52.7164 78.8969 52.8143 78.9923C51.1028 78.8669 49.4776 78.6527 47.9722 78.362C47.1041 78.1939 46.277 78.0008 45.4939 77.7868C45.231 77.7758 44.9846 77.7426 44.7744 77.6867C44.5925 77.6383 44.4029 77.5612 44.2218 77.4562C44.0982 77.4925 43.9702 77.5302 43.8401 77.5686C46.4772 78.4734 49.2977 78.9664 52.1087 79.2145C55.3362 79.4995 58.6223 79.4674 61.8386 79.0941C64.9138 78.7375 68.0413 78.0864 70.8078 76.8287C72.1518 76.2177 73.4737 75.4562 74.4201 74.4052C74.7821 74.0033 75.084 73.555 75.2787 73.0717C75.3523 72.8885 75.4047 72.6953 75.4403 72.5047C75.4745 72.322 75.4746 72.1396 75.5007 71.9568C75.5177 71.8375 75.4908 71.6295 75.4671 71.4995C75.3884 71.066 75.2487 70.6626 75.0212 70.27C74.7127 69.7369 74.2836 69.2617 73.8033 68.8395C72.7179 67.8847 71.3526 67.1593 69.9643 66.5919C67.2345 65.4759 64.2615 64.8269 61.2749 64.4938V69.4191L61.269 69.467L61.2691 69.467ZM47.7491 81.6574C47.9967 81.7011 48.224 81.6232 48.2565 81.4831C48.2891 81.3431 48.1145 81.1942 47.8671 81.1501C47.6194 81.1062 47.3923 81.1843 47.3599 81.3242C47.3273 81.4641 47.5015 81.6131 47.7492 81.6573L47.7491 81.6574ZM49.3816 79.7011C49.9907 80.0005 50.5941 80.2974 51.1015 80.766C51.5701 81.1989 51.9467 81.7053 52.3894 82.1585C52.4899 82.2614 52.5941 82.3611 52.6995 82.4596C52.2412 82.4278 51.7833 82.3916 51.3261 82.3478C49.5241 82.1743 47.7316 81.9042 45.9733 81.5164C46.3562 81.4943 46.6268 81.3908 46.6794 81.2173C46.7738 80.9068 46.1341 80.4896 45.2509 80.2854C44.3679 80.0813 43.576 80.1677 43.4818 80.4783C43.4356 80.6303 43.5663 80.8079 43.8142 80.9734C42.4361 80.5818 41.0888 80.1047 39.8057 79.5167C39.4753 79.3655 39.1471 79.2054 38.8236 79.0371C38.7114 79.0696 38.5991 79.1024 38.4869 79.135C42.6353 81.374 49.1134 82.8174 56.381 82.8174C68.8727 82.8174 79.0354 78.5538 79.0354 73.3134C79.0354 70.8498 76.773 68.5087 72.6647 66.7211C69.5248 65.3551 65.5808 64.4323 61.2747 64.0338V64.4546C61.9233 64.5171 62.5707 64.5882 63.2152 64.676C64.8191 64.8948 66.4089 65.2018 67.9547 65.6368C69.5173 66.0765 71.0591 66.6348 72.4448 67.4099C73.6806 68.1014 74.8271 68.9806 75.5051 70.1352C75.922 70.845 76.1352 71.6922 75.9824 72.4871C75.8955 72.9401 75.7537 73.3638 75.5169 73.7758C75.2066 74.3152 74.7927 74.8003 74.3135 75.2344C73.1975 76.2444 71.7847 76.9931 70.3363 77.5818C67.3728 78.7859 64.1262 79.4203 60.8894 79.7329C57.5443 80.0559 54.15 80.0186 50.8161 79.6177C48.154 79.2979 45.481 78.753 43.0071 77.8128C42.8695 77.8535 42.7303 77.8945 42.588 77.936C43.9445 78.4748 45.3616 78.8949 46.8041 79.2187C47.6549 79.4096 48.5155 79.5685 49.3814 79.7009L49.3816 79.7011ZM48.4565 53.6734C48.9705 53.848 49.4924 54.0184 49.9806 54.2441C50.1829 54.3377 50.4446 54.4501 50.5621 54.6319C50.6842 54.8206 50.6278 55.0845 50.6132 55.2901C50.5443 56.2659 50.406 57.2376 50.3351 58.2139C50.2694 59.1183 50.2376 60.0235 50.2472 60.9295C50.4502 59.4117 50.6535 57.8937 50.8681 56.3771C50.9039 56.1239 50.9406 55.8708 50.9698 55.6168C50.998 55.372 51.0386 55.1176 51.0257 54.8714C50.9991 54.3582 50.5333 54.1142 50.0457 53.9287C48.9769 53.5223 47.85 53.2188 46.7421 52.9065C45.7794 52.6353 44.8116 52.3806 43.8403 52.1352C45.3791 52.6478 46.922 53.1516 48.4566 53.6732L48.4565 53.6734ZM60.0514 28.7366C60.2304 27.8778 60.4173 27.0214 60.6126 26.1665C60.5577 26.1299 60.508 26.0897 60.4686 26.0418C60.2818 25.8143 60.3347 25.5428 60.381 25.3033L60.4696 24.8154C60.5153 24.5619 60.5729 24.2423 60.6341 23.9045C60.2919 25.3133 60.0157 26.7363 59.8001 28.163C59.575 29.6497 59.4282 31.1395 59.3419 32.637C59.3394 32.6807 59.3368 32.7246 59.3343 32.7683C59.5562 31.4228 59.7721 30.0743 60.0512 28.7366H60.0514ZM45.7738 35.9884C47.0698 35.836 48.3734 35.725 49.6761 35.6232C52.4027 35.4101 55.1346 35.2468 57.8669 35.0967C59.0045 35.0344 60.1423 34.9774 61.2804 34.9241C59.0088 34.9371 56.7388 35.0142 54.4717 35.1375C51.7305 35.2863 48.9844 35.4675 46.2656 35.8153C45.5586 35.9057 44.8538 36.0079 44.1558 36.1424C43.5626 36.2566 42.9735 36.3941 42.4293 36.6336C42.9116 36.4471 43.42 36.3388 43.9359 36.2475C44.5436 36.1399 45.1592 36.0609 45.7739 35.9884H45.7738ZM47.4718 36.4322C48.7877 36.2652 50.113 36.145 51.4363 36.0346C54.1607 35.8075 56.8917 35.6378 59.6223 35.4832C60.7525 35.4194 61.8829 35.3615 63.0137 35.3083C60.7505 35.2976 58.4812 35.4024 56.2239 35.5309C53.5044 35.6859 50.7796 35.8778 48.0847 36.2406C47.3814 36.3353 46.6793 36.4405 45.9859 36.5809C45.4036 36.6992 44.8301 36.8382 44.2909 37.0664C45.2907 36.6967 46.4049 36.5679 47.4718 36.4323V36.4322ZM46.4831 39.9888C46.2518 39.9888 46.0643 40.1336 46.0643 40.3124C46.0643 40.4909 46.2517 40.6357 46.4831 40.6357C46.7145 40.6357 46.9019 40.4909 46.9019 40.3124C46.9019 40.1336 46.7145 39.9888 46.4831 39.9888ZM49.5483 36.8293C50.8507 36.6617 52.1617 36.5354 53.4714 36.4225C56.1215 36.1941 58.7785 36.0155 61.4358 35.865C62.539 35.8024 63.6428 35.7447 64.7472 35.6922C62.503 35.6817 60.2526 35.7898 58.0146 35.9225C55.3057 36.083 52.5905 36.2855 49.9091 36.6663C48.6453 36.8459 47.3213 37.0238 46.1525 37.4993C47.2272 37.1193 48.4078 36.9756 49.5484 36.8293H49.5483ZM79.6371 41.3542C79.6612 41.5648 79.6777 41.7759 79.6937 41.9871C79.6461 40.8702 79.5394 39.6579 78.8353 38.69C78.4741 38.1936 77.9386 37.821 77.3015 37.6294C76.5994 37.4184 75.838 37.4059 75.1048 37.4569C73.5491 37.5654 71.9956 37.7634 70.4481 37.9373C68.8947 38.1118 67.3425 38.2971 65.7902 38.4784C64.1966 38.6644 62.6027 38.8479 61.0098 39.0373C59.4053 39.2283 57.802 39.4318 56.1947 39.6019C54.7777 39.7519 53.0823 39.7243 51.9859 40.6529C50.8541 41.6113 50.8442 43.1121 50.8453 44.3903C50.8476 46.6241 50.859 48.8574 50.8794 51.0907C50.8799 51.1555 50.8803 51.2203 50.8809 51.2848C50.925 49.3203 50.9675 47.3553 50.9939 45.3902C51.0028 44.7369 50.9896 44.0792 51.0341 43.4267C51.0775 42.7947 51.1939 42.1437 51.5088 41.5677C51.8141 41.0093 52.3141 40.5679 52.9643 40.3166C53.6521 40.0507 54.4127 39.974 55.1538 39.9088C56.7299 39.7699 58.2987 39.5809 59.8695 39.4C61.4602 39.2171 63.0492 39.0245 64.6386 38.833C67.7163 38.4617 70.792 38.0765 73.8731 37.7296C75.26 37.5735 76.9051 37.3224 78.1078 38.1255C79.2147 38.8652 79.5076 40.2134 79.6374 41.3541L79.6371 41.3542ZM65.5148 29.997C65.7236 29.0076 65.9443 28.021 66.1784 27.0371C66.012 27.0178 65.8567 27 65.7162 26.9837C65.5559 27.775 65.4146 28.5692 65.2933 29.3623C65.0706 30.8212 64.9114 32.279 64.8286 33.7491C64.8264 33.7903 64.8241 33.8317 64.8218 33.873C65.0282 32.5782 65.2438 31.2833 65.5148 29.9971V29.997ZM63.0148 38.3644C60.8238 38.6049 58.6281 38.828 56.446 39.125C55.4075 39.2663 54.3767 39.4392 53.361 39.6769C55.3227 39.3447 57.3043 39.1236 59.2836 38.8894C61.4348 38.635 63.5877 38.393 65.7355 38.1185C66.4091 38.0324 67.0823 37.9464 67.7558 37.8601C66.1751 38.026 64.5945 38.1914 63.0148 38.3644ZM67.1385 29.6756C66.9056 31.1535 66.7405 32.6311 66.6575 34.1213C66.6552 34.1612 66.6528 34.2011 66.6508 34.2412C66.8601 32.9148 67.0871 31.5908 67.367 30.274C67.5816 29.2631 67.8137 28.2564 68.0578 27.2516C67.9011 27.2338 67.7451 27.216 67.5905 27.1983C67.4193 28.0222 67.2687 28.8492 67.1385 29.6756ZM73.1723 28.1466C73.0195 28.8476 72.8745 29.5502 72.7407 30.2549C72.444 31.8198 72.24 33.404 72.1567 34.9884C72.1504 35.1075 72.1442 35.2265 72.138 35.3457C72.3498 33.9696 72.5996 32.6005 72.8958 31.2362C73.1164 30.22 73.3572 29.2073 73.6115 28.1971C73.4502 28.1787 73.3023 28.1617 73.1723 28.1466ZM79.5913 28.8552C79.4456 29.5493 79.3106 30.2449 79.1956 30.9436C78.9427 32.4794 78.7854 34.0217 78.6563 35.5686C78.6529 35.6099 78.6494 35.6509 78.646 35.6922C78.8546 34.3294 79.0601 32.9663 79.3043 31.6078C79.4679 30.697 79.6558 29.7892 79.8602 28.8841C79.7702 28.8745 79.6805 28.8648 79.5913 28.8552ZM80.2337 32.369C80.0489 33.1075 79.9744 33.8772 80.013 34.6323C80.0308 34.9823 80.0894 35.3241 80.1544 35.6688C80.2624 35.403 80.294 35.0962 80.3454 34.8189C80.4103 34.4679 80.4674 34.1156 80.5223 33.7632C80.6362 33.0324 80.7469 32.3009 80.8378 31.5676C80.8779 31.2455 80.9238 30.9189 80.9292 30.5945C80.5922 31.1479 80.3861 31.7592 80.2337 32.3689V32.369ZM77.6153 30.2948C77.5874 30.6847 77.5617 31.0748 77.5418 31.4649C77.5223 31.8493 77.534 32.2328 77.5422 32.6173C77.5571 33.3141 77.6236 34.0033 77.7256 34.6945C77.7404 34.7961 77.7546 34.8979 77.7725 34.999C77.8528 34.4068 77.8814 33.8075 77.9744 33.2174C78.0915 32.4729 78.1794 31.7262 78.3038 30.9824C78.4278 30.2406 78.5604 29.499 78.7069 28.7597C78.4039 28.7268 78.1065 28.6944 77.815 28.6627C77.7249 29.2047 77.6545 29.749 77.6153 30.2948ZM70.8949 29.9215C70.6063 31.4816 70.4115 33.0589 70.327 34.6373C70.3209 34.7506 70.315 34.8639 70.3091 34.9774C70.5205 33.61 70.7651 32.2488 71.0574 30.8928C71.2756 29.8812 71.5126 28.8732 71.7628 27.8677C71.5765 27.7874 71.4619 27.702 71.3931 27.6299C71.3829 27.6288 71.3697 27.6272 71.3584 27.6259C71.1916 28.3891 71.0368 29.1545 70.8949 29.9216V29.9215ZM69.0273 29.7162C68.7561 31.2966 68.575 32.8837 68.4873 34.4797C68.4849 34.5228 68.4823 34.5659 68.4799 34.6092C68.7011 33.1915 68.9561 31.7801 69.2566 30.3735C69.4644 29.401 69.6887 28.4309 69.9274 27.4638C69.7829 27.4474 69.6327 27.4305 69.478 27.4128C69.3124 28.1783 69.1596 28.9459 69.0273 29.7162ZM63.4496 29.0468C63.2344 30.4898 63.0819 31.9318 62.9996 33.3852C62.9971 33.4251 62.9952 33.465 62.9929 33.5047C63.2016 32.2114 63.4134 30.9172 63.6824 29.6321C63.8803 28.6867 64.088 27.7434 64.3079 26.8024C64.1702 26.7823 64.0179 26.7602 63.8559 26.7365C63.7021 27.5046 63.5649 28.275 63.4497 29.0468H63.4496ZM61.6119 28.6906C61.3986 30.1296 61.2533 31.5694 61.1705 33.0183C61.1682 33.0577 61.166 33.0972 61.1638 33.1365C61.3732 31.8518 61.5838 30.5664 61.8464 29.2892C62.0361 28.3672 62.2336 27.4471 62.4442 26.5291C62.2903 26.5065 62.1405 26.4846 61.999 26.4639C61.8537 27.2043 61.7224 27.9466 61.6119 28.6906ZM51.5755 40.281C50.0765 41.0897 48.1055 39.877 47.4532 40.5637C47.0232 41.0163 48.5833 41.5694 49.0403 42.2061C49.6984 43.1233 50.0148 44.1887 50.5174 45.0552C50.1646 42.6684 50.6497 41.3585 51.5755 40.281ZM52.6942 34.7451C49.9435 34.8875 47.1866 35.0567 44.4561 35.3892C43.7497 35.4754 43.0452 35.572 42.3476 35.701C41.7363 35.8141 41.1235 35.9459 40.5677 36.2006C41.0735 35.9961 41.6159 35.8908 42.1614 35.7994C42.7631 35.6989 43.3715 35.6253 43.9787 35.5581C45.3039 35.4114 46.6366 35.3058 47.968 35.2086C50.6871 35.01 53.4098 34.8597 56.1329 34.7099C57.2704 34.6473 58.409 34.593 59.5471 34.5402C57.261 34.5524 54.9761 34.6266 52.6941 34.7451H52.6942ZM50.8778 34.3543C48.1219 34.4908 45.3592 34.6488 42.6219 34.9669C41.9035 35.0505 41.1863 35.1435 40.4765 35.2719C39.8687 35.3816 39.2535 35.5055 38.7063 35.7677C39.2235 35.5484 39.7936 35.4437 40.3576 35.3577C40.9752 35.2632 41.5974 35.1892 42.2199 35.1249C43.5385 34.9889 44.8633 34.8909 46.187 34.8004C48.9223 34.6132 51.6609 34.4675 54.3995 34.322C55.5374 34.2618 56.6759 34.2085 57.8141 34.1564C55.5002 34.1682 53.1881 34.2405 50.8779 34.3544L50.8778 34.3543ZM62.0998 22.6381C62.0417 22.6314 61.9865 22.6244 61.9342 22.6178C61.807 22.6014 61.6968 22.5874 61.6145 22.5874C61.509 22.5874 61.4092 22.5874 61.3158 23.1002C61.2025 23.7222 61.0773 24.4173 60.9925 24.8874L60.9029 25.3804C60.8724 25.5383 60.8408 25.7018 60.8991 25.7729C60.9374 25.8197 61.0391 25.8568 61.1851 25.8774C61.4833 25.9193 62.1667 26.0198 62.8798 26.1247C63.8096 26.2615 64.7714 26.4029 65.018 26.4351C65.451 26.4919 71.515 27.1777 71.5703 27.1843H71.5708C71.5747 27.1845 71.589 27.1853 71.6112 27.1853C71.8002 27.1853 72.2627 27.1388 72.4728 26.7078C72.8309 25.9731 73.0006 24.3729 72.8224 23.9996C72.7852 23.9215 72.4815 23.6463 70.1345 23.3736L70.1069 23.3703C69.78 23.3411 62.7564 22.7146 62.0998 22.6381ZM72.6868 23.2871C73.8123 23.5952 73.2163 26.0732 72.8706 26.8326C73.6037 26.0657 74.1689 24.5756 75.0307 24.2887C75.9564 23.9806 84.9251 25.0476 86.9101 25.2198C82.7194 24.3885 73.2109 23.3423 72.6868 23.2871ZM90.7322 29.2979C91.2405 29.338 91.5309 29.3611 91.5309 29.3611C91.5309 29.3611 91.2427 29.3219 90.7384 29.2535C90.2334 29.1894 89.5131 29.0912 88.6469 28.9854C87.781 28.8774 86.7701 28.7568 85.6862 28.6323C85.1441 28.5708 84.584 28.5074 84.0148 28.4429C83.4454 28.3806 82.8668 28.3174 82.2884 28.2538C81.7096 28.1933 81.1306 28.1324 80.5609 28.0728C79.9909 28.0149 79.4298 27.9581 78.887 27.903C77.8008 27.7946 76.7863 27.6986 75.9164 27.6202C75.0464 27.54 74.3204 27.4832 73.8125 27.4388C73.3042 27.3986 73.0137 27.3758 73.0137 27.3758C73.0137 27.3758 73.302 27.4148 73.8064 27.4834C74.3113 27.5474 75.0317 27.6459 75.898 27.7516C76.7637 27.8597 77.7747 27.9806 78.8587 28.1048C79.4007 28.1659 79.9608 28.2296 80.5301 28.2939C81.0995 28.3562 81.678 28.4196 82.2565 28.4828C82.8352 28.5436 83.414 28.6044 83.9839 28.664C84.5539 28.7217 85.1151 28.7785 85.658 28.8335C86.7441 28.9417 87.7584 29.038 88.6286 29.1163C89.4983 29.1963 90.2246 29.2534 90.7322 29.2977L90.7322 29.2979ZM49.866 71.7738C51.0245 64.1054 52.5232 56.7621 52.813 55.3675L51.9777 58.3869L52.4481 55.3989L51.7106 58.3155L52.115 55.3177L51.4434 58.2441L51.7903 55.1622C51.5371 56.7165 50.4338 63.0162 49.6816 67.3096C49.3102 69.4294 49.0171 71.1037 48.9714 71.3773C48.7909 72.4626 48.5453 72.9691 48.0646 73.2458C47.8814 73.351 47.4614 73.4837 46.5289 73.7743C46.1911 73.8794 45.8007 74.0007 45.3616 74.1406C44.0215 74.5675 43.8368 75.2576 43.8364 75.9394C43.8364 76.1578 43.8874 76.3478 43.9708 76.5113C43.9676 76.4939 43.9637 76.4763 43.9599 76.4587C43.9385 76.3256 43.9375 76.1921 43.9437 76.0682C43.95 76.0064 43.9531 75.9468 43.9655 75.8911C43.9759 75.8352 43.9862 75.7827 44 75.7348C44.0228 75.6393 44.0546 75.5611 44.0761 75.5086C44.0992 75.4557 44.1127 75.4256 44.1127 75.4256C44.1127 75.4256 44.1077 75.4576 44.099 75.5137C44.0896 75.57 44.0813 75.6491 44.0756 75.7442C44.0718 75.7917 44.0718 75.8434 44.0726 75.8979C44.0723 75.9519 44.0779 76.0089 44.0804 76.0674C44.0878 76.1258 44.0924 76.1864 44.1058 76.2464C44.1152 76.307 44.1337 76.3669 44.1474 76.4271C44.1581 76.4598 44.1682 76.4925 44.1792 76.5248C44.1712 76.4583 44.1634 76.3921 44.1645 76.3268C44.1611 76.2602 44.1683 76.1949 44.1712 76.1319C44.1803 76.0691 44.1841 76.0086 44.1993 75.9522C44.2113 75.8957 44.224 75.8428 44.2397 75.7947C44.253 75.7465 44.2687 75.7026 44.285 75.6645C44.2997 75.6261 44.3132 75.5932 44.3266 75.5671C44.3522 75.5141 44.3672 75.4842 44.3672 75.4842C44.3672 75.4842 44.3609 75.5162 44.3495 75.5729C44.3369 75.6299 44.3253 75.7097 44.3153 75.8062C44.3092 75.8541 44.3072 75.9067 44.3061 75.9616C44.3033 76.0167 44.3082 76.0748 44.3082 76.1339C44.3143 76.1935 44.3169 76.2547 44.3293 76.316C44.3371 76.3777 44.355 76.4385 44.3679 76.4998C44.3817 76.5429 44.3944 76.5855 44.4094 76.6276C44.4086 76.6233 44.4079 76.6194 44.4072 76.6149C44.399 76.5471 44.391 76.4793 44.3921 76.4124C44.3889 76.3457 44.3954 76.2802 44.3987 76.2175C44.4073 76.155 44.4116 76.0941 44.4263 76.0382C44.4385 75.9816 44.4512 75.9282 44.4673 75.8803C44.4799 75.832 44.4962 75.7883 44.5122 75.7501C44.527 75.7118 44.5406 75.679 44.5539 75.6526C44.5798 75.5998 44.5945 75.5697 44.5945 75.5697C44.5945 75.5697 44.5879 75.6021 44.5764 75.6589C44.5637 75.7155 44.552 75.7954 44.5423 75.892C44.5363 75.9399 44.534 75.9924 44.5332 76.0474C44.5304 76.1024 44.5351 76.1603 44.5353 76.2197C44.5416 76.279 44.5439 76.3404 44.5564 76.4015C44.5643 76.4635 44.5823 76.5242 44.5947 76.5855C44.6141 76.6458 44.6295 76.7063 44.6551 76.7631C44.676 76.8215 44.7059 76.8748 44.732 76.9274C44.7638 76.9778 44.788 77.0291 44.8223 77.072C44.8532 77.1166 44.8844 77.1574 44.9172 77.1927C44.937 77.2169 44.9563 77.2352 44.9759 77.255C44.9809 77.2563 44.986 77.2572 44.9912 77.2585C44.8413 77.037 44.7271 76.7503 44.7271 76.3838C44.7273 75.6596 44.9304 74.7638 46.513 74.2597C46.9536 74.1194 47.3451 73.9974 47.684 73.8921C48.4381 73.6572 48.9829 73.4877 49.1337 73.4009C49.4535 73.2168 49.7006 72.8694 49.8662 71.7736L49.866 71.7738ZM59.1951 59.8749C59.8389 59.8749 60.3627 59.3739 60.3627 58.7582C60.3627 58.1425 59.839 57.6417 59.1951 57.6417C58.5516 57.6417 58.0279 58.1425 58.0279 58.7582C58.0279 59.3739 58.5515 59.8749 59.1951 59.8749ZM36.7999 68.0082C40.0574 69.5088 43.2322 70.6641 45.609 71.5608C43.5837 70.6321 40.9573 69.4373 38.1403 68.1813C37.2823 67.7985 36.4712 67.4314 35.7048 67.0844C33.1633 65.9347 31.0779 64.9921 29.4336 64.4639C30.8414 65.1312 33.0234 66.2681 36.7999 68.0083V68.0082ZM33.0662 39.9509C33.1588 39.2826 33.154 38.6087 33.317 37.9482C33.4004 37.6109 33.5507 37.2869 33.7567 36.9925C33.9335 36.7398 34.1589 36.5289 34.3581 36.2917C32.6615 36.7599 32.735 38.7325 33.0661 39.9509H33.0662ZM45.4537 33.1798C42.5873 33.3012 39.7121 33.4328 36.861 33.7287C36.1498 33.8026 35.439 33.8835 34.736 34.0054C34.1972 34.0987 33.5768 34.1856 33.1212 34.4695C33.5568 34.2253 34.1262 34.1562 34.6283 34.0831C35.2841 33.9875 35.9461 33.9213 36.6073 33.8631C38.0478 33.7367 39.4941 33.6516 40.939 33.5717C43.8948 33.4079 46.8519 33.2632 49.8097 33.1304C50.7445 33.0882 51.6792 33.0464 52.614 33.0045C50.226 33.0151 47.8391 33.079 45.4535 33.1799L45.4537 33.1798ZM51.5642 31.8698C51.7677 31.9097 51.9888 31.9529 52.2283 31.9997C52.9407 30.1238 52.4923 27.4037 51.0881 25.8758C49.9292 24.6147 48.3939 24.033 47.2784 23.7653C48.2769 24.1811 49.3492 24.7728 50.1055 25.5855C51.5735 27.1628 52.3048 29.8663 51.5643 31.8697L51.5642 31.8698ZM28.0863 18.9886C28.0149 18.9826 27.954 18.9776 27.9062 18.9776C27.8746 18.9776 27.8586 18.9802 27.8571 18.9791C27.8464 18.9914 27.8032 19.0561 27.7761 19.3115C27.7278 19.7591 27.6752 20.2572 27.6385 20.6055L27.5953 21.0083C27.5631 21.2824 27.5697 21.2831 27.7388 21.2995C27.9452 21.3194 28.4192 21.3687 28.9132 21.4197C29.5554 21.4862 30.2194 21.5548 30.3886 21.5694C30.6609 21.593 34.169 21.83 34.8049 21.8733C34.9429 21.8552 35.1811 21.7872 35.2842 21.5355C35.5031 21.0033 35.5546 19.8262 35.4171 19.5771C35.3733 19.5263 35.1039 19.3518 33.4653 19.2438L32.9571 19.2103C31.5198 19.1493 28.5531 19.0225 28.202 18.9976C28.1614 18.9948 28.1227 18.9917 28.0864 18.9886H28.0863ZM55.1686 20.8625C54.9113 20.8099 54.6388 20.7577 54.3501 20.7026C54.1091 20.6577 53.8574 20.6174 53.5971 20.5731C53.3367 20.5286 53.0673 20.4858 52.7893 20.446C52.2339 20.3642 51.6478 20.2819 51.0398 20.2069C49.8243 20.0552 48.5282 19.8938 47.2288 19.7543C46.5792 19.684 45.9298 19.6139 45.2905 19.5446C44.6505 19.4805 44.0207 19.4175 43.4112 19.3565C42.8019 19.2947 42.212 19.2419 41.6525 19.1902C41.0933 19.1388 40.5647 19.0898 40.0758 19.0505C38.1215 18.8869 36.8186 18.778 36.8186 18.778C36.8186 18.778 37.1401 18.8322 37.7046 18.9177C38.27 18.9973 39.0779 19.1109 40.047 19.2475C40.5313 19.3167 41.0572 19.3852 41.613 19.4587C42.1692 19.5314 42.7553 19.6081 43.3618 19.6876C44.5751 19.8426 45.8693 20.0076 47.1635 20.1729C48.4567 20.3387 49.7503 20.5044 50.9629 20.6599C51.5684 20.7389 52.154 20.8152 52.7092 20.8876C53.2639 20.9614 53.7904 21.0187 54.2746 21.0817C54.5545 21.1149 54.8188 21.1462 55.0697 21.1761C55.1007 21.0765 55.1334 20.9723 55.1685 20.8625H55.1686ZM66.2514 19.8268C66.7625 18.217 67.372 16.6271 68.0227 15.0569C68.6007 13.6609 69.2691 12.2983 69.9567 10.9414C69.9751 10.9051 69.9936 10.8684 70.0121 10.832C69.7107 11.3062 69.3887 11.7745 69.1147 12.2611C68.7089 12.9829 68.3141 13.7048 67.9449 14.4411C67.1807 15.9649 66.5533 17.5336 65.9682 19.1158C65.5639 20.209 65.2159 21.3199 64.9013 22.4372C65.0772 22.4532 65.2567 22.4693 65.4382 22.4858C65.6982 21.5973 65.9705 20.7113 66.2514 19.8266V19.8268ZM73.8521 20.6414C74.4182 18.9624 75.009 17.2816 75.7104 15.6413C76.0422 14.8657 76.3779 14.0932 76.731 13.3248C77.0372 12.6583 77.3695 12.0023 77.6976 11.3437C77.7176 11.3035 77.7376 11.2634 77.7575 11.2234C77.4555 11.7105 77.1351 12.1922 76.8562 12.6895C76.4494 13.415 76.0601 14.1464 75.6961 14.889C74.9131 16.4868 74.2318 18.1197 73.631 19.7766C73.2995 20.6906 72.9949 21.6104 72.709 22.5346C72.8751 22.5411 73.0502 22.5508 73.2346 22.563C73.4331 21.9205 73.6369 21.2793 73.8522 20.6415L73.8521 20.6414ZM82.2046 49.9624L82.3571 49.8928C85.0334 48.6702 86.3766 48.0566 88.3569 42.3359C90.367 36.5286 90.2036 32.42 90.134 30.6657L90.1312 30.5972C90.1216 30.3521 90.0558 30.1316 89.9444 29.9383C89.8247 29.9265 89.6981 29.9141 89.5666 29.9012C89.8817 30.4893 89.9153 31.1099 89.8913 31.7511C89.8417 33.0862 89.4674 36.7907 89.4674 36.7907C89.4674 36.7907 89.3127 34.098 87.9399 33.3885C86.9705 32.8875 86.6695 34.668 86.655 34.4333C86.5697 33.0694 86.1575 31.8744 85.382 30.8945C86.026 31.9525 86.2461 33.2193 86.2552 34.3944C86.2671 35.8902 85.9181 37.3671 85.3475 38.7725C85.5695 37.9568 85.7418 37.1364 85.828 36.3009C86.0027 34.6064 85.8666 32.7683 84.9406 31.2392C84.5662 30.6206 84.0384 30.077 83.3805 29.6809C84.0453 30.2491 84.5135 30.9639 84.7993 31.7464C85.1295 32.6497 85.2069 33.5955 85.2153 34.5375C85.1683 33.9755 85.1029 33.4193 84.9621 32.8689C84.6841 31.7807 84.1535 30.7005 83.1695 29.9579C83.0842 29.8934 82.9957 29.8335 82.9056 29.7757C83.4878 30.303 83.901 30.9586 84.1698 31.6605C84.5118 32.5535 84.5794 33.5024 84.5869 34.4362C84.5405 33.8817 84.4774 33.332 84.3376 32.7886C84.1548 32.0775 83.8624 31.3906 83.4087 30.7935C83.4975 30.9428 83.576 31.096 83.6364 31.2553C84.5977 33.7857 84.0944 39.4215 81.4562 41.7254C78.9697 43.8966 74.6954 45.4573 69.7291 46.0071C67.518 46.2517 65.3523 46.3757 63.2911 46.3757C61.9041 46.3757 60.5726 46.32 59.3334 46.2093C59.0583 46.1849 58.8026 46.1725 58.5736 46.1725C57.064 46.1725 56.5829 46.6997 56.2614 47.6106C56.0442 48.2258 56.1339 48.7512 56.4816 49.218C56.394 48.7567 56.3975 48.2877 56.5504 47.8219C56.4466 48.4734 56.6241 49.0951 56.9274 49.6786C56.9339 49.6842 56.9416 49.6898 56.9487 49.6953C56.7846 49.1221 56.7407 48.5323 56.9328 47.9476C56.8248 48.6254 57.0209 49.2704 57.3462 49.8742C57.17 49.2845 57.1171 48.6762 57.3149 48.0734C57.2173 48.6868 57.3669 49.2744 57.6375 49.8278C57.5263 49.3266 57.5359 48.8067 57.751 48.3293C58.117 47.517 59.0138 47.0416 59.9947 47.0092C60.5242 46.9919 61.0644 47.05 61.5934 47.0728C62.1319 47.0958 62.6704 47.1154 63.2093 47.1302C64.3109 47.1607 65.4134 47.1713 66.5148 47.1465C67.6377 47.1212 68.7629 47.0589 69.8749 46.9149C70.9699 46.7732 72.058 46.5928 73.1379 46.3818C75.2102 45.9764 77.2606 45.4272 79.1748 44.6155C80.0941 44.2256 80.9794 43.7668 81.7851 43.216C82.4537 42.7592 83.0341 42.2393 83.5618 41.6598C83.4805 41.7702 83.4013 41.8822 83.3156 41.9902C82.153 43.4569 80.3725 44.4798 78.5463 45.2218C76.5445 46.0356 74.3878 46.565 72.228 46.9458C71.1151 47.1421 69.9916 47.3137 68.861 47.4075C67.7263 47.5015 66.5847 47.5293 65.4454 47.5278C64.3085 47.5265 63.1721 47.494 62.0367 47.4453C61.4876 47.4215 60.9386 47.3922 60.3898 47.3641C60.0401 47.3463 59.6988 47.3579 59.3607 47.4513C58.8876 47.5821 58.477 47.8616 58.2354 48.2419C57.9829 48.6392 57.9261 49.1069 57.9898 49.5525C58.0355 49.8735 58.1417 50.1826 58.2801 50.4811C59.156 50.8819 60.273 51.2502 61.5777 51.6222C64.059 52.3292 66.6686 52.6879 69.3334 52.6879C75.7476 52.6879 80.8069 50.6018 82.2049 49.9623L82.2046 49.9624ZM71.5641 61.6753C71.5687 61.6764 71.5737 61.6768 71.5794 61.6768C71.6725 61.6768 71.8324 61.5626 71.8817 61.3768C71.9073 61.2799 71.8984 61.1794 71.8572 61.1011C71.8289 61.0474 71.7873 61.009 71.7471 61.001L60.8913 58.7534C60.8913 58.7552 60.8915 58.7568 60.8915 58.7584C60.8915 58.836 60.8835 58.9117 60.8719 58.9862L71.5696 61.493L60.7812 59.3133C60.7647 59.3536 60.7469 59.3931 60.7271 59.4319L71.564 61.6753H71.5641ZM72.4747 60.3861C72.3054 60.5063 72.35 60.7998 72.5744 61.0413C72.799 61.2831 73.1184 61.3816 73.2878 61.2617C73.4572 61.1417 73.4126 60.8483 73.1882 60.6066C72.9637 60.365 72.6443 60.2662 72.4747 60.3861ZM32.3976 84.264C32.3976 84.3359 32.66 84.5109 33.146 84.5109C33.6323 84.5109 33.8947 84.3359 33.8947 84.264V80.4644C33.6327 80.6585 33.3374 80.9381 33.0634 81.2779L32.7002 84.117L32.5993 81.9624C32.5258 82.0934 32.4576 82.2289 32.3975 82.3689V84.2639L32.3976 84.264ZM31.5813 84.5754C31.8355 85.0883 32.62 85.2071 33.1948 85.1928C33.7196 85.1795 34.6369 85.0397 34.7265 84.4764C34.5427 84.9941 33.6627 85.0725 33.1426 85.0785C32.8216 85.0823 32.4917 85.0527 32.1867 84.9611C32.049 84.9197 31.9152 84.8624 31.7998 84.7836C31.7854 84.7738 31.6406 84.6455 31.5814 84.5752C31.5741 84.5602 31.5657 84.5466 31.5591 84.5311C31.5518 84.5349 31.5619 84.5517 31.5814 84.5752L31.5813 84.5754ZM34.3258 85.1843C34.1312 85.5513 34.1322 86.0935 34.3258 86.4609C34.521 86.0939 34.5183 85.5517 34.3258 85.1843ZM14.3381 77.0353C15.3702 77.3774 16.5279 77.5986 16.4565 77.0279C16.3445 76.1282 13.1741 73.9624 13.1741 73.9624C13.1741 73.9624 18.3904 76.8889 19.1777 77.3679C19.9655 77.8471 19.8059 77.7945 19.6585 78.1599C19.5384 78.458 19.1082 79.3626 18.9088 79.7796C19.1051 79.8736 19.3076 79.9625 19.5151 80.0473L20.4685 78.0443L23.1579 78.5833C23.1579 78.5833 22.0248 78.6771 21.7273 79.995C21.6581 80.3017 21.6015 80.5284 21.5586 80.6907C21.6363 80.7089 21.7128 80.7284 21.7915 80.7454C21.9016 80.7697 22.0647 80.8039 22.2705 80.8435C22.3376 79.9152 22.6325 79.4281 22.9839 79.2056C22.9839 80.0959 23.5165 80.7541 23.879 81.0999C24.7633 81.2143 25.8325 81.3093 26.9558 81.3093C27.1884 81.3093 27.4153 81.3041 27.639 81.2958C28.4104 80.9727 28.3321 80.0591 28.0761 79.7858C27.7786 79.468 26.6386 79.3694 26.1351 79.0691C28.224 79.3255 29.9778 79.1203 31.6805 78.6771C31.6805 78.6771 30.8921 79.0836 30.2211 79.406C29.9183 79.5513 29.6082 80.0642 30.1372 80.4683C30.4742 80.726 31.0533 80.7021 31.5937 80.6193C32.89 80.2634 34.807 79.7153 36.8403 79.1264L36.0559 77.949L37.3997 78.9425C37.6204 78.7846 37.7891 78.5816 37.5629 78.4062C37.1074 78.0531 36.1113 77.468 35.2623 77.5611C36.6333 77.0772 38.4259 76.5358 38.4259 76.5358C37.7645 76.8064 37.5018 77.2563 37.9866 77.6083C38.4103 77.9156 39.003 78.3525 39.7274 78.2871C40.674 78.0108 41.5933 77.7413 42.4352 77.4942C42.5247 77.1757 42.6092 76.6492 42.3166 76.3296C41.8756 75.8475 40.0496 76.0297 40.0496 76.0297L43.5847 74.7982C43.6327 74.7176 43.6883 74.6387 43.7538 74.561C43.3429 74.6664 43.0376 74.7479 42.9076 74.7892C42.2127 75.0098 32.4274 78.4429 29.4316 78.804C27.2296 79.0694 25.4305 78.8519 24.4055 78.6771C24.8022 78.735 25.6093 78.6537 26.3062 78.3925C25.2646 77.8737 24.2311 77.3429 23.203 76.8042C20.7438 75.5152 18.3092 74.1883 15.9005 72.8293C13.8002 71.6447 11.7103 70.4451 9.66341 69.1911C10.7711 69.7394 11.8692 70.3037 12.9609 70.8761C15.407 72.158 17.8278 73.4789 20.2253 74.8285C22.2809 75.9856 24.3248 77.1604 26.3303 78.3831C26.5697 78.2918 26.7947 78.1786 26.9852 78.0427C26.1622 77.6306 25.343 77.2137 24.5282 76.79C22.0492 75.501 19.5918 74.1784 17.1623 72.8194C15.062 71.6444 12.971 70.4559 10.9226 69.2122C12.0353 69.758 13.1384 70.3193 14.235 70.8891C16.7026 72.1703 19.1455 73.4897 21.5644 74.8402C23.4859 75.9132 25.3979 77.0017 27.2785 78.1295C27.4779 78.2326 27.6759 78.3378 27.8766 78.4393C27.6201 78.2754 27.3601 78.1152 27.1017 77.9531C27.2627 77.8188 27.3905 77.6644 27.4674 77.4885C26.8279 77.1679 26.1907 76.8446 25.5558 76.5176C23.0656 75.2349 20.5967 73.9182 18.1555 72.5652C16.045 71.3954 13.9441 70.2118 11.8855 68.9734C13.0032 69.5164 14.1108 70.075 15.2128 70.6419C17.6916 71.9172 20.146 73.2303 22.5759 74.575C24.4504 75.6118 26.3149 76.6638 28.1517 77.7514C28.5179 77.9391 28.8833 78.1277 29.2516 78.3121C28.6824 77.9601 28.1093 77.6127 27.5342 77.268C27.5477 77.1915 27.5523 77.1117 27.5467 77.0281C27.5424 76.9639 27.538 76.8796 27.534 76.7783C27.2196 76.6198 26.9047 76.4622 26.5916 76.3023C24.0971 75.0293 21.6244 73.7225 19.1784 72.3801C17.0503 71.2121 14.9321 70.0298 12.8565 68.792C13.9788 69.3321 15.0915 69.8879 16.1986 70.4522C18.6809 71.7173 21.1393 73.0211 23.5742 74.3551C25.0571 75.1673 26.5334 75.989 27.9955 76.8298C28.761 77.2194 29.5285 77.6059 30.3024 77.9826C29.3823 77.4284 28.4527 76.8862 27.5186 76.3497C27.5151 76.232 27.5116 76.1034 27.5077 75.9649C25.0934 74.7409 22.6988 73.4865 20.3292 72.1977C18.1913 71.0351 16.0627 69.8577 13.9763 68.6252C15.1034 69.1626 16.2214 69.7154 17.3333 70.2769C19.827 71.5361 22.2967 72.8336 24.7429 74.1617C25.9737 74.8296 27.2 75.5048 28.4181 76.1911C29.4208 76.6958 30.4273 77.1948 31.443 77.6794C30.1407 76.9105 28.8215 76.1637 27.4941 75.4276C27.4911 75.2908 27.4879 75.1479 27.4845 74.9996C25.4687 73.9757 23.4664 72.9304 21.4821 71.8607C19.3416 70.7068 17.2101 69.5386 15.1206 68.3151C16.2562 68.8513 17.3822 69.4033 18.5023 69.9636C20.9963 71.2115 23.4664 72.4977 25.9144 73.8133C27.1622 74.4841 28.4051 75.1621 29.6402 75.8516C30.6436 76.3519 31.6509 76.8468 32.6674 77.3269C30.9573 76.3266 29.2202 75.3624 27.4721 74.4131C27.47 74.2984 27.4675 74.1815 27.465 74.0619C25.8405 73.2352 24.2243 72.3953 22.6204 71.5386C20.4698 70.3897 18.3285 69.2271 16.2285 68.0086C17.3688 68.542 18.4997 69.091 19.6251 69.6488C22.1303 70.8904 24.6116 72.1704 27.0708 73.4801C28.3279 74.1496 29.5803 74.8267 30.8243 75.5151C31.829 76.0113 32.8373 76.5019 33.8547 76.9783C31.7516 75.7589 29.6078 74.5922 27.4528 73.4434C27.4511 73.347 27.449 73.2494 27.4472 73.1509C26.2015 72.5157 24.9616 71.8719 23.7282 71.2192C21.5674 70.0758 19.416 68.9179 17.3057 67.7042C18.4511 68.235 19.5872 68.7816 20.7173 69.3364C23.2337 70.5718 25.7262 71.8459 28.1968 73.1498C29.4631 73.8179 30.7246 74.4938 31.978 75.1808C32.9843 75.673 33.9935 76.1596 35.012 76.6321C32.8586 75.3944 30.6634 74.212 28.4572 73.0481C28.1174 72.8686 27.7758 72.6913 27.435 72.5128C27.4332 72.4271 27.4315 72.341 27.4299 72.2545C26.5616 71.8111 25.6951 71.365 24.8329 70.9129C22.6548 69.7712 20.4858 68.6149 18.3578 67.4021C19.5014 67.9269 20.6359 68.4674 21.7643 69.0161C24.2911 70.245 26.794 71.5127 29.2755 72.8095C30.5604 73.4808 31.8401 74.1601 33.1115 74.851C34.1171 75.3382 35.126 75.8202 36.144 76.2877C33.9728 75.0513 31.7599 73.8701 29.5359 72.7079C28.8316 72.3398 28.1251 71.9747 27.4172 71.6116C27.4157 71.5331 27.4142 71.4547 27.4124 71.3762C26.9136 71.1212 26.415 70.8654 25.918 70.6077C23.7222 69.468 21.5359 68.3125 19.3902 67.1009C20.5454 67.6262 21.6914 68.1668 22.8315 68.7162C25.3702 69.9396 27.8853 71.2015 30.379 72.4934C31.6649 73.1595 32.9458 73.8333 34.2185 74.5189C35.226 75.0024 36.2368 75.4804 37.2563 75.9441C35.0815 74.7172 32.8661 73.5451 30.6393 72.3916C29.5637 71.8344 28.4834 71.284 27.3994 70.7386C27.3981 70.6617 27.3963 70.5852 27.3948 70.5087C27.2522 70.4359 27.1097 70.3641 26.9677 70.2911C24.7617 69.1562 22.5647 68.0063 20.409 66.7997C21.569 67.322 22.7202 67.8602 23.8651 68.4066C26.415 69.6238 28.9415 70.8799 31.4467 72.1658C32.7419 72.8308 34.0323 73.5032 35.3143 74.1876C36.3226 74.6672 37.3348 75.141 38.3549 75.6006C36.1697 74.3787 33.9437 73.2121 31.707 72.064C30.2725 71.3277 28.8301 70.6026 27.3813 69.8874C27.3795 69.8078 27.3776 69.7281 27.3762 69.6489C25.3729 68.6243 23.3794 67.5843 21.4195 66.4976C22.5845 67.0169 23.7403 67.5523 24.8906 68.0961C27.4514 69.3071 29.9896 70.5574 32.5062 71.837C33.8108 72.5008 35.1112 73.1723 36.4031 73.8559C37.4122 74.3309 38.4244 74.8007 39.4454 75.2562C37.2499 74.0395 35.0134 72.8781 32.7662 71.7353C30.9759 70.825 29.1747 69.9305 27.3621 69.0533C27.3602 68.9666 27.3578 68.8801 27.3559 68.7945C25.6995 67.9478 24.0527 67.0864 22.428 66.1937C23.6012 66.7119 24.7654 67.246 25.924 67.7887C28.4926 68.9922 31.0383 70.2346 33.563 71.5067C34.877 72.169 36.1862 72.8393 37.487 73.5212C38.4979 73.9925 39.5115 74.4586 40.5335 74.9104C38.3275 73.6986 36.0805 72.5427 33.8233 71.4053C31.6787 70.3244 29.5176 69.2667 27.3416 68.2347C27.3387 68.1339 27.3363 68.035 27.3337 67.9367C26.026 67.2671 24.7254 66.5876 23.4396 65.8873C24.6175 66.4025 25.7868 66.9339 26.9505 67.474C29.5301 68.6714 32.0871 69.9076 34.6235 71.1741C35.9469 71.8347 37.2658 72.5039 38.5764 73.1847C39.5877 73.652 40.6022 74.1139 41.625 74.5615C39.4083 73.355 37.1513 72.2044 34.8836 71.0723C32.383 69.8235 29.8618 68.6046 27.3185 67.423C27.3147 67.3033 27.3112 67.1867 27.3074 67.0735C26.353 66.5827 25.4023 66.086 24.4598 65.5775C25.4119 65.9899 26.3572 66.4145 27.2998 66.8441C27.2996 66.8404 27.2992 66.8363 27.2992 66.8329C27.3579 66.8632 27.4171 66.8939 27.4758 66.9242C27.6456 67.0017 27.8164 67.0778 27.9857 67.156C30.5874 68.3518 33.1667 69.5871 35.7245 70.8535C37.0461 71.508 38.3631 72.1698 39.6726 72.844C40.6853 73.3074 41.7011 73.7659 42.7252 74.2097C40.5084 73.0138 38.2514 71.8739 35.9848 70.752C33.4273 69.4857 30.8476 68.2503 28.246 67.0542C27.9286 66.9083 27.6098 66.765 27.2915 66.6204C27.2858 66.4714 27.2801 66.3309 27.274 66.1983C26.6787 65.8903 26.0854 65.5789 25.4947 65.2634C26.6829 65.773 27.862 66.299 29.0355 66.8333C31.6484 68.0234 34.2392 69.2524 36.8085 70.5129C38.1487 71.1703 39.4839 71.8353 40.8113 72.5129C41.8163 72.9676 42.8245 73.4171 43.8402 73.8532C41.6042 72.6579 39.3287 71.52 37.0432 70.3984C35.7175 69.7478 34.385 69.1063 33.0469 68.4758C31.7682 67.8733 30.4978 67.2437 29.1863 66.6964C28.5457 66.429 27.904 66.1642 27.2604 65.902C27.2475 65.6535 27.2343 65.4475 27.2205 65.2935C26.997 65.1767 26.7728 65.0616 26.5503 64.9438C26.7726 65.0382 26.993 65.1358 27.2147 65.231C27.2141 65.227 27.2136 65.2229 27.2135 65.2186C27.3112 65.2651 27.409 65.3113 27.5071 65.3576C28.3632 65.7287 29.2165 66.1046 30.0656 66.4872C32.7033 67.6767 35.319 68.9058 37.9129 70.1668C39.2624 70.8229 40.6076 71.4869 41.9446 72.1633C42.9503 72.6137 43.9591 73.0594 44.9751 73.4913C42.7158 72.2946 40.4169 71.1546 38.1072 70.0331C36.8061 69.4015 35.499 68.7794 34.1871 68.1646C32.8902 67.5563 31.5988 66.9212 30.2643 66.3779C29.2494 65.9647 28.2299 65.5596 27.2069 65.1616C27.2025 65.1259 27.1983 65.0939 27.194 65.0686C27.0944 64.481 26.4723 64.2834 25.9497 64.2221C23.8488 64.8892 15.0492 67.5185 13.5972 67.8704C13.0297 68.0084 11.0065 68.4575 8.80071 68.4575C7.9559 68.4575 7.18296 68.3905 6.50302 68.2583C4.82581 67.933 3.14846 67.4559 2.29799 67.2004C2.28428 67.1962 2.27016 67.1944 2.25612 67.1917C2.22075 67.3904 2.4486 67.514 2.4486 67.514L10.914 72.7616C10.7352 72.6512 8.25748 71.1369 7.66243 71.7676C7.33737 72.1124 8.81823 73.3933 10.2926 74.5284C11.7198 75.4137 13.1203 76.2816 14.3377 77.035L14.3381 77.0353ZM1.3028 67.2073C1.45395 66.9103 1.79174 66.7187 2.1637 66.7187C2.26807 66.7187 2.37147 66.7337 2.4705 66.7634C3.31041 67.0158 4.96596 67.4872 6.61792 67.8076C7.26042 67.9325 7.99499 67.9957 8.80105 67.9957C10.94 67.9957 12.9047 67.5594 13.4558 67.4258C15.002 67.0504 24.9191 64.0812 26.0953 63.6822C27.0604 63.3549 27.2824 63.0455 27.2824 62.027C27.2824 61.1081 28.1612 50.067 28.447 46.5008C28.0466 46.3543 27.8149 46.2687 27.7966 46.262L25.7041 45.3682C23.7633 44.475 22.2303 43.7695 22.0779 42.2967C22.0126 41.6665 22.0302 41.2722 22.0559 40.6751C22.0858 39.9893 22.1267 39.05 22.08 37.1604C21.9873 33.3892 24.002 32.8544 27.3319 32.4222C30.6645 31.9898 42.4358 31.4098 44.3783 31.3419C45.1389 31.3155 45.8795 31.2915 46.5802 31.2915C47.9891 31.2915 49.0912 31.3887 50.2661 31.6167C50.4198 31.6467 50.6849 31.6984 51.0428 31.7681C51.744 29.9216 51.0507 27.3338 49.6947 25.8772C48.2715 24.3479 45.525 23.6279 44.7172 23.4431C39.9295 23.0217 35.5242 22.6239 35.4406 22.6157C34.922 22.5644 34.6728 22.4276 34.5545 22.3197C33.5556 22.2521 30.5943 22.0519 30.3365 22.0294C30.1622 22.0146 29.4956 21.9456 28.851 21.8789C28.3588 21.8279 27.8861 21.7791 27.6807 21.7589C26.9833 21.6915 27.0412 21.1985 27.0694 20.9614L27.1122 20.5636C27.1488 20.2146 27.2013 19.7163 27.2495 19.2686C27.2886 18.9043 27.375 18.5158 27.9063 18.5158C27.9791 18.5158 28.0554 18.5222 28.1363 18.5288C28.1705 18.5317 28.2066 18.5348 28.2447 18.5373C28.6257 18.5645 32.3179 18.7209 33.4301 18.7679C34.0991 18.4711 34.6842 18.4087 35.4494 18.4087C35.85 18.4087 36.3073 18.4268 36.8862 18.4493L37.0932 18.4573C38.9385 18.5289 53.4666 20.1322 55.3154 20.4076C56.2588 17.5158 58.1873 12.1983 59.4145 10.3394C60.8906 8.10437 62.9513 7.81748 64.5818 7.81748C65.0928 7.81748 67.1517 7.89293 69.0091 7.96496C68.6034 7.49436 68.4504 7.0284 68.3116 6.60588C68.2849 6.52425 68.2585 6.44397 68.2306 6.36481C67.9388 5.53641 68.538 3.97062 69.2287 2.40239C69.9454 0.775333 71.0282 0.696676 71.819 0.639086L71.8344 0.637935C72.3747 0.598687 75.5384 0.47998 78.3285 0.47998C79.5272 0.47998 80.4702 0.502613 81.1317 0.547469C83.8381 0.730882 84.5999 1.20281 85.4529 1.90187C86.2155 2.52681 86.3168 3.64154 85.7239 4.88419C85.4699 5.41647 85.1364 6.15373 84.7832 6.93386C84.5345 7.48343 84.2785 8.04888 84.0203 8.61015C84.1558 8.61718 84.2542 8.62279 84.3106 8.62678C85.4981 8.70974 86.4925 9.09586 87.2186 9.37754L87.5828 9.51856C88.3055 9.79806 89.2051 10.1458 90.224 10.5741C91.5278 11.1223 91.9396 11.8001 91.6452 12.9141C91.6229 12.9972 89.5646 20.6458 88.5638 24.4815C89.0434 24.5593 89.4405 24.6292 89.7278 24.6868C91.8295 25.1107 93.1162 25.7152 93.4488 26.4353C93.7018 26.9832 93.5859 28.4317 92.9074 29.3094C92.5264 29.8027 92.0115 30.0632 91.4189 30.0635H91.4188C91.3701 30.0635 91.3209 30.0617 91.2704 30.0582C91.1181 30.0473 90.8695 30.0259 90.5436 29.9955C90.6115 30.1775 90.652 30.3734 90.6601 30.5812L90.6629 30.6495C90.7335 32.4269 90.8989 36.5891 88.8634 42.4695C86.8189 48.376 85.3213 49.0603 82.6024 50.3023L82.4502 50.3716C81.0253 51.0238 75.8682 53.1499 69.3334 53.1499C69.1577 53.1499 68.9827 53.1442 68.8076 53.1411L61.2752 55.3319V58.3584L70.821 60.3344C71.1554 60.0196 71.6317 59.8212 72.161 59.8212C73.1702 59.8212 73.991 60.5381 73.991 61.4194C73.991 62.3006 73.1701 63.0176 72.161 63.0176C71.3495 63.0176 70.6605 62.5534 70.4214 61.9136L61.2752 60.02V63.558C61.3687 63.5662 61.4605 63.5766 61.5538 63.5852C61.7089 63.5997 61.8631 63.6148 62.0173 63.6304C62.256 63.6547 62.4937 63.6798 62.7302 63.7069C62.8749 63.7236 63.0187 63.7411 63.1626 63.7588C63.4047 63.7888 63.6457 63.8196 63.8855 63.8526C64.0224 63.8715 64.1582 63.8914 64.2943 63.9114C64.5363 63.9468 64.7774 63.9833 65.0166 64.0219C65.1487 64.0434 65.2797 64.0658 65.411 64.0882C65.6499 64.1288 65.8875 64.1705 66.1235 64.2142C66.2537 64.2383 66.383 64.2641 66.5125 64.2894C66.7442 64.3346 66.975 64.3805 67.2033 64.4291C67.3357 64.457 67.4667 64.4864 67.598 64.5155C67.8189 64.5644 68.0392 64.614 68.2571 64.666C68.3935 64.6986 68.5284 64.7325 68.6635 64.7662C68.8714 64.8181 69.0787 64.8702 69.2834 64.9247C69.4261 64.9629 69.5666 65.0025 69.7075 65.0418C69.9 65.0955 70.0925 65.1494 70.2822 65.2054C70.4313 65.2496 70.5777 65.2955 70.7248 65.3412C70.9019 65.3962 71.0791 65.4509 71.2532 65.5082C71.4075 65.5587 71.5586 65.6113 71.7104 65.6634C71.873 65.7196 72.0359 65.7752 72.1958 65.8331C72.3521 65.8896 72.5051 65.9484 72.6589 66.0068C72.8098 66.0645 72.9615 66.1214 73.1098 66.1805C73.2626 66.2418 73.4115 66.3046 73.5613 66.3673C73.672 66.4139 73.786 66.4583 73.8951 66.5058C73.9457 66.5276 73.9943 66.5501 74.0443 66.5723C74.0602 66.5792 74.077 66.5855 74.0929 66.593C74.1287 66.6089 74.1633 66.6251 74.199 66.6411C74.28 66.6779 74.3606 66.7145 74.4403 66.7514C74.4992 66.7786 74.5577 66.8061 74.6159 66.8336C74.7005 66.8733 74.784 66.9131 74.8669 66.9535C74.9183 66.9784 74.9689 67.0034 75.0196 67.0287C75.1075 67.0722 75.195 67.1159 75.2813 67.16C75.3241 67.1819 75.3663 67.2041 75.4085 67.2259C75.5013 67.2742 75.5933 67.3225 75.6839 67.3712C75.7171 67.3893 75.7501 67.4074 75.7832 67.4255C75.881 67.4787 75.9779 67.5323 76.0734 67.5864C76.0974 67.6 76.1211 67.6135 76.1448 67.6274C76.2477 67.6861 76.349 67.7453 76.4489 67.805C76.464 67.814 76.4791 67.8232 76.4942 67.8323C76.6014 67.8966 76.7066 67.9613 76.8103 68.0266C76.8174 68.0308 76.824 68.0354 76.8309 68.0397C79.2415 69.5619 80.7182 71.3263 81.129 73.1966C81.1298 73.2008 81.1304 73.205 81.1311 73.2092C81.1497 73.2936 81.1663 73.3781 81.1803 73.4632C81.1834 73.4819 81.1853 73.501 81.1881 73.5198C81.1989 73.5903 81.2094 73.6614 81.2173 73.7324C81.2214 73.7691 81.2232 73.806 81.2264 73.8428C81.2312 73.8963 81.2368 73.95 81.2397 74.0037C81.2447 74.0943 81.2473 74.1855 81.2473 74.2766C81.2473 77.2261 78.636 79.9857 73.895 82.0473C69.2124 84.0835 62.9924 85.2048 56.3813 85.2048C49.7697 85.2048 43.5499 84.0835 38.8673 82.0473C37.4784 81.4436 36.2738 80.7793 35.2622 80.068C34.9765 80.15 34.6964 80.2304 34.4238 80.3082V83.7883C34.7764 83.9572 34.9912 84.1988 34.9912 84.4763V86.0372C34.9912 86.5723 34.1981 86.9757 33.1461 86.9757C32.0946 86.9757 31.3015 86.5722 31.3015 86.0372V84.4763C31.3015 84.1988 31.5161 83.9572 31.8686 83.7883V81.0277C31.3008 81.1842 30.8402 81.3071 30.5292 81.3844C29.4933 81.641 28.2909 81.771 26.9558 81.771C24.4994 81.771 22.2837 81.329 21.663 81.1938C20.2293 80.8808 18.9556 80.4034 17.8771 79.7756C16.9206 79.2187 3.68259 70.9922 1.03847 69.3485C0.675321 69.1227 0.542978 68.7004 0.72428 68.3442L1.3028 67.2073V67.2073Z" fill="black"/>
<path d="M10.9143 72.7617C10.9208 72.7663 10.9248 72.7687 10.9248 72.7687L10.9143 72.7617Z" fill="black"/>
<path d="M26.5992 80.5063C26.9278 80.5063 27.1943 80.623 27.1943 80.7667C27.1943 80.9105 26.9278 81.0272 26.5992 81.0272C26.2703 81.0272 26.0039 80.9105 26.0039 80.7667C26.0039 80.623 26.2702 80.5063 26.5992 80.5063Z" fill="black"/>
<path d="M14.5715 72.8236C12.4813 71.6337 10.4015 70.4293 8.36499 69.1699C9.46804 69.7212 10.561 70.2882 11.648 70.8635C14.0825 72.1515 16.4923 73.478 18.8784 74.8338C20.9986 76.0385 23.107 77.2607 25.172 78.5366C24.0525 77.9767 22.9433 77.4006 21.8397 76.8168C19.392 75.5219 16.9688 74.1886 14.5716 72.8236H14.5715Z" fill="black"/>
<path d="M12.9048 72.6506C10.7779 71.4162 8.66156 70.1667 6.58911 68.863C7.71218 69.4379 8.82532 70.0281 9.93185 70.6263C12.3961 71.959 14.8349 73.3296 17.2501 74.7287C19.407 75.9783 21.5518 77.2456 23.6521 78.566C22.5159 77.9839 21.3905 77.3855 20.2707 76.7788C17.7915 75.4366 15.3343 74.0607 12.9048 72.6506Z" fill="black"/>
<path d="M4.03662 68.0083C5.17514 68.6003 6.30334 69.2082 7.4251 69.824C9.92263 71.1953 12.3946 72.6038 14.8423 74.0424C17.0112 75.317 19.169 76.6085 21.282 77.953C20.1268 77.3515 18.9826 76.7333 17.8437 76.1074C15.3353 74.7285 12.8495 73.3167 10.392 71.8697C8.25205 70.6098 6.12224 69.3361 4.03662 68.0083Z" fill="black"/>
<path d="M87.4972 17.697C87.6264 17.6176 87.7853 17.5705 87.9428 17.5718C88.0191 17.5725 88.0954 17.5833 88.1664 17.6013C88.2108 17.6137 88.2331 17.6228 88.2672 17.6337C88.2989 17.6448 88.3349 17.6634 88.3677 17.6782C88.494 17.7446 88.5939 17.8384 88.6571 17.9418C88.722 18.0447 88.7584 18.1518 88.7825 18.2547C88.861 18.6705 88.7592 19.0078 88.6943 19.2336C88.629 19.4614 88.5917 19.5918 88.5917 19.5918C88.5917 19.5918 88.5713 19.4513 88.5647 19.2114C88.559 19.0888 88.5614 18.9518 88.5394 18.7962C88.5291 18.6429 88.4873 18.4741 88.4284 18.3211C88.364 18.1679 88.2528 18.0542 88.1431 18.0162C88.1383 18.0157 88.1344 18.0147 88.1304 18.0133C88.1233 18.0115 88.1312 18.0112 88.1091 18.006L88.0607 17.9936L88.0365 17.9874L88.0304 17.9859L88.0275 17.9849C88.0059 17.9788 88.0533 17.9927 88.0479 17.9911L88.0412 17.9902C88.0044 17.9856 87.9742 17.9856 87.9385 17.9896C87.889 17.9957 87.8415 18.0113 87.782 18.0519C87.6597 18.1309 87.5168 18.3143 87.409 18.522C87.3551 18.6258 87.3055 18.7429 87.2651 18.8532L87.2326 18.9468L87.2021 19.0388L87.1398 19.2308C87.1117 19.313 87.0842 19.3939 87.0561 19.4759C87.0593 19.5749 87.0714 19.6929 87.1244 19.8118C87.2637 20.1239 87.4667 20.5408 87.6946 20.799C87.8312 20.9538 88.1305 20.9356 88.1867 20.8125C88.2429 20.6891 88.4432 20.3279 88.4885 20.2598C88.3803 20.8173 88.1735 21.5609 87.9877 22.2028C87.8934 22.529 87.6065 23.5497 87.1311 23.5339C87.9985 22.9677 86.8507 21.7654 86.695 21.1529C86.8213 21.387 86.9931 21.5955 87.1476 21.8164C87.2421 21.9514 87.3732 22.1892 87.5182 22.3365C87.5788 22.3982 87.6946 22.3538 87.6835 22.2731C87.6061 21.7175 87.0736 20.8763 86.7373 20.4232C86.702 20.527 86.6664 20.6301 86.6317 20.7317C86.5491 20.9715 86.4774 21.2056 86.3959 21.4256C86.3152 21.6498 86.2425 21.8559 86.1687 22.0482C86.1316 22.1435 86.0959 22.2347 86.062 22.3216C86.0298 22.4032 86.0044 22.4825 85.9868 22.558C85.9465 22.7088 85.9363 22.8452 85.9449 22.9573C85.9505 23.0701 85.9752 23.1592 85.9977 23.218C86.0086 23.2476 86.0195 23.2702 86.0272 23.2853C86.0347 23.3002 86.0385 23.3082 86.0385 23.3082C86.0385 23.3082 86.0331 23.301 86.0227 23.2878C86.012 23.2743 85.9968 23.2543 85.9795 23.2265C85.9446 23.1715 85.8996 23.0866 85.8684 22.9711C85.8374 22.8559 85.8205 22.7112 85.8325 22.5462C85.8415 22.3798 85.8919 22.1979 85.9344 22.0012C86.0278 21.6076 86.1369 21.148 86.2539 20.6557C86.3711 20.1628 86.5215 19.6417 86.6766 19.1221C86.716 18.9929 86.7541 18.8617 86.7975 18.7328C86.8425 18.6013 86.8937 18.4739 86.9548 18.3492C87.0785 18.103 87.2363 17.8578 87.4975 17.6968L87.4972 17.697Z" fill="black"/>
<path d="M88.044 18.4468C88.044 18.4468 88.0498 18.4477 88.0609 18.4495C88.0719 18.4514 88.0884 18.4515 88.1083 18.4588C88.1491 18.4709 88.2082 18.494 88.2592 18.5517C88.285 18.58 88.3079 18.6169 88.3194 18.6608C88.3309 18.7043 88.331 18.7538 88.3172 18.802C88.2901 18.8986 88.2085 18.9872 88.099 19.0331C87.9896 19.0814 87.8529 19.0762 87.7571 19.0331C87.7088 19.0113 87.6707 18.9864 87.6357 18.9535C87.6 18.9192 87.5814 18.8839 87.5678 18.8508C87.5434 18.7834 87.5519 18.7264 87.5648 18.691C87.5791 18.6546 87.596 18.6394 87.596 18.6394C87.596 18.6394 87.5981 18.6607 87.6128 18.6905C87.6268 18.7202 87.6522 18.7591 87.6907 18.7907C87.7086 18.8067 87.733 18.8207 87.7542 18.8282C87.7756 18.8371 87.8069 18.8444 87.8339 18.8478C87.8892 18.8538 87.9379 18.8463 87.9831 18.8262C88.0282 18.8061 88.0675 18.7728 88.0917 18.7357C88.1168 18.6984 88.1252 18.6567 88.1203 18.6119C88.1132 18.5684 88.0922 18.5247 88.0749 18.4961C88.0568 18.4658 88.0441 18.4469 88.0441 18.4469L88.044 18.4468Z" fill="black"/>
<path d="M86.2864 23.1368C86.2864 23.1368 86.2884 23.1578 86.3031 23.1878C86.3172 23.2173 86.3426 23.2563 86.3812 23.2878C86.399 23.3037 86.4234 23.3178 86.4446 23.3252C86.4659 23.3341 86.4974 23.3415 86.5243 23.345C86.5796 23.3511 86.6283 23.3433 86.6737 23.3233C86.7188 23.3033 86.7582 23.2701 86.7822 23.2328C86.8073 23.1958 86.8157 23.1542 86.8108 23.1091C86.8038 23.0656 86.7828 23.0221 86.7656 22.9933C86.7475 22.9631 86.7346 22.9443 86.7346 22.9443C86.7346 22.9443 86.7405 22.945 86.7515 22.9468C86.7626 22.949 86.779 22.949 86.799 22.9563C86.8398 22.9684 86.8989 22.9914 86.9501 23.0492C86.9758 23.0774 86.9987 23.1142 87.0101 23.1581C87.0215 23.2019 87.0217 23.2511 87.0078 23.2992C86.981 23.3958 86.8992 23.4844 86.7896 23.5303C86.6803 23.5786 86.5435 23.5733 86.4477 23.5305C86.3995 23.5084 86.3615 23.4834 86.3263 23.4507C86.2907 23.4163 86.2721 23.3812 86.2584 23.3479C86.234 23.2805 86.2427 23.2235 86.2555 23.1881C86.2698 23.1519 86.2866 23.1368 86.2866 23.1368L86.2864 23.1368Z" fill="black"/>
<path d="M53.1514 63.2479C52.9023 63.3776 52.5808 63.3461 52.3703 63.1716C52.2182 63.0451 52.1209 62.7908 52.2631 62.629C52.3001 62.8978 52.6369 63.0896 52.9257 62.9623C53.2507 62.8186 53.1723 62.526 53.0176 62.3047C53.5745 62.394 53.5981 63.0154 53.1514 63.2478V63.2479Z" fill="black"/>
<path d="M50.9819 70.8081C50.8402 70.6889 50.7508 70.448 50.8892 70.2988C50.9283 70.5272 51.202 70.6954 51.4583 70.6093C51.5967 70.5629 51.7034 70.4465 51.7108 70.3161C51.7174 70.1986 51.6501 70.0977 51.5868 69.999C52.1344 70.0584 52.1238 70.6831 51.7044 70.8895C51.4703 71.0045 51.1754 70.97 50.9819 70.8081V70.8081Z" fill="black"/>
<path d="M46.6897 74.8832C46.6864 74.8872 46.6831 74.891 46.6796 74.895C46.5586 75.0422 46.4212 75.2289 46.3186 75.4233C46.2999 75.422 46.2818 75.4186 46.2628 75.4186C45.8335 75.4186 45.4856 75.707 45.4856 76.0635C45.4856 76.4197 45.8335 76.7085 46.2628 76.7085C46.4199 76.7085 46.5657 76.669 46.6882 76.6024C46.8032 76.659 46.9121 76.6972 46.9899 76.7205C47.0691 76.6966 47.1519 76.6717 47.2398 76.6458C47.3841 76.6022 47.5402 76.5553 47.7031 76.5055C47.7234 76.4939 47.7442 76.481 47.7648 76.4683L48.131 74.8477C48.1243 74.8879 48.0835 75.8948 48.0698 76.2441C48.1915 76.1341 48.2882 76.01 48.3172 75.8776C48.4631 75.2036 48.4866 75.151 48.4866 74.9055C48.4866 74.7133 48.3593 74.4598 48.1692 74.3935C47.6269 74.5813 47.0469 74.7693 46.6898 74.8834L46.6897 74.8832ZM50.2885 72.3501C50.2534 72.9963 50.0799 73.3352 49.875 73.5534C49.939 73.7079 50.3878 74.7941 50.3878 74.8477L49.6556 73.7448C49.5926 73.7909 49.53 73.8322 49.4703 73.8732C49.4517 73.8859 49.4262 73.9005 49.3974 73.9158C49.2443 74.0981 49.0421 74.3561 49.0158 74.494C48.9628 74.7724 48.9012 75.4144 48.8339 75.8368C48.8156 75.9511 48.9078 76.0274 49.0142 76.0737C49.1935 76.0077 49.3722 75.9372 49.5458 75.8592C49.7447 75.7727 49.9362 75.6758 50.1099 75.5661C50.2712 75.4646 50.4195 75.3493 50.5281 75.2248C50.7267 74.7586 50.5197 74.2814 50.2475 73.7146C50.4068 73.9251 50.8324 74.2909 51.032 74.458C51.0569 74.413 51.0828 74.3677 51.1051 74.3243C51.2426 74.0564 51.3292 73.8216 51.383 73.655C51.4368 73.4886 51.4624 73.3908 51.4624 73.3908C51.4624 73.3908 51.4606 73.4157 51.4567 73.4623C51.4532 73.5087 51.4476 73.5773 51.4344 73.664C51.409 73.8375 51.3585 74.0861 51.2459 74.3727C51.1909 74.516 51.1222 74.6689 51.0376 74.8253C50.9521 74.9832 50.864 75.1432 50.7471 75.3092C50.6159 75.4818 50.4494 75.6248 50.2607 75.7457C50.0735 75.8673 49.8721 75.9722 49.6655 76.0652C49.4578 76.1559 49.2458 76.236 49.0352 76.3087C48.8252 76.3828 48.6136 76.4432 48.4097 76.5012C48.0011 76.6159 47.6145 76.7041 47.2818 76.7731C46.6169 76.912 46.1669 76.9771 46.1669 76.9771C46.1669 76.9771 46.1943 76.9684 46.2456 76.952C46.0236 76.995 45.8038 77.0281 45.6502 77.0281C45.4153 77.0281 45.1743 76.6158 45.2705 76.0298C45.3967 75.2635 46.1884 74.8357 46.9555 74.5899C46.9555 74.5899 49.1144 73.9456 49.5114 73.6856C49.908 73.4258 50.1727 72.8413 50.2883 72.3504L50.2885 72.3501Z" fill="black"/>
<path d="M51.4376 67.7086C51.5252 67.9664 52.153 68.7476 52.245 68.8425C52.3773 68.9787 52.5046 68.872 52.5816 68.7726C52.5923 68.7274 52.6028 68.683 52.6134 68.6378C52.6302 68.5694 52.6469 68.5018 52.6635 68.4337C52.5505 67.9367 51.7847 66.7625 51.7847 66.7625C51.7847 66.7625 52.7783 67.9614 52.9256 67.3835C52.9411 67.3225 52.9495 67.2931 52.9531 67.2864C53.0244 67.0132 53.094 66.7579 53.1576 66.533C53.3173 65.9609 53.4443 65.5825 53.4443 65.5825C53.4443 65.5825 53.4041 65.9753 53.3061 66.5584C53.2586 66.8502 53.1959 67.1898 53.1223 67.5524C53.084 67.7333 53.0484 67.9211 53.0039 68.1104C52.9605 68.3001 52.9166 68.4926 52.8723 68.6853C52.8241 68.8771 52.7756 69.069 52.728 69.2577C52.6818 69.4469 52.6272 69.6311 52.5787 69.8106C52.4784 70.1684 52.378 70.5008 52.2849 70.7842C52.1018 71.3519 51.9509 71.7238 51.9509 71.7238C51.9509 71.7238 52.0153 71.3336 52.1369 70.7543C52.163 70.628 52.1921 70.4917 52.2224 70.3492C52.1998 69.9292 51.9728 69.6644 51.6289 69.1761C51.2593 68.6509 50.8276 68.8505 50.7515 69.4046C50.7515 69.4046 51.077 67.6092 51.267 66.0769C51.2462 66.6797 51.2974 67.2961 51.4376 67.7085V67.7086Z" fill="black"/>
<path d="M46.328 76.2331C46.6521 76.1087 46.5819 75.8227 46.4387 75.6084C47.0188 75.6774 46.9791 76.3443 46.5204 76.5362C46.2753 76.6388 45.9748 76.5888 45.7908 76.4128C45.6633 76.2909 45.5919 76.0589 45.7215 75.9166C45.7603 76.1619 46.0587 76.3365 46.328 76.2331V76.2331Z" fill="black"/>
<path d="M53.3546 55.3032C53.3744 55.2553 53.3987 55.1969 53.4326 55.1313C53.4667 55.0659 53.5142 54.9923 53.589 54.9273C53.7371 54.7943 53.9728 54.7135 54.2154 54.6599C54.4561 54.6053 54.7128 54.547 54.9696 54.4889C55.2274 54.4324 55.4844 54.3742 55.727 54.3234C55.969 54.2715 56.1966 54.229 56.3909 54.1889C56.5849 54.149 56.7488 54.1226 56.8626 54.101C56.9771 54.0817 57.0424 54.0706 57.0424 54.0706C57.0424 54.0706 56.9795 54.0897 56.8693 54.1227C56.7584 54.1538 56.6012 54.2025 56.4099 54.2521C56.2187 54.3017 55.9967 54.3636 55.7567 54.4222C55.517 54.4824 55.2599 54.5419 55.0025 54.6005C54.7443 54.657 54.4863 54.7132 54.2412 54.7581C54.1205 54.7825 54.0074 54.8055 53.904 54.84C53.801 54.8741 53.7105 54.9191 53.6394 54.9737C53.498 55.0846 53.4304 55.2226 53.3778 55.3117C53.3267 55.4034 53.2949 55.4546 53.2949 55.4546C53.2949 55.4546 53.3166 55.3995 53.3547 55.3033L53.3546 55.3032Z" fill="black"/>
<path d="M75.2448 45.287C74.6056 45.4846 73.9465 45.6425 73.2907 45.7909C72.6174 45.9432 71.9366 46.0876 71.2505 46.1895C69.8353 46.399 68.4224 46.551 66.9897 46.6341C64.486 46.7789 61.9714 46.6738 59.4731 46.5112C60.7227 46.5262 61.9722 46.5461 63.2218 46.5338C66.0399 46.5064 68.8769 46.3766 71.6478 45.8991C73.0022 45.6658 74.3379 45.3785 75.6533 45.0113C76.7064 44.7175 77.7309 44.3695 78.7562 44.0098C78.2761 44.2085 77.7994 44.4167 77.3082 44.5936C76.6255 44.8399 75.9414 45.0718 75.245 45.287H75.2448Z" fill="black"/>
<path d="M59.8629 48.13C59.3743 48.13 58.978 48.4758 58.978 48.9025C58.978 49.1443 59.1076 49.3574 59.3067 49.4991C59.3638 50.0655 60.0618 50.7479 61.4098 51.3643C60.4701 51.1534 59.631 50.8865 59.0248 50.5579C58.4187 50.2292 58.0056 48.4696 59.2067 47.8834C60.1838 47.4068 63.3693 47.8975 65.5046 47.8725C64.9048 48.0888 62.0557 48.1229 60.5644 48.4363C60.4028 48.2514 60.15 48.13 59.863 48.13H59.8629Z" fill="black"/>
<path d="M72.4223 46.3655C71.064 46.6086 69.6954 46.7959 68.3126 46.8951C65.8844 47.0694 63.4589 47.0202 61.0322 46.8577C62.2459 46.8725 63.4584 46.881 64.6724 46.859C67.3975 46.81 70.1358 46.5822 72.7997 46.0692C74.1065 45.8175 75.4096 45.5075 76.6643 45.0991C77.2764 44.8999 77.8828 44.6935 78.4846 44.4717C78.8836 44.3247 79.2728 44.1546 79.6659 43.9958C78.5529 44.5209 77.4225 45.0289 76.2275 45.3997C74.981 45.7868 73.72 46.1332 72.4223 46.3656L72.4223 46.3655Z" fill="black"/>
<path d="M85.7987 44.2813C85.5241 44.4061 85.1862 44.3611 84.9612 44.177C84.7872 44.0345 84.6849 43.7587 84.8296 43.5713C84.8617 43.8951 85.259 44.1304 85.6067 43.9791C85.7761 43.9055 85.8954 43.7487 85.8884 43.5816C85.8824 43.434 85.7889 43.316 85.6995 43.1973C85.9557 43.2503 86.1641 43.4217 86.1972 43.6565C86.2334 43.9145 86.0573 44.1637 85.7986 44.281L85.7987 44.2813Z" fill="black"/>
<path d="M60.1543 49.3397C59.9222 49.4536 59.6294 49.4195 59.438 49.2587C59.2976 49.1405 59.2089 48.9012 59.3471 48.7539C59.3867 48.979 59.6565 49.1445 59.9094 49.0592C60.0453 49.0136 60.1504 48.8992 60.1582 48.7713C60.1656 48.6548 60.0994 48.5555 60.0371 48.4575C60.5814 48.5144 60.5699 49.1353 60.1545 49.3397H60.1543Z" fill="black"/>
<path d="M74.9424 51.1237C74.719 50.6382 74.284 50.1933 73.9091 49.7875C73.5434 49.3919 72.5452 48.2301 71.9484 48.0734C71.2985 47.9027 72.0679 48.7364 72.2542 49.0116C72.682 49.6438 73.0911 50.3046 73.5689 50.9246C72.619 50.0708 71.7584 49.1837 70.6864 48.4272C70.0079 47.9485 69.4862 47.8905 68.6975 47.7026C70.5624 47.6662 74.5773 47.062 75.749 46.5874C75.3146 46.7866 74.1619 47.3257 73.8848 47.5557C73.44 47.9249 74.809 49.1743 75.1145 49.5742C75.3243 49.8485 76.5509 51.3278 76.956 50.4879C77.0657 50.2607 76.9321 50.0567 77.3107 50.0064C77.7686 49.945 78.0989 50.271 78.4669 50.4358C78.965 50.6591 79.4401 50.4943 79.9667 50.4089C77.4997 51.6888 71.4921 52.3297 71.4921 52.3297C71.4921 52.3297 75.207 51.6981 74.9426 51.1237L74.9424 51.1237Z" fill="black"/>
<path d="M75.749 46.5885C75.8523 46.5405 75.9157 46.5115 75.9159 46.5112C75.8698 46.5364 75.8126 46.5622 75.749 46.5885Z" fill="black"/>
<path d="M82.0884 47.3545C82.0884 47.3545 82.0149 47.2888 81.9023 47.1846C82.0225 47.2888 82.0884 47.3545 82.0884 47.3545Z" fill="black"/>
<path d="M81.9022 47.1846C81.3985 46.7499 79.9304 45.641 78.238 45.8275C79.0978 45.5678 80.9494 44.6727 81.743 43.9956C81.743 43.9956 80.3417 45.2457 80.3747 45.5001C80.4121 45.7873 81.4674 46.7845 81.9021 47.1846H81.9022Z" fill="black"/>
<path d="M85.8391 40.3755C85.8755 40.6595 86.2171 40.8702 86.5303 40.7479C86.6774 40.6902 86.7915 40.5647 86.8051 40.4223C86.8192 40.2733 86.7264 40.1518 86.6424 40.0305C87.2214 40.1336 87.249 40.7836 86.7748 41.0262C86.5127 41.1604 86.1808 41.1267 85.9587 40.9461C85.7928 40.8113 85.6986 40.5512 85.8391 40.3755Z" fill="black"/>
<path d="M84.5157 47.9332C85.132 47.4216 85.6249 46.808 86.1534 46.2295C85.9392 46.5855 85.7049 46.9336 85.4464 47.2663C85.1479 47.6507 84.8086 48.0128 84.4104 48.3218C84.0173 48.6268 83.5709 48.8833 83.1227 49.1213C82.4385 49.4851 81.732 49.8218 81.0046 50.1154C81.3529 49.89 81.7155 49.682 82.0767 49.4733C82.9094 48.9923 83.7892 48.5363 84.5157 47.9332Z" fill="black"/>
<path d="M64.9541 51.9946C64.8337 51.9724 64.7136 51.95 64.5954 51.9283C64.4769 51.9073 64.3625 51.8775 64.2509 51.8533C64.0285 51.8007 63.8227 51.7455 63.649 51.6907C63.3003 51.585 63.0781 51.488 63.0781 51.488C63.0781 51.488 63.1401 51.4931 63.247 51.505C63.3535 51.518 63.5058 51.536 63.6865 51.5624C63.8674 51.5878 64.0777 51.6184 64.3019 51.6545C64.5268 51.6883 64.7648 51.7307 65.0036 51.7679C65.123 51.7886 65.2421 51.809 65.3595 51.8289C65.477 51.8477 65.5918 51.8711 65.7038 51.89C65.9275 51.9293 66.1358 51.9686 66.3146 52.0046C66.4937 52.0399 66.6419 52.072 66.7468 52.0958C66.8513 52.1197 66.9106 52.1354 66.9106 52.1354C66.9106 52.1354 66.663 52.1512 66.2942 52.1354C66.1099 52.1291 65.8955 52.114 65.6669 52.0903C65.5526 52.0772 65.4343 52.0668 65.3152 52.0488C65.196 52.031 65.075 52.0128 64.954 51.9946H64.9541Z" fill="black"/>
<path d="M71.9036 26.9602C71.904 26.9598 71.9045 26.9592 71.9051 26.9585C71.9046 26.9594 71.9046 26.9601 71.9042 26.961C71.8964 26.9694 71.8962 26.9691 71.9037 26.9602H71.9036Z" fill="black"/>
<path d="M71.6511 25.0986C71.7846 24.9635 72.0073 24.93 72.1642 24.8112C72.3641 24.6596 72.4522 24.4872 72.55 24.2891C72.6371 24.7249 72.6434 25.1957 72.5218 25.7187C72.4051 26.2205 72.2569 26.5772 71.9051 26.9586C71.9989 26.7368 72.0097 26.4523 71.9056 26.2296C71.7343 25.8635 71.2494 25.5053 71.6511 25.0986Z" fill="black"/>
<path d="M67.1497 25.6148C67.5731 25.7818 68.0111 25.7869 68.4309 25.9492C68.8819 26.1238 69.2548 26.4258 69.7332 26.5523C69.853 26.5837 69.9783 26.5887 70.0994 26.616C70.2645 26.653 70.5351 26.855 70.6766 26.8541C70.2593 26.8569 68.9962 26.686 68.5592 26.6275C67.7965 26.5252 67.0242 26.4389 66.26 26.3165C65.9706 26.2702 65.7653 26.0434 65.7836 25.787C65.8344 25.0637 65.967 23.616 66.0475 23.2661C66.1041 24.0573 66.1879 25.2351 67.1497 25.6148Z" fill="black"/>
<path d="M64.8495 26.0623C63.7153 25.9369 61.1391 25.6485 61.126 25.6147C61.1096 25.5713 61.4897 23.2661 61.4897 23.2661C61.8368 24.1133 61.4251 24.6443 63.3102 24.6731C65.1421 24.7011 64.8789 24.0555 65.6892 23.4058L65.4283 25.6593C65.3992 25.9119 65.1381 26.094 64.8495 26.0623Z" fill="black"/>
<path d="M62.1566 23.3983C62.0045 23.3928 61.8862 23.285 61.8923 23.1574C61.8986 23.0299 62.0268 22.9312 62.1788 22.9367C62.3309 22.9423 62.4492 23.0503 62.4429 23.1777C62.4368 23.3052 62.3085 23.4039 62.1566 23.3983H62.1566Z" fill="black"/>
</svg>
